<svg width="50" height="70" viewBox="0 0 50 70" fill="none" xmlns="http://www.w3.org/2000/svg">
<path d="M49.247 61.7958L45.4244 28.2606C45.2199 26.462 44.3604 24.8017 43.0098 23.5965C41.6592 22.3912 39.9122 21.7254 38.102 21.7262H35.7747V10.774C35.7747 7.91646 34.6395 5.17592 32.6189 3.1553C30.5983 1.13468 27.8578 -0.000488281 25.0002 -0.000488281C22.1426 -0.000488281 19.402 1.13468 17.3814 3.1553C15.3608 5.17592 14.2256 7.91646 14.2256 10.774V21.7262H11.8984C10.0882 21.7254 8.34111 22.3912 6.99053 23.5965C5.63995 24.8017 4.78041 26.462 4.57597 28.2606L0.753343 61.7958C0.643356 62.8259 0.750401 63.8677 1.06758 64.854C1.38476 65.8402 1.90504 66.7491 2.5949 67.522C3.28475 68.295 4.12888 68.9148 5.07289 69.3416C6.01691 69.7684 7.03986 69.9927 8.07584 70L41.9246 70.0001C42.9606 69.9927 43.9835 69.7684 44.9275 69.3416C45.8715 68.9148 46.7156 68.2949 47.4055 67.522C48.0953 66.7491 48.6156 65.8402 48.9328 64.8539C49.2499 63.8677 49.357 62.8259 49.247 61.7958ZM16.7256 10.774C17.1141 -0.175213 32.887 -0.174701 33.2747 10.7742V21.7262H16.7256V10.774ZM45.5586 65.8729C45.1014 66.3845 44.5414 66.7938 43.9152 67.0742C43.289 67.3546 42.6107 67.4997 41.9246 67.5001H8.07573C7.39116 67.4953 6.7152 67.3472 6.0914 67.0652C5.4676 66.7831 4.90981 66.3736 4.45398 65.8628C3.99815 65.352 3.6544 64.7514 3.44488 64.0997C3.23537 63.448 3.16473 62.7596 3.23753 62.0789L7.06017 28.5439C7.19533 27.3555 7.76328 26.2585 8.65566 25.4621C9.54804 24.6658 10.7024 24.2258 11.8984 24.2262H38.102C39.2981 24.2258 40.4524 24.6658 41.3448 25.4621C42.2372 26.2585 42.8051 27.3555 42.9403 28.5439L46.7629 62.079C46.8404 62.7606 46.7732 63.4507 46.5657 64.1045C46.3582 64.7583 46.015 65.3609 45.5586 65.8729Z" fill="#9C9799"/>
<path d="M41.2827 39.5449C35.4682 24.679 14.2314 24.7599 8.62457 39.8291C4.29394 50.776 13.0321 63.3794 24.7043 63.3187C36.8912 63.7938 45.8661 50.6745 41.2827 39.5449ZM38.5619 39.5592L36.9022 40.4287C36.4616 40.6598 35.959 40.745 35.4668 40.6722C34.9747 40.5994 34.5183 40.3722 34.1635 40.0234C33.3938 39.4103 32.7569 38.6469 32.2916 37.7798C31.5874 36.3657 30.4469 35.2157 29.0386 34.4999C27.6304 33.7842 26.0291 33.5406 24.4718 33.8053C24.3176 33.7919 24.1686 33.7433 24.0363 33.663C23.904 33.5828 23.7919 33.4731 23.7088 33.3426C23.3238 32.8337 24.0849 31.6276 24.2881 30.9263C24.5258 30.9151 24.7599 30.8902 25.0003 30.8902C27.8515 30.8946 30.6422 31.7127 33.0445 33.2483C35.4468 34.7839 37.3609 36.9733 38.5619 39.5592ZM10.0284 45.8621C10.0313 44.934 10.1206 44.0081 10.2951 43.0966L11.4621 44.7769C11.9743 45.5204 12.7283 46.0635 13.5959 46.3137C13.7756 46.3653 13.9431 46.4526 14.0884 46.5704C14.2337 46.6881 14.3537 46.834 14.4413 46.9993C14.5288 47.1645 14.5822 47.3457 14.5981 47.5321C14.614 47.7184 14.5922 47.906 14.5339 48.0837C13.9689 49.9722 12.5765 52.6152 13.9744 54.4716C14.28 54.8109 14.4563 55.247 14.4723 55.7034L14.443 56.4662C13.0432 55.0779 11.9324 53.426 11.1747 51.6059C10.4169 49.7858 10.0273 47.8336 10.0284 45.8621ZM26.3529 60.7655L26.6617 58.6563C26.6714 58.5709 26.7001 58.4889 26.7457 58.4161C26.7913 58.3434 26.8526 58.2818 26.9252 58.2358C26.9977 58.1899 27.0797 58.1609 27.1649 58.1508C27.2502 58.1407 27.3367 58.1499 27.4179 58.1777C30.149 59.0021 31.8429 58.2767 33.757 56.0964C33.8481 55.9855 33.9713 55.9055 34.1097 55.8675C34.2481 55.8294 34.3948 55.8352 34.5298 55.8841L35.6878 56.3276C33.2041 58.8715 29.8938 60.4452 26.3529 60.7655ZM37.3628 54.2928L35.43 53.5526C34.8179 53.3212 34.1496 53.2827 33.5149 53.4422C32.8802 53.6017 32.3096 53.9516 31.8796 54.4449C31.3766 55.0757 30.7411 55.5883 30.0181 55.9464C28.6917 56.1905 26.8688 55.1011 25.5771 56.1418C24.0401 56.964 24.0829 59.2986 23.8256 60.7746C21.3463 60.5828 18.9549 59.772 16.8702 58.4165L16.9705 55.8072C16.9962 54.8293 16.6773 53.8735 16.0696 53.107C15.9558 52.9315 15.8826 52.7328 15.8553 52.5254C15.8281 52.318 15.8475 52.1072 15.9121 51.9082L16.9082 48.8662C17.0698 48.3687 17.1297 47.8438 17.0845 47.3226C17.0393 46.8015 16.8898 46.2947 16.645 45.8325C16.4001 45.3702 16.0649 44.9618 15.6591 44.6316C15.2534 44.3014 14.7855 44.0561 14.2831 43.9103C13.9724 43.8196 13.7026 43.6242 13.5196 43.3573L11.2104 40.0324C12.1251 37.8867 13.5268 35.9834 15.3045 34.4734C17.0823 32.9633 19.1872 31.888 21.4526 31.3325C21.2213 31.8015 21.0999 32.3171 21.0977 32.84C21.0955 33.363 21.2126 33.8796 21.44 34.3505C21.6674 34.8214 21.9992 35.2343 22.4101 35.5578C22.821 35.8813 23.3002 36.1068 23.8114 36.2173C25.5741 36.5175 28.2576 35.4972 30.0144 38.8113C30.3387 39.552 30.7987 40.2256 31.3705 40.7974L32.4191 41.8142C33.1506 42.5322 34.0912 42.9993 35.1053 43.1483C36.1195 43.2972 37.1547 43.1203 38.0618 42.6431L39.4298 41.9264C40.0013 44.0144 40.1124 46.2016 39.7556 48.3368C39.3987 50.4719 38.5823 52.5041 37.3628 54.2928Z" fill="#9C9799"/>
</svg>
