<svg width="70" height="70" viewBox="0 0 70 70" fill="none" xmlns="http://www.w3.org/2000/svg">
<path d="M47.0508 21.875C46.528 21.8794 34.4792 21.7372 27.7089 28.5031C23.172 33.0422 22.0673 39.6156 24.9264 43.5269L22.1964 46.2569C21.7698 46.6834 21.7698 47.3769 22.1964 47.8034C22.6229 48.23 23.3164 48.23 23.7429 47.8034L26.4554 45.0909C31.082 48.4094 37.4192 46.3684 41.4967 42.2888C48.2648 35.5184 48.1336 23.4587 48.1248 22.9469C48.1139 22.3606 47.6392 21.8859 47.0508 21.875ZM38.1564 25.2941C40.4555 24.6641 42.6254 24.3556 44.2464 24.2047L38.1564 30.2947V25.2941ZM31.1498 28.4659C32.6395 27.4072 34.2976 26.6 35.9689 25.9897V32.4844L31.1498 37.3034V28.4659ZM28.9623 30.3931V39.4909L26.4839 41.9694C24.5939 38.99 25.6067 33.985 28.9623 30.3931ZM28.0304 43.5159L30.5089 41.0375H39.6067C36.0148 44.3931 31.0098 45.4081 28.0304 43.5159ZM41.5339 38.85H32.6964L37.5154 34.0309H44.0101C43.3998 35.7022 42.5926 37.3603 41.5339 38.85ZM44.7058 31.8434H39.7029L45.7929 25.7534C45.6442 27.3744 45.3358 29.5444 44.7058 31.8434Z" fill="#9C9799"/>
<path d="M54.6875 5.46875H15.3125C9.88531 5.46875 5.46875 9.88531 5.46875 15.3125V32.4253C5.46875 33.0291 5.95875 33.5191 6.5625 33.5191H15.3125V63.4375C15.3125 64.0412 15.8025 64.5312 16.4062 64.5312H53.5938C54.1975 64.5312 54.6875 64.0412 54.6875 63.4375V33.5191H63.4375C64.0412 33.5191 64.5312 33.0291 64.5312 32.4253V15.3125C64.5312 9.88531 60.1147 5.46875 54.6875 5.46875ZM41.2781 7.65625C40.7575 10.6575 38.1478 12.9522 35 12.9522C31.8522 12.9522 29.2425 10.6575 28.7219 7.65625H41.2781ZM62.3438 31.3316H54.6875V19.6875C54.6875 19.0837 54.1975 18.5938 53.5938 18.5938C52.99 18.5938 52.5 19.0837 52.5 19.6875V62.3438H17.5V19.6875C17.5 19.0837 17.01 18.5938 16.4062 18.5938C15.8025 18.5938 15.3125 19.0837 15.3125 19.6875V31.3316H7.65625V15.3125C7.65625 11.0906 11.0906 7.65625 15.3125 7.65625H26.5344C27.0791 11.865 30.6447 15.1397 35 15.1397C39.3553 15.1397 42.9231 11.865 43.4656 7.65625H54.6875C58.9094 7.65625 62.3438 11.0906 62.3438 15.3125V31.3316Z" fill="#9C9799"/>
</svg>

