<svg width="75" height="75" viewBox="0 0 75 75" fill="none" xmlns="http://www.w3.org/2000/svg">
<path fill-rule="evenodd" clip-rule="evenodd" d="M74.4184 9.7046C73.8073 7.42516 71.3491 5.8796 67.4969 5.35138C63.9899 4.86871 59.6307 5.25616 55.2187 6.438C52.3487 7.18959 49.5814 8.28951 46.9785 9.71324L42.2474 6.98146C42.0628 6.87471 41.8526 6.82034 41.6394 6.82422C41.4262 6.82809 41.2181 6.89005 41.0376 7.00343C40.5523 7.19811 38.3875 7.83971 36.2915 8.46227C31.4166 9.90953 24.7396 11.8915 21.7223 13.2261C21.4946 13.3261 21.3051 13.4966 21.1816 13.7124L0.596015 49.3652C0.519038 49.4985 0.469078 49.6457 0.448988 49.7983C0.428898 49.9509 0.439073 50.106 0.47893 50.2547C0.518787 50.4034 0.587545 50.5427 0.681278 50.6649C0.775011 50.787 0.891882 50.8894 1.02521 50.9663L33.461 69.6943C33.7303 69.8496 34.0502 69.8916 34.3504 69.8111C34.6507 69.7306 34.9067 69.5342 35.0622 69.265L55.6462 33.6107C55.7709 33.3955 55.8238 33.1462 55.7975 32.8989C55.5599 30.7017 54.7541 26.9354 53.8917 23.2017C55.7594 22.9795 57.6085 22.6221 59.4244 22.1323C63.8367 20.9502 67.8042 19.1045 70.6012 16.9351C73.6727 14.5504 75.0274 11.9824 74.4184 9.7046ZM33.618 67.0781L3.21223 49.5234L23.0153 15.2212C26.0714 13.9424 32.5882 12.0072 36.9583 10.7095C39.4716 9.96373 40.8195 9.56368 41.5725 9.29708L49.2748 13.7443C49.4213 14.5295 49.7478 15.8965 50.3588 18.4465C50.5535 19.2593 50.7654 20.1486 50.9858 21.0756C49.5512 21.1305 48.1148 21.0333 46.7007 20.7857C47.2508 19.4681 47.2954 17.9938 46.8259 16.6454C46.3564 15.2969 45.4059 14.1692 44.1564 13.4781C42.9069 12.7871 41.4464 12.5814 40.0547 12.9004C38.6629 13.2195 37.4379 14.0409 36.6142 15.2072C35.7906 16.3735 35.4262 17.8027 35.591 19.221C35.7558 20.6393 36.4382 21.9469 37.5073 22.8933C38.5765 23.8397 39.9573 24.3583 41.3851 24.3497C42.8129 24.3411 44.1873 23.806 45.245 22.8469C45.8707 23.0088 46.5055 23.133 47.146 23.2188C48.1856 23.357 49.2334 23.4245 50.2822 23.4208C50.6909 23.4208 51.1087 23.4107 51.5291 23.3915C52.3453 26.9101 53.1435 30.5839 53.4231 32.7754L33.618 67.0781ZM40.2259 18.8657C40.5429 20.0448 41.3538 21.0277 42.5963 21.7749C42.2016 21.9283 41.7817 22.0068 41.3582 22.0062C40.4914 22.0063 39.6565 21.6794 39.0201 21.0909C38.3837 20.5024 37.9926 19.6955 37.925 18.8313C37.8574 17.9672 38.1181 17.1093 38.6552 16.4289C39.1923 15.7486 39.9663 15.2958 40.8225 15.161C39.9625 16.7168 39.9915 17.9925 40.2256 18.8657H40.2259ZM42.4894 18.2593C42.2579 17.3921 42.7091 16.4501 43.2586 15.6929C43.9613 16.1574 44.4691 16.8637 44.6856 17.6777C44.9021 18.4918 44.8122 19.357 44.4331 20.1092C43.3667 19.6302 42.6865 18.9974 42.4891 18.2593H42.4894ZM69.1642 15.0834C66.6101 17.0653 62.9339 18.7661 58.818 19.869C57.0262 20.3537 55.2001 20.7014 53.3556 20.909C53.1085 19.8646 52.8655 18.8482 52.6378 17.9003C52.1275 15.772 51.602 13.5746 51.5288 13.0591C51.5324 12.9425 51.5189 12.8261 51.4888 12.7134C51.4492 12.5646 51.3806 12.4251 51.2869 12.3029C51.1931 12.1808 51.0762 12.0784 50.9427 12.0016L49.378 11.0977C51.4442 10.0916 53.6034 9.28903 55.825 8.70118C64.5659 6.3586 71.4466 7.66964 72.1536 10.3108C72.4949 11.5824 71.3774 13.3652 69.1637 15.0834H69.1642ZM28.3153 24.8833C25.0973 24.8833 21.9517 25.8376 19.2761 27.6254C16.6006 29.4132 14.5152 31.9542 13.2838 34.9272C12.0524 37.9002 11.7302 41.1715 12.358 44.3276C12.9858 47.4837 14.5354 50.3827 16.8109 52.6581C19.0863 54.9335 21.9853 56.483 25.1414 57.1108C28.2975 57.7385 31.5689 57.4163 34.5418 56.1848C37.5147 54.9534 40.0558 52.868 41.8435 50.1923C43.6313 47.5167 44.5854 44.3711 44.5854 41.1532C44.5803 36.8397 42.8645 32.7043 39.8144 29.6542C36.7642 26.6041 32.6288 24.8883 28.3153 24.8833ZM35.2132 35.8799C34.5405 36.2621 33.4497 37.27 33.694 39.7279C33.8563 41.3539 34.4128 42.2972 34.8616 43.0547C35.2601 43.73 35.4797 44.1006 35.3858 44.8607C35.3478 45.1639 35.1717 45.3031 34.2725 45.7396C33.3127 46.2037 32.002 46.8394 31.3221 48.4759C30.7028 49.9671 30.738 51.9725 31.4423 54.7248C28.7038 55.3578 25.8379 55.1469 23.2216 54.1201C20.6052 53.0932 18.3611 51.2983 16.7842 48.9717C15.2074 46.645 14.3719 43.8955 14.3875 41.0849C14.4031 38.2743 15.2692 35.5343 16.8717 33.2253C17.772 33.7411 17.8998 34.2492 18.1712 35.3347C18.4599 36.6391 18.9448 37.8921 19.6094 39.051C19.8731 39.5079 19.8449 39.5564 19.5114 40.1465C19.1696 40.7484 18.6545 41.6597 18.843 43.0676C18.8458 43.0822 18.8478 43.0969 18.8506 43.1115C19.0895 44.4885 18.7829 45.2193 18.4592 45.9927C18.1595 46.7077 17.8204 47.5178 18.1049 48.5666C18.2004 48.9829 18.4349 49.3541 18.7697 49.6193L18.6709 49.8732L18.8699 49.6931C19.0424 49.8106 19.2326 49.8996 19.4333 49.9567C19.6281 50.0105 19.8292 50.0376 20.0313 50.0372C20.3445 50.0373 20.6546 49.9753 20.9437 49.8549C21.2328 49.7345 21.4953 49.558 21.7158 49.3357C21.729 49.3223 21.7428 49.3091 21.756 49.2946C22.1633 48.8288 22.3049 48.7862 22.5893 48.6983C23.2176 48.5065 23.8667 48.2414 24.8921 47.1207C24.9504 47.0564 25.002 46.9862 25.046 46.9113C25.6274 45.8918 25.9948 45.9738 26.7978 46.1553C27.3502 46.28 28.185 46.4688 28.8659 45.8594C29.5749 45.2253 29.6163 44.1368 29.4575 42.697C29.4209 42.3747 29.4099 42.0422 29.3962 41.7198C29.354 40.5964 29.3001 39.1989 28.0738 38.3259C27.5722 37.9851 27.1715 37.5155 26.9138 36.9665C26.4174 36.0508 25.8574 35.2686 24.02 34.9685L24.0104 34.9655C23.9633 34.9228 23.8501 34.6784 23.8944 34.2683C23.9399 33.8493 24.1141 33.5886 24.192 33.5344C24.2376 33.5432 24.2816 33.559 24.3224 33.5813C24.3286 33.5856 24.3343 33.5905 24.3397 33.5959C26.7653 35.5119 29.3001 35.3126 30.9974 34.8088C31.0249 34.7999 31.0519 34.7912 31.0781 34.7823C32.6414 34.1906 33.5935 32.9836 33.7599 31.3809C33.8759 30.2588 33.6004 29.1047 33.1007 28.0749C35.1475 28.8291 36.9896 30.0514 38.4797 31.6444C39.9698 33.2374 41.0667 35.1568 41.6828 37.2492C38.8018 35.499 36.6725 35.0508 35.2135 35.8799H35.2132Z" fill="#9C9799"/>
</svg>

