<svg width="75" height="75" viewBox="0 0 75 75" fill="none" xmlns="http://www.w3.org/2000/svg">
<path d="M24.8417 24.7724C25.0267 24.576 25.275 24.443 25.5409 24.3975L27.8503 24.0029C28.3223 23.9227 28.8069 24.1247 29.0842 24.5191C30.6667 26.7674 33.4392 27.9205 36.1456 27.4586C38.8526 26.9958 41.0839 24.9871 41.83 22.3407C41.9607 21.8766 42.3504 21.5247 42.8224 21.4441L45.132 21.0494C45.3976 21.004 45.6762 21.0468 45.9159 21.1708L53.7512 25.2149C54.3268 25.5118 54.5812 26.2124 54.3302 26.8096L53.2585 29.3607C53.0012 29.9733 52.3098 30.2771 51.6843 30.0533L47.7779 28.6528C46.8803 28.3307 45.9628 29.0966 46.124 30.04L46.7467 33.6833C46.8631 34.3639 47.5093 34.8219 48.1893 34.7049C48.8698 34.5886 49.3271 33.9427 49.2109 33.2622L48.9487 31.7283L50.8406 32.4066C52.7166 33.0796 54.7913 32.1667 55.5634 30.3291L56.6351 27.778C57.3879 25.9861 56.6248 23.8846 54.8977 22.9933L47.0626 18.9494C46.3437 18.5782 45.5082 18.4486 44.7109 18.5852L42.4014 18.9799C40.9837 19.2221 39.815 20.2751 39.4239 21.6624C38.9381 23.3854 37.4861 24.6933 35.7247 24.9944C33.9625 25.2955 32.159 24.5438 31.1286 23.0802C30.2989 21.9016 28.8465 21.2969 27.4292 21.5386L25.1198 21.9333C24.3223 22.0696 23.5773 22.469 23.0223 23.0577L16.975 29.4742C15.6423 30.8886 15.6205 33.1244 16.9255 34.5644L18.7836 36.6149C20.122 38.0914 22.3819 38.2631 23.9283 37.006L25.4875 35.7378L28.6597 54.2994C29.0076 56.3351 30.9467 57.7126 32.9878 57.364L39.3632 56.2744C40.0437 56.1581 40.501 55.5122 40.3848 54.8317C40.2684 54.1512 39.622 53.6925 38.9421 53.8101L32.5667 54.8998C31.887 55.0156 31.24 54.5575 31.124 53.8783L27.5914 33.2074C27.43 32.2633 26.3103 31.8469 25.5706 32.4482L22.3511 35.0664C21.8358 35.4858 21.0823 35.4286 20.6361 34.9361L18.7781 32.8858C18.3431 32.4058 18.3505 31.6603 18.7945 31.1891L24.8417 24.7724Z" fill="#9C9799"/>
<path d="M8.59896 36.7527C9.13552 36.3184 9.21833 35.5313 8.78396 34.9948C8.34974 34.4582 7.56255 34.3754 7.02599 34.8096L5.82834 35.7792C6.72521 19.0865 20.5875 5.78124 37.4998 5.78124C51.0937 5.78124 63.1649 14.4225 67.5378 27.2839C67.7599 27.9376 68.4693 28.287 69.1235 28.0649C69.7771 27.8428 70.1268 27.1328 69.9046 26.4792C65.1873 12.6037 52.1646 3.28125 37.4998 3.28125C18.9153 3.28125 4.16522 17.9476 3.32069 35.8493L2.03647 34.8098C1.49975 34.3754 0.712724 34.4582 0.278506 34.9949C-0.155868 35.5315 -0.0730561 36.3185 0.463505 36.7529L3.74475 39.4091C4.20319 39.7804 4.85912 39.7806 5.31771 39.4091L8.59896 36.7527Z" fill="#9C9799"/>
<path d="M74.5364 38.2473L71.2552 35.5911C70.7964 35.2196 70.1408 35.2196 69.6822 35.5911L66.401 38.2473C65.8644 38.6817 65.7816 39.4687 66.216 40.0053C66.6504 40.542 67.4375 40.6251 67.9739 40.1904L69.1716 39.2209C68.2747 55.9135 54.4124 69.2186 37.5 69.2186C23.9062 69.2186 11.8348 60.5774 7.46205 47.716C7.23986 47.0623 6.53002 46.7124 5.87627 46.9349C5.22268 47.1571 4.87299 47.8671 5.09518 48.5207C9.81267 62.3962 22.8351 71.7186 37.5 71.7186C56.0844 71.7186 70.8346 57.0523 71.6791 39.1506L72.9633 40.1901C73.4997 40.6243 74.2871 40.5417 74.7213 40.005C75.1558 39.4687 75.073 38.6817 74.5364 38.2473Z" fill="#9C9799"/>
<path d="M52.6651 49.9672C52.047 50.2746 51.7949 51.0249 52.1023 51.643C52.4092 52.2602 53.1592 52.5138 53.7781 52.2058C55.8145 51.1935 57.4509 49.3285 58.5106 46.8122C59.654 44.0971 59.5099 40.9698 58.1152 38.2321C57.0498 36.1407 54.3635 35.5148 52.5064 36.9255C50.8157 38.2098 49.3123 38.406 47.7831 38.7741C41.0133 40.4049 39.2228 48.2474 45.2928 51.7769C45.2348 52.5485 45.235 53.3271 45.2962 54.1035C45.3503 54.7907 45.9507 55.305 46.6406 55.2514C47.3289 55.1971 47.8428 54.5954 47.7885 53.9071C47.5751 51.1969 48.2215 48.4876 49.8031 46.0305C50.1767 45.4501 50.009 44.6765 49.4285 44.3029C48.8482 43.9291 48.0746 44.0969 47.7009 44.6773C46.81 46.0613 46.1565 47.5327 45.7489 49.068C42.6009 46.5238 44.1889 42.2115 48.3687 41.2046C49.9078 40.8341 51.8606 40.5557 54.0188 38.9162C54.6445 38.4409 55.5349 38.6745 55.8878 39.3671C56.9474 41.4473 57.0637 43.8071 56.2068 45.8418C55.3707 47.8265 54.1793 49.2144 52.6651 49.9672Z" fill="#9C9799"/>
</svg>
