<svg width="75" height="75" viewBox="0 0 75 75" fill="none" xmlns="http://www.w3.org/2000/svg">
<g clip-path="url(#clip0_204_1120)">
<path d="M38.029 20.406C34.0487 20.1453 30.5035 23.0268 29.9541 26.9652C29.9051 27.315 29.8804 27.6725 29.8804 28.0279C29.8804 29.2414 30.8642 30.2252 32.0776 30.2252C33.2911 30.2252 34.2749 29.2414 34.2749 28.0279C34.2749 27.8751 34.2855 27.722 34.3064 27.5726C34.5395 25.902 36.0475 24.6802 37.7417 24.791C39.3425 24.8959 40.6376 26.181 40.7541 27.7803C40.8668 29.3282 39.8681 30.7483 38.3797 31.1568C36.5792 31.6509 35.3217 33.2984 35.3217 35.1635V37.9108C35.3217 39.1242 36.3055 40.108 37.5189 40.108C38.7324 40.108 39.7162 39.1242 39.7162 37.9108V35.3448C43.1264 34.3215 45.3975 31.0352 45.1369 27.4609C44.8618 23.6863 41.806 20.6533 38.029 20.406Z" fill="#9C9799"/>
<path d="M37.5188 47.5914C38.7325 47.5914 39.7164 46.6075 39.7164 45.3938C39.7164 44.1802 38.7325 43.1963 37.5188 43.1963C36.3052 43.1963 35.3213 44.1802 35.3213 45.3938C35.3213 46.6075 36.3052 47.5914 37.5188 47.5914Z" fill="#9C9799"/>
<path d="M75 37.315C75 32.2796 72.1954 27.708 67.7612 25.3595C67.8721 24.6555 67.928 23.9394 67.928 23.2185C67.928 15.7622 61.8617 9.69595 54.4053 9.69595C53.8843 9.69595 53.3669 9.72935 52.8542 9.78838C50.3051 6.12686 46.1521 3.94922 41.682 3.94922C38.6082 3.94922 35.6676 4.97271 33.2774 6.85386C31.0263 5.31562 28.3424 4.47964 25.5967 4.47964C22.998 4.47964 20.471 5.21514 18.2892 6.6063C16.4121 7.80322 14.8619 9.43491 13.7663 11.3583C10.5483 11.659 7.56592 13.0833 5.29189 15.4228C2.80986 17.9766 1.44287 21.3445 1.44287 24.9064C1.44287 26.1105 1.60122 27.3031 1.91411 28.4607C0.659912 30.5909 0 33.0145 0 35.5132C0 43.1833 6.24009 49.4235 13.9103 49.4235C14.8709 49.4235 15.821 49.3255 16.7506 49.1325C17.9423 55.425 23.3919 60.2363 29.9725 60.4418C32.2201 60.5115 34.4188 60.048 36.4157 59.0919L40.99 67.8384C42.0261 69.8196 44.0587 71.0505 46.2945 71.0505C49.5952 71.0505 52.2806 68.3651 52.2806 65.0644V60.0678C57.5943 59.4224 62.119 55.7395 63.8093 50.6358C70.1583 49.5275 75 43.9764 75 37.315ZM61.4773 47.908C57.5965 47.908 54.0302 45.7891 52.1701 42.3784C51.7828 41.6682 50.8929 41.4063 50.1828 41.7937C49.4725 42.1812 49.2107 43.0709 49.598 43.7811C51.8307 47.8752 55.9907 50.51 60.5996 50.8085C58.8696 54.6028 55.0679 57.1663 50.7913 57.2373C49.9917 57.2506 49.3507 57.9025 49.3507 58.702V65.0644C49.3507 66.7497 47.9796 68.1208 46.2943 68.1208C45.1528 68.1208 44.1151 67.4924 43.586 66.4809L38.3191 56.4101C38.1299 56.048 37.7981 55.7817 37.4038 55.6749C37.0094 55.568 36.5886 55.631 36.2426 55.848C34.3963 57.006 32.2592 57.5793 30.0637 57.5136C24.3013 57.3335 19.6358 52.6794 19.4423 46.9179C19.3367 43.7729 20.5837 40.7295 22.8634 38.5682C23.4505 38.0115 23.4753 37.0844 22.9187 36.4973C22.3622 35.9102 21.4349 35.8852 20.8478 36.4421C18.1622 38.9881 16.609 42.4998 16.5122 46.1823C15.6649 46.3881 14.7936 46.4937 13.9102 46.4937C7.85552 46.4937 2.92969 41.5679 2.92969 35.5132C2.92969 33.3548 3.5521 31.2687 4.72954 29.4809C4.97476 29.1086 5.03701 28.645 4.89888 28.2211C4.5498 27.15 4.3727 26.0348 4.3727 24.9064C4.3727 22.1114 5.44526 19.4685 7.39292 17.4646C9.33662 15.4649 11.9394 14.3172 14.7215 14.2329C15.2653 14.2165 15.7551 13.9 15.9937 13.4112C17.8003 9.70913 21.4802 7.40918 25.597 7.40918C28.0797 7.40918 30.4979 8.27988 32.4056 9.86089C32.9757 10.3333 33.8087 10.3061 34.3468 9.79717C36.3369 7.91514 38.9421 6.87861 41.6823 6.87861C44.7932 6.87861 47.7089 8.22334 49.7248 10.5324C48.1765 11.1034 46.7332 11.9562 45.4739 13.0648C44.8666 13.5992 44.8077 14.525 45.3422 15.1321C45.8769 15.7393 46.8023 15.7985 47.4097 15.2637C49.3427 13.5623 51.8272 12.625 54.4056 12.625C60.2467 12.625 64.9986 17.377 64.9986 23.2179C64.9986 24.1077 64.8908 24.9869 64.678 25.8311C64.5013 26.5318 64.8621 27.2566 65.5277 27.5382C69.5022 29.22 72.0703 33.0573 72.0703 37.315C72.0703 43.1559 67.3184 47.908 61.4773 47.908Z" fill="#9C9799"/>
<path d="M56.1183 29.7217C52.4107 29.7217 49.0819 31.9282 47.6376 35.343C47.3225 36.0882 47.671 36.9476 48.416 37.2627C48.6022 37.3415 48.7957 37.3789 48.9859 37.3789C49.5568 37.3789 50.0994 37.043 50.3356 36.4843C51.3205 34.1558 53.5902 32.6514 56.1181 32.6514C57.7166 32.6514 59.2393 33.2525 60.4054 34.3444C60.9959 34.8971 61.9229 34.8668 62.4758 34.276C63.0287 33.6854 62.9981 32.7584 62.4076 32.2055C60.6966 30.6038 58.4629 29.7217 56.1183 29.7217Z" fill="#9C9799"/>
<path d="M18.2707 23.2637C15.8317 23.2637 13.5388 24.2133 11.8143 25.938C11.2422 26.5101 11.2422 27.4376 11.8143 28.0098C12.3863 28.5816 13.3138 28.5816 13.8859 28.0098C15.057 26.8385 16.6143 26.1935 18.2707 26.1935C19.927 26.1935 21.4843 26.8385 22.6554 28.0098C22.9415 28.2957 23.3164 28.4388 23.6912 28.4388C24.0661 28.4388 24.4411 28.2957 24.727 28.0098C25.299 27.4377 25.2992 26.5102 24.727 25.938C23.0025 24.2135 20.7095 23.2637 18.2707 23.2637Z" fill="#9C9799"/>
</g>
<defs>
<clipPath id="clip0_204_1120">
<rect width="75" height="75" fill="white"/>
</clipPath>
</defs>
</svg>

