<svg width="60" height="60" viewBox="0 0 60 60" fill="none" xmlns="http://www.w3.org/2000/svg">
<g clip-path="url(#clip0_204_1128)">
<path d="M58.1802 56.4796H56.4226V15.1368C58.5622 13.8525 59.9959 11.5261 59.9996 8.87387C60.0178 7.21782 59.4074 5.62189 58.2799 4.37816L54.8719 0.587439C54.5386 0.216721 54.0636 0.00488281 53.5649 0.00488281H6.68053C6.19733 0.00488281 5.73546 0.203833 5.40341 0.554984L1.85394 4.30926C0.659535 5.56963 0.00808455 7.18923 0.0190983 8.87047C0.0214416 11.4902 1.41983 13.7913 3.51502 15.086V56.4796H1.75751C0.786896 56.4796 0 57.2665 0 58.2371C0 59.2077 0.786896 59.9946 1.75751 59.9946H58.1802C59.1508 59.9946 59.9377 59.2077 59.9377 58.2371C59.9377 57.2665 59.1508 56.4796 58.1802 56.4796ZM4.40678 6.7256L7.43755 3.52002H52.7817L55.6686 6.73099C55.6704 6.7331 55.6723 6.73521 55.6742 6.73732C56.1991 7.31554 56.4945 8.08228 56.4847 8.84094C56.4846 8.84832 56.4846 8.85594 56.4846 8.86344C56.4846 10.9674 54.74 12.6791 52.5956 12.6791C50.4512 12.6791 48.7066 10.9674 48.7066 8.86344C48.7066 7.89283 47.9197 7.10593 46.9491 7.10593C45.9785 7.10593 45.1916 7.89283 45.1916 8.86344C45.1916 10.9674 43.4469 12.6791 41.3025 12.6791C39.1581 12.6791 37.4135 10.9674 37.4135 8.86344C37.4135 7.89283 36.6266 7.10593 35.656 7.10593C34.6854 7.10593 33.8985 7.89283 33.8985 8.86344C33.8985 10.9674 32.1539 12.6791 30.0095 12.6791C27.8651 12.6791 26.1205 10.9674 26.1205 8.86344C26.1205 7.89283 25.3336 7.10593 24.363 7.10593C23.3923 7.10593 22.6054 7.89283 22.6054 8.86344C22.6054 10.9674 20.8608 12.6791 18.7164 12.6791C16.572 12.6791 14.8274 10.9674 14.8274 8.86344C14.8274 7.89283 14.0405 7.10593 13.0699 7.10593C12.0993 7.10593 11.3124 7.89283 11.3124 8.86344C11.3124 10.9674 9.56777 12.6791 7.42337 12.6791C5.27898 12.6791 3.53435 10.9674 3.53435 8.86344C3.53435 8.8591 3.53435 8.85465 3.53435 8.85032C3.52838 8.09131 3.8459 7.31742 4.40678 6.7256ZM7.03004 16.1837C7.16021 16.1905 7.29121 16.1943 7.42302 16.1943C9.68341 16.1943 11.7104 15.1861 13.0695 13.6003C14.4288 15.1861 16.4558 16.1943 18.7161 16.1943C20.9764 16.1943 23.0033 15.1861 24.3626 13.6003C25.7219 15.1861 27.7489 16.1943 30.0091 16.1943C32.2694 16.1943 34.2965 15.1861 35.6557 13.6003C37.0149 15.1861 39.0418 16.1943 41.3022 16.1943C43.5626 16.1943 45.5896 15.1861 46.9487 13.6003C48.3079 15.1861 50.335 16.1943 52.5953 16.1943C52.6999 16.1943 52.8037 16.1907 52.9074 16.1864V56.4796H7.03004V16.1837Z" fill="#9C9799"/>
<path d="M39.5135 38.8827C38.5429 38.8827 37.756 39.6696 37.756 40.6402V40.7357C37.756 45.0294 34.2628 48.5227 29.9691 48.5227C26.1834 48.5227 23.0215 45.8066 22.3259 42.2211L22.3348 42.23C22.6783 42.5759 23.13 42.7491 23.5819 42.7491C24.0296 42.7491 24.4774 42.5791 24.8203 42.2387C25.509 41.5548 25.513 40.442 24.8289 39.7533L21.6716 36.5738C21.0199 35.8882 19.8292 35.8882 19.1775 36.5738L16.0202 39.7533C15.3363 40.442 15.3401 41.5548 16.0288 42.2387C16.7176 42.9226 17.8304 42.9187 18.5143 42.2301L18.7386 42.0042C19.371 47.6412 24.1659 52.0377 29.9689 52.0377C36.2008 52.0377 41.2709 46.9677 41.2709 40.7357V40.6402C41.271 39.6695 40.4841 38.8827 39.5135 38.8827Z" fill="#9C9799"/>
<path d="M41.4236 29.459L41.1993 29.6849C40.5669 24.048 35.772 19.6514 29.969 19.6514C23.7371 19.6514 18.667 24.7213 18.667 30.9533V31.0488C18.667 32.0194 19.4539 32.8063 20.4245 32.8063C21.3951 32.8063 22.182 32.0194 22.182 31.0488V30.9533C22.182 26.6596 25.6752 23.1664 29.969 23.1664C33.7547 23.1664 36.9166 25.8824 37.612 29.4681L37.6031 29.4591C36.9192 28.7704 35.8065 28.7664 35.1176 29.4504C34.4289 30.1344 34.4251 31.2472 35.109 31.9359L38.2663 35.1152C38.918 35.801 40.1087 35.8009 40.7604 35.1152L43.9177 31.9358C44.6016 31.2471 44.5978 30.1342 43.9091 29.4503C43.2202 28.7663 42.1074 28.7704 41.4236 29.459Z" fill="#9C9799"/>
</g>
<defs>
<clipPath id="clip0_204_1128">
<rect width="60" height="60" fill="white"/>
</clipPath>
</defs>
</svg>
