<svg width="75" height="75" viewBox="0 0 75 75" fill="none" xmlns="http://www.w3.org/2000/svg">
<g clip-path="url(#clip0_204_1134)">
<path d="M71.8823 36.2132L60.5576 28.3572C60.0589 28.0113 59.3744 28.1351 59.0286 28.6337C58.6827 29.1324 58.8065 29.8168 59.3051 30.1626L70.6299 38.0186C72.6186 39.3982 72.8207 41.5083 72.3467 43.0231C71.8727 44.5382 70.5038 46.157 68.0832 46.157H47.8699V43.9597H68.0831C69.1286 43.9597 69.9386 43.3641 70.2492 42.3682C70.5619 41.3709 70.2361 40.4199 69.3774 39.8242L38.7943 18.6064C38.0203 18.0694 36.9801 18.0694 36.2059 18.6064L5.62264 39.824C4.76409 40.4198 4.43816 41.3709 4.75032 42.3661C5.06145 43.364 5.87137 43.9596 6.91698 43.9596H13.9465V46.1569H6.91698C4.49646 46.1569 3.12756 44.5381 2.65353 43.023C2.17951 41.5082 2.38166 39.398 4.37034 38.0184L37.5001 15.0342L55.0248 27.1917C55.5236 27.5376 56.208 27.414 56.5537 26.9153C56.8996 26.4168 56.7758 25.7322 56.2773 25.3863L38.5987 13.1222V10.8644C38.5987 10.0042 37.9561 9.28542 37.1061 9.1924C35.2343 8.98396 33.8698 7.34171 33.9994 5.45411C34.1188 3.72178 35.516 2.32548 37.2492 2.20595C38.2358 2.13871 39.1752 2.46918 39.8934 3.13965C40.6125 3.81069 41.0084 4.72183 41.0084 5.70504C41.0084 6.31192 41.5003 6.80367 42.1071 6.80367C42.7138 6.80367 43.2057 6.31192 43.2057 5.70504C43.2057 4.12915 42.5448 2.60864 41.3925 1.53329C40.2241 0.443005 38.6982 -0.0956206 37.0979 0.0139502C34.2763 0.208482 32.0019 2.48237 31.8073 5.30308C31.6073 8.21154 33.5951 10.7614 36.4013 11.3059V13.1223L3.11789 36.2132C0.67335 37.9089 -0.331976 40.8395 0.556602 43.6792C1.44518 46.5191 3.94172 48.3541 6.91698 48.3541H13.9465V73.3152C13.9465 74.244 14.7022 74.9997 15.6311 74.9997H46.1849C47.1138 74.9997 47.8695 74.244 47.8695 73.3152L47.8696 66.0231H59.3688C60.2977 66.0231 61.0534 65.2674 61.0534 64.3386V48.3541H68.0832C71.0585 48.3541 73.555 46.5191 74.4436 43.6792C75.3322 40.8395 74.3267 37.909 71.8823 36.2132ZM53.3227 38.0826H53.3627H53.3628H53.363C55.7483 38.0826 57.7994 39.5981 58.5509 41.7623H48.1789C48.9255 39.634 50.9465 38.0999 53.3227 38.0826ZM6.86542 41.7601C6.86014 41.7478 6.85399 41.7315 6.8474 41.7103C6.84095 41.6898 6.83685 41.6734 6.83421 41.6605C6.84403 41.652 6.85751 41.6416 6.87508 41.6293L37.4581 20.4115C37.4831 20.3944 37.5167 20.3944 37.5416 20.4115L68.1245 41.6293C68.1423 41.6415 68.1556 41.652 68.1656 41.6605C68.1628 41.6737 68.1585 41.6907 68.1518 41.7122C68.1455 41.7326 68.1396 41.7482 68.1345 41.76C68.1215 41.7614 68.1045 41.7625 68.0829 41.7625H60.8371C60.0175 38.3532 56.9652 35.8883 53.3684 35.8856C53.3665 35.8856 53.3647 35.8853 53.363 35.8853C53.347 35.8853 53.3312 35.8853 53.3152 35.8855H21.051C17.5524 35.8855 14.6383 38.4283 14.0549 41.7625H6.91698C6.89545 41.7623 6.87845 41.7613 6.86542 41.7601ZM16.1438 72.8026V58.9979H20.6146C21.2214 58.9979 21.7133 58.5061 21.7133 57.8992C21.7133 57.2924 21.2214 56.8006 20.6146 56.8006H16.1438V42.99C16.1438 40.2841 18.3451 38.0828 21.051 38.0828H47.9859C46.5592 39.4796 45.6726 41.426 45.6726 43.5758L45.6725 56.8006H25.7418C25.135 56.8006 24.6431 57.2924 24.6431 57.8992C24.6431 58.5061 25.135 58.9979 25.7418 58.9979H45.6725L45.6724 72.8026H16.1438ZM58.8561 63.8259H47.8696L47.8699 48.3541H58.8561V63.8259Z" fill="#9C9799"/>
<path d="M22.5063 63.6533C23.113 63.6533 23.6049 63.1616 23.6049 62.5547C23.6049 61.9478 23.113 61.4561 22.5063 61.4561H19.9673C19.2 61.4561 18.5757 62.0804 18.5757 62.8477V68.983C18.5757 69.7503 19.2 70.3746 19.9673 70.3746H22.5063C23.113 70.3746 23.6049 69.8829 23.6049 69.276C23.6049 68.6691 23.113 68.1773 22.5063 68.1773H20.773V67.0141H22.2976C22.9043 67.0141 23.3962 66.5224 23.3962 65.9155C23.3962 65.3086 22.9043 64.8168 22.2976 64.8168H20.773V63.6535H22.5063V63.6533Z" fill="#9C9799"/>
<path d="M32.4028 67.4772C31.9379 67.0872 31.245 67.148 30.8551 67.6129C30.8037 67.6742 30.7484 67.7313 30.6909 67.7824C30.3964 68.0446 30.016 68.1776 29.5602 68.1776C28.2958 68.1776 27.2672 67.149 27.2672 65.8847C27.2672 64.6204 28.2958 63.5918 29.5602 63.5918C30.0197 63.5918 30.4628 63.727 30.8415 63.9828C31.3443 64.3223 32.0272 64.19 32.3668 63.6873C32.7065 63.1844 32.5742 62.5015 32.0713 62.162C31.3281 61.6598 30.4597 61.3945 29.56 61.3945C27.0841 61.3945 25.0698 63.4088 25.0698 65.8847C25.0698 68.3606 27.0841 70.3749 29.56 70.3749C30.5568 70.3749 31.4532 70.0458 32.1519 69.4235C32.2887 69.3018 32.4187 69.1677 32.5385 69.0248C32.9284 68.5601 32.8676 67.8669 32.4028 67.4772Z" fill="#9C9799"/>
<path d="M38.7504 61.4248C36.2746 61.4248 34.2603 63.4391 34.2603 65.915C34.2603 68.3907 36.2746 70.405 38.7504 70.405C41.2263 70.405 43.2406 68.3907 43.2406 65.915C43.2408 63.4391 41.2265 61.4248 38.7504 61.4248ZM38.7504 68.2078C37.4861 68.2078 36.4575 67.1793 36.4575 65.915C36.4575 64.6507 37.4861 63.6221 38.7504 63.6221C40.0147 63.6221 41.0434 64.6507 41.0434 65.915C41.0434 67.1793 40.0149 68.2078 38.7504 68.2078Z" fill="#9C9799"/>
<path d="M29.3294 49.1232C29.4889 49.1232 29.6492 49.115 29.8094 49.1032V54.2944C29.8094 54.9013 30.3013 55.393 30.9081 55.393C31.5148 55.393 32.0067 54.9013 32.0067 54.2944V49.1032C32.167 49.115 32.3272 49.1232 32.4867 49.1232C34.1776 49.1231 35.8105 48.4592 37.0367 47.233C38.6014 45.6682 39.2505 43.4417 38.773 41.2765C38.6499 40.7197 38.2108 40.2805 37.654 40.1578C35.4889 39.6802 33.2625 40.3293 31.6978 41.8942C31.401 42.191 31.1375 42.5118 30.9081 42.8513C30.6785 42.5118 30.4152 42.191 30.1182 41.8941C28.5535 40.3293 26.3272 39.6804 24.1622 40.1578C23.6054 40.2807 23.1661 40.7197 23.043 41.2769C22.5655 43.4417 23.2146 45.6684 24.7795 47.2331C26.006 48.4595 27.6385 49.1232 29.3294 49.1232ZM36.7051 42.2259C36.8403 43.4988 36.4004 44.7619 35.4831 45.6792C34.5656 46.5967 33.303 47.036 32.0297 46.9012C32.0145 46.7579 32.0076 46.615 32.0069 46.4726V46.393C32.0212 45.2973 32.4567 44.2427 33.2517 43.4478C34.169 42.5304 35.4318 42.0911 36.7051 42.2259ZM25.1113 42.2259C26.3838 42.0911 27.6473 42.5304 28.5648 43.4477C29.3593 44.2422 29.7948 45.2962 29.8096 46.391V46.4758C29.8087 46.6172 29.8018 46.7591 29.7867 46.9012C28.5134 47.0361 27.2507 46.5967 26.3332 45.6794C25.4159 44.7619 24.976 43.4988 25.1113 42.2259Z" fill="#9C9799"/>
</g>
<defs>
<clipPath id="clip0_204_1134">
<rect width="75" height="75" fill="white"/>
</clipPath>
</defs>
</svg>
