<svg width="90" height="90" viewBox="0 0 90 90" fill="none" xmlns="http://www.w3.org/2000/svg">
<path d="M62.9715 22.7084L62.9589 22.7261C62.7618 22.5845 62.5332 22.4834 62.2719 22.4834H55.3044C54.7413 22.4834 54.2538 22.8755 54.1326 23.4257C53.6463 25.634 51.5628 27.2366 49.1778 27.2366C46.7928 27.2366 44.7093 25.634 44.2236 23.4257C44.103 22.8755 43.6155 22.4834 43.0518 22.4834H35.8083C35.5407 22.4834 35.3061 22.5878 35.1066 22.736L35.094 22.7189L26.139 29.3483C25.6854 29.684 25.5273 30.2906 25.7592 30.8054L30.237 40.7498C30.384 41.0768 30.6693 41.3204 31.0152 41.4149C31.119 41.4431 31.2255 41.4572 31.3311 41.4572C31.5765 41.4572 31.8186 41.3816 32.0238 41.2376L34.6083 39.4121V49.8332C33.0057 48.5108 30.9741 47.7545 28.8579 47.7545H10.7469C10.0842 47.7545 9.54688 48.2918 9.54688 48.9545V60.8819C9.54688 61.5446 10.0842 62.0819 10.7469 62.0819C14.8812 62.0819 18.8364 64.0517 21.3267 67.3517L23.8461 70.688C27.9957 76.5701 34.7715 80.0816 41.9703 80.0816H59.235C60.8598 80.0816 62.3592 79.2683 63.2445 77.9054C64.1298 76.5425 64.2645 74.8421 63.6042 73.3568L62.9877 71.9687C61.6062 68.8598 58.7778 66.6701 55.422 66.1112L46.2105 64.5761L44.2986 62.0834H62.2716C62.9343 62.0834 63.4716 61.5461 63.4716 60.8834V39.3713L66.2109 41.2475C66.4125 41.3858 66.6492 41.4572 66.8889 41.4572C66.9951 41.4572 67.1022 41.4431 67.2066 41.4143C67.5471 41.321 67.8288 41.0828 67.9776 40.7621L72.5949 30.8177C72.8376 30.2951 72.6741 29.6741 72.2058 29.3375L62.9715 22.7084ZM31.8282 38.4371L28.3449 30.7016L34.6086 26.0648V36.473L31.8282 38.4371ZM55.0278 68.4782C57.0585 68.8163 58.8258 69.9473 59.9991 71.5817L48.9855 70.6637C49.2963 69.5924 49.1313 68.3999 48.4449 67.3814L55.0278 68.4782ZM46.4838 68.759C46.9005 69.3572 46.8177 70.1318 46.2828 70.6439C45.6864 71.2145 44.7336 71.2691 44.064 70.7723L30.612 60.7685C30.0807 60.3731 29.3295 60.4838 28.9332 61.0151C28.5378 61.547 28.6479 62.2982 29.1798 62.6939L42.6318 72.6977C43.9749 73.697 45.7995 73.7453 47.1987 72.9233L61.0473 74.0777C61.0812 74.0807 61.1148 74.0819 61.1481 74.0819C61.1976 74.0819 61.2408 74.0609 61.2888 74.0552L61.4118 74.3321C61.7451 75.0827 61.6803 75.9089 61.2318 76.598C60.7842 77.2871 60.0564 77.6819 59.235 77.6819H41.9703C35.5503 77.6819 29.508 74.5502 25.7844 69.2732L23.2425 65.9057C20.5431 62.3291 16.3863 60.0755 11.9469 59.7287V50.1545H28.8582C30.9723 50.1545 32.9769 51.1751 34.2384 52.9091L44.6118 66.4337L46.4838 68.759ZM61.0719 59.6834H42.4584L37.0086 52.5782V24.8834H42.159C43.2114 27.6878 46.0179 29.6366 49.1778 29.6366C52.3371 29.6366 55.1445 27.6878 56.1972 24.8834H61.0716L61.0719 59.6834ZM66.3975 38.4659L63.4719 36.4622V26.0219L69.9999 30.7082L66.3975 38.4659Z" fill="#9C9799"/>
<path d="M50.5469 38.1441C50.5469 38.8068 51.0842 39.3441 51.7469 39.3441C52.4096 39.3441 52.9469 38.8068 52.9469 38.1441C52.9469 37.6308 53.3642 37.2135 53.8775 37.2135C54.3908 37.2135 54.8081 37.6308 54.8081 38.1441C54.8081 38.8068 55.3454 39.3441 56.0081 39.3441C56.6708 39.3441 57.2081 38.8068 57.2081 38.1441C57.2081 36.3078 55.7141 34.8135 53.8775 34.8135C52.0409 34.8135 50.5469 36.3078 50.5469 38.1441Z" fill="#9C9799"/>
<path d="M50.008 44.4417C49.213 45.3324 47.7082 45.375 46.8643 44.5314C46.3957 44.0622 45.6349 44.0622 45.1675 44.5302C44.6983 44.9988 44.6983 45.7584 45.1663 46.227C46.0282 47.0895 47.1742 47.5647 48.3937 47.5647C49.6921 47.5647 50.9332 47.0091 51.7987 46.0401C52.24 45.5457 52.1971 44.7873 51.7027 44.3457C51.208 43.9044 50.4502 43.9476 50.008 44.4417Z" fill="#9C9799"/>
<path d="M46.1326 39.3441C46.7953 39.3441 47.3326 38.8068 47.3326 38.1441C47.3326 36.3078 45.8386 34.8135 44.002 34.8135C42.1654 34.8135 40.6714 36.3075 40.6714 38.1441C40.6714 38.8068 41.2087 39.3441 41.8714 39.3441C42.5341 39.3441 43.0714 38.8068 43.0714 38.1441C43.0714 37.6308 43.4887 37.2135 44.002 37.2135C44.5153 37.2135 44.9326 37.6308 44.9326 38.1441C44.9326 38.8068 45.4699 39.3441 46.1326 39.3441Z" fill="#9C9799"/>
<path d="M16.6717 23.6838C17.3344 23.6838 17.8717 23.1465 17.8717 22.4838V20.0838C17.8717 19.4211 17.3344 18.8838 16.6717 18.8838C16.009 18.8838 15.4717 19.4211 15.4717 20.0838V22.4838C15.4717 23.1465 16.009 23.6838 16.6717 23.6838Z" fill="#9C9799"/>
<path d="M16.6717 26.083C16.009 26.083 15.4717 26.6203 15.4717 27.283V29.683C15.4717 30.3457 16.009 30.883 16.6717 30.883C17.3344 30.883 17.8717 30.3457 17.8717 29.683V27.283C17.8717 26.6203 17.3344 26.083 16.6717 26.083Z" fill="#9C9799"/>
<path d="M11.8719 26.0836H14.2719C14.9346 26.0836 15.4719 25.5463 15.4719 24.8836C15.4719 24.2209 14.9346 23.6836 14.2719 23.6836H11.8719C11.2092 23.6836 10.6719 24.2209 10.6719 24.8836C10.6719 25.5463 11.2092 26.0836 11.8719 26.0836Z" fill="#9C9799"/>
<path d="M19.0721 26.0836H21.4721C22.1348 26.0836 22.6721 25.5463 22.6721 24.8836C22.6721 24.2209 22.1348 23.6836 21.4721 23.6836H19.0721C18.4094 23.6836 17.8721 24.2209 17.8721 24.8836C17.8721 25.5463 18.4094 26.0836 19.0721 26.0836Z" fill="#9C9799"/>
<path d="M80.2721 17.0838C80.2721 14.7681 78.3878 12.8838 76.0721 12.8838C73.7564 12.8838 71.8721 14.7681 71.8721 17.0838C71.8721 19.3995 73.7564 21.2838 76.0721 21.2838C78.3878 21.2838 80.2721 19.3992 80.2721 17.0838ZM76.0721 18.8838C75.0794 18.8838 74.2721 18.0765 74.2721 17.0838C74.2721 16.0911 75.0794 15.2838 76.0721 15.2838C77.0648 15.2838 77.8721 16.0911 77.8721 17.0838C77.8721 18.0765 77.0645 18.8838 76.0721 18.8838Z" fill="#9C9799"/>
<path d="M29.9703 12.4839C30.6789 12.4839 31.2531 11.9094 31.2531 11.2008C31.2531 10.4922 30.6789 9.91797 29.9703 9.91797C29.2617 9.91797 28.6875 10.4925 28.6875 11.2008C28.6875 11.9094 29.2617 12.4839 29.9703 12.4839Z" fill="#9C9799"/>
<path d="M79.1705 41.1172C78.4619 41.1172 77.8877 41.6917 77.8877 42.4C77.8877 43.1086 78.4619 43.6831 79.1705 43.6831C79.8791 43.6831 80.4533 43.1086 80.4533 42.4C80.4533 41.6917 79.8791 41.1172 79.1705 41.1172Z" fill="#9C9799"/>
</svg>

