<svg width="55" height="55" viewBox="0 0 55 55" fill="none" xmlns="http://www.w3.org/2000/svg">
<g clip-path="url(#clip0_269_1984)">
<path d="M27.5 0C12.3365 0 0 12.3365 0 27.5C0 42.6635 12.3365 55 27.5 55C42.6635 55 55 42.6635 55 27.5C55 12.3365 42.6635 0 27.5 0ZM27.5 52.027C20.763 52.027 14.6523 49.2963 10.2151 44.8843C8.44317 43.1224 6.93901 41.0919 5.76783 38.8603C3.98421 35.4619 2.97301 31.597 2.97301 27.5C2.97301 13.9758 13.9758 2.97301 27.5 2.97301C33.9148 2.97301 39.7613 5.44953 44.1364 9.49543C46.4048 11.5929 48.278 14.1118 49.6287 16.9272C51.1654 20.1305 52.027 23.7165 52.027 27.5C52.027 41.0242 41.0242 52.027 27.5 52.027Z" fill="#B16554"/>
<path d="M30.4061 34.86C33.6679 35.5421 36.5978 37.3759 38.6562 40.0236L41.0033 38.1989C38.513 34.9955 34.9654 32.7761 31.0147 31.9498C24.6608 30.622 17.9806 33.0743 13.9966 38.1989L16.344 40.0236C19.6358 35.7891 25.1558 33.7619 30.4061 34.86Z" fill="#B16554"/>
<path d="M18.3334 24.341C19.9753 24.341 21.3064 23.01 21.3064 21.368C21.3064 19.7261 19.9753 18.395 18.3334 18.395C16.6914 18.395 15.3604 19.7261 15.3604 21.368C15.3604 23.01 16.6914 24.341 18.3334 24.341Z" fill="#B16554"/>
<path d="M36.7289 24.341C38.3708 24.341 39.7019 23.01 39.7019 21.368C39.7019 19.7261 38.3708 18.395 36.7289 18.395C35.0869 18.395 33.7559 19.7261 33.7559 21.368C33.7559 23.01 35.0869 24.341 36.7289 24.341Z" fill="#B16554"/>
</g>
<defs>
<clipPath id="clip0_269_1984">
<rect width="55" height="55" fill="white"/>
</clipPath>
</defs>
</svg>
