<svg width="55" height="55" viewBox="0 0 55 55" fill="none" xmlns="http://www.w3.org/2000/svg">
<g clip-path="url(#clip0_269_1876)">
<path d="M54.3197 34.4688L49.5418 29.9822C46.6578 27.274 42.7407 25.7825 38.5122 25.7825H30.0766C27.0798 25.7825 24.6214 27.6784 23.8691 30.3333H22.9292C21.2296 30.3333 19.6259 29.6775 18.4109 28.4843L10.9544 21.1849C9.74114 19.9921 8.14052 19.3374 6.44128 19.3374C6.42216 19.3374 6.40293 19.3374 6.38371 19.3377C4.6632 19.3526 3.05162 20.0367 1.84586 21.2642C-0.642026 23.7964 -0.606471 27.8813 1.92503 30.37L11.609 39.8898C13.8085 42.052 16.3712 43.7407 19.2257 44.9088C22.0802 46.0769 25.0914 46.6692 28.1758 46.6692H43.5841L51.3342 54.3751C51.7448 54.7834 52.2923 55.0001 52.8494 55.0001C53.1271 55.0001 53.4073 54.9463 53.6739 54.8353C54.4752 54.502 54.9973 53.7194 54.9973 52.8516V36.0348C54.9974 35.4416 54.7522 34.8748 54.3197 34.4688ZM50.7007 47.6859L45.9853 42.9974C45.5828 42.5971 45.0382 42.3725 44.4705 42.3725H28.1759C23.0736 42.3725 18.2598 40.4027 14.6212 36.8257L4.93733 27.306C4.09486 26.4777 4.08294 25.1182 4.91102 24.2754C5.31222 23.867 5.84866 23.6393 6.4213 23.6343C6.42775 23.6343 6.43409 23.6342 6.44042 23.6342C7.00587 23.6342 7.53876 23.8522 7.94566 24.2522L15.4029 31.5523C17.4237 33.537 20.0967 34.63 22.9293 34.63H24.1746C25.1735 36.8816 27.4433 38.4577 30.0767 38.4577H38.7775C39.964 38.4577 40.9259 37.4959 40.9259 36.3094C40.9259 35.1228 39.964 34.161 38.7775 34.161H30.0767C28.872 34.161 27.9284 33.2383 27.9284 32.0604C27.9284 30.9309 28.852 30.0792 30.0767 30.0792H38.5123C41.6437 30.0792 44.5163 31.1571 46.6007 33.1143L50.7008 36.9645V47.6859H50.7007ZM27.4986 18.2552V19.7671C27.4986 20.9536 28.4604 21.9154 29.647 21.9154C30.8335 21.9154 31.7953 20.9536 31.7953 19.7671V18.2552C34.5082 18.2107 39.1751 17.6597 42.1164 14.6771C46.3542 10.3799 45.6156 2.41847 45.5821 2.08171C45.4853 1.10894 44.7439 0.324151 43.7782 0.172263C43.4453 0.119843 35.5718 -1.05788 31.024 3.55354C30.4883 4.09686 30.0337 4.68647 29.647 5.3038C29.2604 4.68647 28.8057 4.09686 28.2699 3.55354C23.7221 -1.05799 15.8486 0.119736 15.5157 0.172156C14.55 0.324151 13.8086 1.10883 13.7118 2.0816C13.6783 2.41836 12.9397 10.3797 17.1775 14.677C20.1192 17.6599 24.7859 18.2107 27.4986 18.2552ZM34.0834 6.57036C35.9777 4.64952 39.0722 4.29461 41.1003 4.29461C41.1873 4.29461 41.2722 4.29526 41.355 4.29655C41.2984 6.56273 40.8205 9.87204 39.0572 11.66C37.3095 13.4323 34.0843 13.9089 31.8716 13.9628C31.8239 11.9291 32.0919 8.5898 34.0834 6.57036ZM25.2106 6.57036C27.2025 8.59012 27.4701 11.9304 27.4227 13.9626C25.2083 13.9086 21.984 13.4317 20.2368 11.66C18.4732 9.87183 17.9955 6.56133 17.9389 4.29676C19.9563 4.26733 23.2359 4.56799 25.2106 6.57036Z" fill="#757F4D"/>
</g>
<defs>
<clipPath id="clip0_269_1876">
<rect width="55" height="55" fill="white"/>
</clipPath>
</defs>
</svg>

