<svg width="55" height="55" viewBox="0 0 55 55" fill="none" xmlns="http://www.w3.org/2000/svg">
<g clip-path="url(#clip0_269_1843)">
<path d="M33.7208 22.391L25.4571 30.1963L21.4911 26.1162C21.0514 25.6635 20.3274 25.6532 19.8752 26.0929C19.4225 26.533 19.4122 27.2565 19.8519 27.7092L24.6086 32.5921C25.0505 33.0367 25.7646 33.052 26.2249 32.6262L35.3143 24.053C35.535 23.8448 35.664 23.5574 35.6725 23.2543C35.681 22.9512 35.5686 22.657 35.36 22.4367C34.9176 21.9769 34.1883 21.9567 33.7208 22.391Z" fill="#757F4D"/>
<path d="M27.5888 10.3789C18.1443 10.3789 10.4648 18.0584 10.4648 27.5028C10.4648 36.9477 18.1443 44.6272 27.5888 44.6272C37.0337 44.6272 44.7131 36.9477 44.7131 27.5028C44.7131 18.0584 37.0337 10.3789 27.5888 10.3789ZM27.5888 42.3348C19.4051 42.3348 12.7572 35.6753 12.7572 27.5028C12.7572 19.3304 19.4051 12.6713 27.5888 12.6713C35.7805 12.6713 42.4208 19.3116 42.4208 27.5028C42.4208 35.6941 35.7805 42.3348 27.5888 42.3348Z" fill="#757F4D"/>
<path d="M51.1543 21.1988L51.5326 14.4018C51.559 13.9456 51.311 13.5171 50.9022 13.3129L44.8502 10.2527L41.79 4.20073C41.5818 3.79553 41.156 3.54883 40.7011 3.57032L33.8925 3.93746L28.2188 0.189054C27.8365 -0.0630182 27.3408 -0.0630182 26.958 0.189054L21.2844 3.93746L14.4878 3.55913C14.0311 3.53226 13.6031 3.78031 13.3989 4.18953L10.3382 10.2415L4.2867 13.3018C3.88106 13.5095 3.6348 13.9353 3.65629 14.3906L4.03418 21.1876L0.286222 26.8613C0.0341498 27.2437 0.0341498 27.7393 0.286222 28.1221L4.02299 33.8069L3.64465 40.604C3.61824 41.0602 3.86583 41.4887 4.27506 41.6928L10.327 44.7531L13.3873 50.8051C13.595 51.2107 14.0208 51.457 14.4762 51.4355L21.2732 51.0571L26.9468 54.8051C27.3269 55.0652 27.8275 55.0652 28.2076 54.8051L33.8813 51.0571L40.6783 51.4355C41.1345 51.4619 41.5625 51.2138 41.7672 50.8051L44.8274 44.7531L50.8794 41.6928C51.2846 41.4846 51.5313 41.0593 51.5098 40.604L51.1315 33.8069L54.8794 28.1333C55.1315 27.7509 55.1315 27.2548 54.8794 26.8725L51.1543 21.1988ZM49.0222 32.8672C48.8825 33.0722 48.8176 33.3189 48.8391 33.5665L49.1941 39.9964L43.4748 42.8847C43.2568 42.9939 43.0799 43.1712 42.9707 43.3893L40.0819 49.1086L33.652 48.7536C33.4058 48.7446 33.1627 48.8082 32.9527 48.9367L27.5884 52.4787L22.2246 48.9367C22.0383 48.8109 21.819 48.7428 21.5942 48.7419H21.5369L15.1066 49.0974L12.2183 43.3776C12.109 43.1596 11.9322 42.9827 11.7137 42.8735L5.98271 39.9964L6.3382 33.5665C6.34716 33.3203 6.28313 33.0771 6.15463 32.8672L2.61308 27.5029L6.15463 22.1386C6.29477 21.934 6.35969 21.6869 6.3382 21.4397L5.98271 15.0094L11.7025 12.1211C11.9205 12.0118 12.0974 11.835 12.2066 11.6169L15.0949 5.89718L21.5252 6.25268C21.771 6.26118 22.0142 6.19761 22.2246 6.06911L27.5884 2.52755L32.9527 6.06911C33.1577 6.20925 33.4049 6.27417 33.652 6.25268L40.0819 5.89718L42.9707 11.6169C43.0799 11.835 43.2568 12.0118 43.4748 12.1211L49.1941 15.0094L48.8391 21.4397C48.8301 21.6855 48.8941 21.9286 49.0222 22.1386L52.5642 27.5029L49.0222 32.8672Z" fill="#757F4D"/>
</g>
<defs>
<clipPath id="clip0_269_1843">
<rect width="55" height="55" fill="white"/>
</clipPath>
</defs>
</svg>
