<svg width="55" height="55" viewBox="0 0 55 55" fill="none" xmlns="http://www.w3.org/2000/svg">
<g clip-path="url(#clip0_269_1869)">
<path d="M53.2037 26.211C52.8619 26.211 52.534 26.3468 52.2922 26.5886C52.0505 26.8303 51.9147 27.1582 51.9147 27.5001C51.9143 32.3288 50.4821 37.049 47.7992 41.0638C45.1163 45.0785 41.3031 48.2076 36.8418 50.0552C32.3805 51.9028 27.4716 52.3861 22.7357 51.4438C17.9998 50.5016 13.6496 48.1762 10.2353 44.7616C6.82102 41.3471 4.4959 36.9968 3.55399 32.2608C2.61208 27.5248 3.09567 22.6159 4.94363 18.1548C6.79158 13.6937 9.92089 9.88068 13.9359 7.19802C17.9508 4.51536 22.6711 3.0835 27.4998 3.0835C27.8417 3.0835 28.1696 2.94768 28.4113 2.70594C28.6531 2.46419 28.7889 2.13631 28.7889 1.79443C28.7889 1.45255 28.6531 1.12467 28.4113 0.882929C28.1696 0.641183 27.8417 0.505371 27.4998 0.505371C22.1607 0.505031 16.9414 2.08795 12.5019 5.05396C8.06244 8.01997 4.6022 12.2358 2.55877 17.1684C0.515344 22.1011 -0.019486 27.5288 1.02192 32.7654C2.06332 38.002 4.63418 42.8121 8.40938 46.5876C12.1846 50.363 16.9946 52.9342 22.2311 53.9759C27.4676 55.0177 32.8954 54.4832 37.8281 52.4401C42.7609 50.3969 46.977 46.937 49.9433 42.4977C52.9095 38.0584 54.4928 32.8392 54.4928 27.5001C54.4928 27.1582 54.357 26.8303 54.1152 26.5886C53.8735 26.3468 53.5456 26.211 53.2037 26.211Z" fill="#757F4D"/>
<path d="M27.5532 39.5895C29.8286 39.5905 32.077 39.0956 34.1417 38.1392C36.2065 37.1828 38.038 35.788 39.5088 34.0517C39.6184 33.9226 39.7014 33.7732 39.7533 33.612C39.8051 33.4507 39.8247 33.2809 39.8109 33.1121C39.7971 32.9433 39.7502 32.7789 39.6728 32.6283C39.5955 32.4776 39.4892 32.3437 39.3601 32.2341C39.231 32.1245 39.0816 32.0415 38.9204 31.9896C38.7592 31.9378 38.5893 31.9182 38.4205 31.932C38.2518 31.9458 38.0873 31.9927 37.9367 32.0701C37.7861 32.1474 37.6521 32.2537 37.5425 32.3828C36.3205 33.8253 34.8005 34.9859 33.0871 35.785C31.3737 36.584 29.5076 37.0023 27.617 37.0113C25.7265 37.0203 23.8565 36.6197 22.1356 35.837C20.4146 35.0543 18.8837 33.9081 17.648 32.4773C17.4242 32.2186 17.1068 32.0595 16.7656 32.0348C16.4244 32.0101 16.0874 32.122 15.8287 32.3458C15.57 32.5697 15.4108 32.8871 15.3862 33.2283C15.3615 33.5694 15.4734 33.9064 15.6972 34.1651C17.1681 35.8675 18.9884 37.2331 21.0342 38.1691C23.08 39.1051 25.3034 39.5896 27.5532 39.5895Z" fill="#757F4D"/>
<path d="M16.9351 21.8145H16.9437C17.4062 21.5887 17.914 21.4711 18.4287 21.4707C19.3403 21.4707 20.2147 21.8329 20.8593 22.4775C21.504 23.1222 21.8662 23.9965 21.8662 24.9082C21.8662 25.2501 22.002 25.578 22.2437 25.8197C22.4855 26.0615 22.8133 26.1973 23.1552 26.1973C23.4971 26.1973 23.825 26.0615 24.0667 25.8197C24.3085 25.578 24.4443 25.2501 24.4443 24.9082C24.4443 23.3128 23.8105 21.7827 22.6823 20.6545C21.5542 19.5264 20.0241 18.8926 18.4287 18.8926C17.5771 18.8951 16.736 19.0803 15.9622 19.4357C15.9272 19.4517 15.8933 19.47 15.8608 19.4907C14.8347 19.9759 13.967 20.742 13.3586 21.7003C12.7502 22.6586 12.4259 23.7697 12.4233 24.9048C12.4233 25.2466 12.5592 25.5745 12.8009 25.8163C13.0426 26.058 13.3705 26.1938 13.7124 26.1938C14.0543 26.1938 14.3822 26.058 14.6239 25.8163C14.8657 25.5745 15.0015 25.2466 15.0015 24.9048C15.0016 24.2602 15.183 23.6286 15.5249 23.0822C15.8668 22.5358 16.3554 22.0965 16.9351 21.8145Z" fill="#757F4D"/>
<path d="M41.396 26.1816C41.7379 26.1816 42.0658 26.0458 42.3075 25.8041C42.5492 25.5623 42.6851 25.2345 42.6851 24.8926C42.6851 24.1026 42.5295 23.3203 42.2271 22.5905C41.9248 21.8606 41.4817 21.1975 40.9231 20.6389C40.3645 20.0803 39.7014 19.6372 38.9715 19.3349C38.2417 19.0326 37.4594 18.877 36.6694 18.877C35.8795 18.877 35.0972 19.0326 34.3674 19.3349C33.6375 19.6372 32.9743 20.0803 32.4157 20.6389C31.8571 21.1975 31.414 21.8606 31.1117 22.5905C30.8094 23.3203 30.6538 24.1026 30.6538 24.8926C30.6538 25.2345 30.7896 25.5623 31.0314 25.8041C31.2731 26.0458 31.601 26.1816 31.9429 26.1816C32.2848 26.1816 32.6126 26.0458 32.8544 25.8041C33.0961 25.5623 33.2319 25.2345 33.2319 24.8926C33.2305 24.3214 33.3717 23.759 33.6429 23.2563C33.9142 22.7537 34.3067 22.3268 34.7849 22.0144C35.263 21.7021 35.8117 21.5142 36.3809 21.4678C36.9502 21.4215 37.522 21.5181 38.0444 21.749C38.0962 21.7825 38.1501 21.8123 38.206 21.8384C38.7731 22.1224 39.2502 22.5583 39.584 23.0976C39.9178 23.6369 40.0953 24.2583 40.0966 24.8926C40.0966 25.0627 40.1303 25.2312 40.1957 25.3883C40.2612 25.5453 40.357 25.6879 40.4778 25.8077C40.5986 25.9276 40.7419 26.0223 40.8995 26.0865C41.0571 26.1507 41.2258 26.183 41.396 26.1816Z" fill="#757F4D"/>
<path d="M53.1677 5.6807L50.679 4.32117L49.328 1.83242C49.1083 1.43045 48.7844 1.09503 48.3903 0.861363C47.9963 0.627697 47.5466 0.504395 47.0885 0.504395C46.6304 0.504395 46.1807 0.627697 45.7867 0.861363C45.3926 1.09503 45.0687 1.43045 44.849 1.83242L43.4843 4.31601L40.9921 5.6807C40.5901 5.90045 40.2547 6.22434 40.021 6.61839C39.7874 7.01244 39.6641 7.46211 39.6641 7.92023C39.6641 8.37835 39.7874 8.82802 40.021 9.22207C40.2547 9.61612 40.5901 9.94001 40.9921 10.1598L43.4843 11.5159L44.8421 14.008C45.062 14.4096 45.3858 14.7446 45.7797 14.978C46.1736 15.2114 46.6229 15.3345 47.0808 15.3345C47.5386 15.3345 47.988 15.2114 48.3818 14.978C48.7757 14.7446 49.0995 14.4096 49.3194 14.008L50.6704 11.5159L53.1677 10.1529C53.5692 9.93275 53.9042 9.60872 54.1375 9.21472C54.3708 8.82073 54.4939 8.37125 54.4939 7.91336C54.4939 7.45546 54.3708 7.00599 54.1375 6.61199C53.9042 6.21799 53.5692 5.89396 53.1677 5.67383V5.6807ZM49.4346 9.26086C49.0068 9.49525 48.6549 9.8471 48.4205 10.2749L47.1022 12.7688L45.7393 10.2749C45.5052 9.84628 45.1525 9.4942 44.7235 9.26086L42.2313 7.94429L44.7252 6.57789C45.1537 6.34443 45.5058 5.99234 45.7393 5.56383L47.0576 3.07164L48.4205 5.56383C48.6545 5.99199 49.0064 6.34396 49.4346 6.57789L51.9302 7.89445L49.4346 9.26086Z" fill="#757F4D"/>
</g>
<defs>
<clipPath id="clip0_269_1869">
<rect width="55" height="55" fill="white"/>
</clipPath>
</defs>
</svg>
