<svg width="55" height="55" viewBox="0 0 55 55" fill="none" xmlns="http://www.w3.org/2000/svg">
<g clip-path="url(#clip0_269_1990)">
<path d="M14.7308 18.3724C15.1321 18.4781 15.5369 18.5296 15.9373 18.5296C17.8134 18.5296 19.5802 17.4124 20.3331 15.6258L20.6029 14.9916L27.7391 16.5591L33.8287 14.9959C35.0997 16.8882 37.2215 18.0466 39.5315 18.0466C43.0309 18.0466 45.9218 15.417 46.3472 12.031H54.1409C54.6161 12.031 55.0002 11.646 55.0002 11.1716C55.0002 10.6973 54.6161 10.3123 54.1409 10.3123H46.3472C46.067 8.0779 44.7152 6.1718 42.8186 5.13454L54.3712 1.92563C54.8284 1.7993 55.0965 1.32493 54.9693 0.867742C54.843 0.409695 54.3695 0.143289 53.9114 0.269617L39.3768 4.30696C38.3215 4.33102 37.2997 4.60173 36.3793 5.08298L27.1668 0.429461C24.8431 -0.561398 22.1927 0.178523 20.7181 2.23071L13.9118 11.6838C13.7958 11.8454 13.7391 12.0413 13.7511 12.2399L14.0863 17.5938C14.1095 17.9641 14.3716 18.2778 14.7308 18.3724ZM44.6877 11.1716C44.6877 14.0153 42.3752 16.3279 39.5315 16.3279C37.6245 16.3279 35.88 15.2829 34.9794 13.6045C34.578 12.8491 34.3752 12.031 34.3752 11.1716C34.3752 9.35837 35.2931 7.71782 36.8399 6.77938C37.6426 6.28009 38.5724 6.01626 39.5289 6.0154H39.5332C42.376 6.0154 44.6877 8.32884 44.6877 11.1716ZM22.1137 3.23446C23.1148 1.84141 24.9161 1.33782 26.4415 1.98751L34.7903 6.20704C33.4411 7.48235 32.6565 9.25009 32.6565 11.1725C32.6565 11.9511 32.7923 12.7031 33.0423 13.4232L27.7082 14.7922L20.2772 13.1602C19.8664 13.0683 19.4642 13.2831 19.3018 13.6621L18.7501 14.9546C18.2448 16.1543 17.0288 16.8822 15.7595 16.8057L15.487 12.4392L22.1137 3.23446Z" fill="#B16554"/>
<path d="M39.5312 8.16406C37.8727 8.16406 36.5234 9.51328 36.5234 11.1719C36.5234 12.8305 37.8727 14.1797 39.5312 14.1797C41.1898 14.1797 42.5391 12.8305 42.5391 11.1719C42.5391 9.51328 41.1898 8.16406 39.5312 8.16406ZM39.5312 12.4609C38.8205 12.4609 38.2422 11.8826 38.2422 11.1719C38.2422 10.4612 38.8205 9.88281 39.5312 9.88281C40.242 9.88281 40.8203 10.4612 40.8203 11.1719C40.8203 11.8826 40.242 12.4609 39.5312 12.4609Z" fill="#B16554"/>
<path d="M54.0186 5.28781L48.8624 6.02429C48.3923 6.09132 48.0657 6.52617 48.1327 6.99624C48.1938 7.42507 48.5616 7.73359 48.9827 7.73359C49.0231 7.73359 49.0643 7.73101 49.1056 7.72499L54.2618 6.98851C54.7319 6.92148 55.0585 6.48663 54.9914 6.01656C54.9244 5.54734 54.487 5.21734 54.0186 5.28781Z" fill="#B16554"/>
<path d="M48.95 42.2399C48.608 38.585 45.7093 35.6605 42.0664 35.2764C41.6857 31.6618 38.8059 28.7821 35.1914 28.4014C34.7823 24.5187 31.4884 21.4834 27.5 21.4834C23.5116 21.4834 20.2168 24.5187 19.8086 28.4014C16.1941 28.7821 13.3143 31.6618 12.9336 35.2764C9.2907 35.6605 6.39289 38.5841 6.05 42.2399C2.55406 43.0168 0 46.1646 0 49.8436V54.1405C0 54.6149 0.384141 54.9999 0.859375 54.9999C1.33461 54.9999 1.71875 54.6149 1.71875 54.1405V49.8436C1.71875 46.7825 3.98148 44.1941 6.9807 43.8211C7.41125 43.7679 7.73438 43.4026 7.73438 42.9686C7.73438 39.6514 10.4337 36.953 13.75 36.953C14.2252 36.953 14.6094 36.568 14.6094 36.0936C14.6094 32.7764 17.3087 30.078 20.625 30.078C21.1002 30.078 21.4844 29.693 21.4844 29.2186C21.4844 25.9014 24.1837 23.203 27.5 23.203C30.8163 23.203 33.5156 25.9014 33.5156 29.2186C33.5156 29.693 33.8998 30.078 34.375 30.078C37.6913 30.078 40.3906 32.7764 40.3906 36.0936C40.3906 36.568 40.7748 36.953 41.25 36.953C44.5663 36.953 47.2656 39.6514 47.2656 42.9686C47.2656 43.4026 47.5887 43.7679 48.0193 43.8211C51.0185 44.1941 53.2812 46.7825 53.2812 49.8436V54.1405C53.2812 54.6149 53.6654 54.9999 54.1406 54.9999C54.6159 54.9999 55 54.6149 55 54.1405V49.8436C55 46.1646 52.4459 43.0168 48.95 42.2399Z" fill="#B16554"/>
<path d="M40.9252 39.6936L34.7454 36.7451C34.479 36.6179 34.1662 36.636 33.917 36.7941C33.6669 36.9514 33.5156 37.2255 33.5156 37.5211V41.6032L31.3801 42.7848C31.1807 42.8957 31.0329 43.0804 30.9702 43.3004L29.2514 49.316C29.1689 49.6039 29.2428 49.9142 29.4465 50.135C29.6502 50.3559 29.9544 50.4556 30.2474 50.3954L34.3037 49.5842C34.3037 49.5842 41.1503 52.1314 41.2509 52.1314C41.598 52.1314 41.9263 51.9182 42.0561 51.5736L44.6342 44.6986C44.7442 44.4056 44.6858 44.0756 44.4821 43.8375L40.926 39.6953L40.9252 39.6936ZM40.7481 50.1643L35.927 48.3561L38.4209 45.8622C38.757 45.5262 38.757 44.9831 38.4209 44.6471C38.0849 44.311 37.5418 44.311 37.2058 44.6471L33.9522 47.9007L31.2924 48.4326L32.5265 44.1151L34.7927 42.8613C35.0659 42.71 35.2361 42.4221 35.2361 42.1093V38.8824L39.8587 41.0875L42.8476 44.5689L40.7498 50.1634L40.7481 50.1643Z" fill="#B16554"/>
<path d="M23.2634 45.3012C24.6195 43.9416 24.2199 41.4065 22.3482 39.5245C20.4696 37.6562 17.9319 37.2531 16.5732 38.6144L16.5706 38.6161L11.1059 44.0895C9.74375 45.4524 10.1442 47.9867 12.0177 49.8593C13.1426 50.9842 14.5055 51.578 15.7104 51.578C16.5122 51.578 17.2427 51.3151 17.7875 50.7711L23.2617 45.3055L23.2643 45.302L23.2634 45.3012ZM18.652 39.533C19.3619 39.533 20.3046 39.9155 21.133 40.7387C22.3843 41.9977 22.6189 43.5137 22.0466 44.0877L22.0448 44.0895C21.4691 44.6627 19.954 44.4272 18.6993 43.1794C17.448 41.9204 17.2143 40.4053 17.7858 39.8312L17.7875 39.8295C17.9826 39.6345 18.2868 39.533 18.652 39.533ZM16.5715 49.5542C15.9957 50.13 14.4832 49.8945 13.232 48.6433C11.979 47.3903 11.7461 45.8778 12.321 45.3029L15.9149 41.7038C16.147 42.6242 16.6652 43.5712 17.4833 44.3945C18.3014 45.2075 19.2433 45.7386 20.1585 45.9715L16.5706 49.5542H16.5715Z" fill="#B16554"/>
<path d="M29.7007 39.3833C29.9465 39.2389 30.078 38.957 30.078 38.6717V35.0795L33.6839 34.3585C34.0242 34.2906 34.2906 34.0233 34.3585 33.6822C34.4255 33.3418 34.2812 32.9929 33.9916 32.8004L26.2572 27.6442C26.0415 27.5007 25.7742 27.462 25.525 27.5385C25.2783 27.615 25.0781 27.7997 24.9819 28.0395L23.3525 32.1129L20.1083 34.5467C19.86 34.7332 19.7311 35.0391 19.7715 35.3468C19.8119 35.6544 20.0155 35.9165 20.3043 36.0317L28.898 39.4692C29.0003 39.5104 29.4334 39.5388 29.699 39.3824L29.7007 39.3833ZM28.3592 34.3748V37.4024L22.3633 35.0039L24.5771 33.3427C24.7034 33.2482 24.8014 33.121 24.8598 32.9749L26.185 29.6611L31.312 33.0789L29.0493 33.5318C28.648 33.6117 28.3583 33.9649 28.3583 34.374L28.3592 34.3748Z" fill="#B16554"/>
<path d="M14.1797 27.5C15.8383 27.5 17.1875 26.1508 17.1875 24.4922C17.1875 22.8336 15.8383 21.4844 14.1797 21.4844C12.5211 21.4844 11.1719 22.8336 11.1719 24.4922C11.1719 26.1508 12.5211 27.5 14.1797 27.5ZM14.1797 23.2031C14.8904 23.2031 15.4688 23.7815 15.4688 24.4922C15.4688 25.2029 14.8904 25.7812 14.1797 25.7812C13.469 25.7812 12.8906 25.2029 12.8906 24.4922C12.8906 23.7815 13.469 23.2031 14.1797 23.2031Z" fill="#B16554"/>
<path d="M36.0938 22.7734C36.0938 24.432 37.443 25.7812 39.1016 25.7812C40.7602 25.7812 42.1094 24.432 42.1094 22.7734C42.1094 21.1148 40.7602 19.7656 39.1016 19.7656C37.443 19.7656 36.0938 21.1148 36.0938 22.7734ZM40.3906 22.7734C40.3906 23.4841 39.8123 24.0625 39.1016 24.0625C38.3909 24.0625 37.8125 23.4841 37.8125 22.7734C37.8125 22.0627 38.3909 21.4844 39.1016 21.4844C39.8123 21.4844 40.3906 22.0627 40.3906 22.7734Z" fill="#B16554"/>
<path d="M47.6953 50.4116C48.4072 50.4116 48.9844 49.8345 48.9844 49.1226C48.9844 48.4106 48.4072 47.8335 47.6953 47.8335C46.9834 47.8335 46.4062 48.4106 46.4062 49.1226C46.4062 49.8345 46.9834 50.4116 47.6953 50.4116Z" fill="#B16554"/>
<path d="M24.4922 50.7031C25.2041 50.7031 25.7812 50.126 25.7812 49.4141C25.7812 48.7021 25.2041 48.125 24.4922 48.125C23.7803 48.125 23.2031 48.7021 23.2031 49.4141C23.2031 50.126 23.7803 50.7031 24.4922 50.7031Z" fill="#B16554"/>
<path d="M22.7734 20.625C23.4854 20.625 24.0625 20.0479 24.0625 19.3359C24.0625 18.624 23.4854 18.0469 22.7734 18.0469C22.0615 18.0469 21.4844 18.624 21.4844 19.3359C21.4844 20.0479 22.0615 20.625 22.7734 20.625Z" fill="#B16554"/>
<path d="M9.88281 31.7969C10.5947 31.7969 11.1719 31.2197 11.1719 30.5078C11.1719 29.7959 10.5947 29.2188 9.88281 29.2188C9.17088 29.2188 8.59375 29.7959 8.59375 30.5078C8.59375 31.2197 9.17088 31.7969 9.88281 31.7969Z" fill="#B16554"/>
<path d="M45.1172 30.9375C45.8291 30.9375 46.4062 30.3604 46.4062 29.6484C46.4062 28.9365 45.8291 28.3594 45.1172 28.3594C44.4053 28.3594 43.8281 28.9365 43.8281 29.6484C43.8281 30.3604 44.4053 30.9375 45.1172 30.9375Z" fill="#B16554"/>
<path d="M6.44531 51.5625C7.15724 51.5625 7.73438 50.9854 7.73438 50.2734C7.73438 49.5615 7.15724 48.9844 6.44531 48.9844C5.73338 48.9844 5.15625 49.5615 5.15625 50.2734C5.15625 50.9854 5.73338 51.5625 6.44531 51.5625Z" fill="#B16554"/>
</g>
<defs>
<clipPath id="clip0_269_1990">
<rect width="55" height="55" fill="white"/>
</clipPath>
</defs>
</svg>

