<svg width="55" height="55" viewBox="0 0 55 55" fill="none" xmlns="http://www.w3.org/2000/svg">
<g clip-path="url(#clip0_269_1901)">
<path d="M54.5286 26.3613L50.5007 22.3333L54.5286 18.3054C55.1578 17.6761 55.1578 16.6559 54.5286 16.0266L50.5007 11.9988L54.5286 7.97086C55.1577 7.34169 55.1578 6.32151 54.5287 5.69223L49.3097 0.472065C48.6805 -0.157319 47.66 -0.157212 47.0308 0.471958L43.0029 4.49985L38.9749 0.471958C38.3458 -0.157319 37.3255 -0.157319 36.6962 0.471958L32.6683 4.49985L28.6404 0.471958C28.0114 -0.157319 26.991 -0.157212 26.3617 0.471958L22.3337 4.49985L18.3059 0.471958C17.6767 -0.157319 16.6564 -0.157319 16.0272 0.471958L11.9993 4.49985L7.97138 0.471958C7.34221 -0.157319 6.32192 -0.157319 5.69264 0.471958L0.472473 5.69212C-0.156804 6.3214 -0.156804 7.34159 0.472473 7.97086L4.50036 11.9988L0.472473 16.0266C-0.156804 16.6559 -0.156804 17.6761 0.472473 18.3054L4.50036 22.3333L0.472366 26.3613C-0.156804 26.9906 -0.156804 28.0107 0.472366 28.64L4.50026 32.6679L0.472473 36.6958C-0.156804 37.3251 -0.156804 38.3453 0.472473 38.9745L4.50036 43.0024L0.472366 47.0303C-0.156482 47.6592 -0.156697 48.68 0.472473 49.3092L5.69264 54.528C6.32192 55.1571 7.34199 55.1571 7.97127 54.5279L11.9992 50.5L16.0271 54.5279C16.6562 55.1572 17.6765 55.1572 18.3058 54.5279L22.3337 50.5L26.3617 54.5279C26.9909 55.1571 28.0111 55.1572 28.6404 54.5279L32.6683 50.5L36.6962 54.5279C37.3254 55.1572 38.3457 55.1573 38.9749 54.5279L43.0028 50.5L47.0307 54.5279C47.6599 55.1572 48.6802 55.1571 49.3095 54.5279L54.5285 49.3091C55.1577 48.6798 55.1577 47.6596 54.5285 47.0303L50.5006 43.0023L54.5285 38.9744C55.1577 38.3451 55.1577 37.325 54.5285 36.6957L50.5006 32.6678L54.5285 28.6399C55.1578 28.0107 55.1578 26.9906 54.5286 26.3613ZM47.0825 31.5285C46.4532 32.1578 46.4532 33.1779 47.0825 33.8072L51.1104 37.8351L47.0825 41.863C46.4532 42.4923 46.4532 43.5125 47.0825 44.1417L51.1104 48.1697L48.1701 51.1099L44.1423 47.082C43.5131 46.4527 42.4928 46.4527 41.8635 47.082L37.8356 51.1099L33.8077 47.082C33.1786 46.4527 32.1583 46.4527 31.529 47.082L27.5011 51.1099L23.4731 47.082C22.8439 46.4527 21.8236 46.4527 21.1944 47.082L17.1665 51.1099L13.1386 47.082C12.5094 46.4527 11.4891 46.4527 10.8598 47.082L6.83174 51.11L3.89064 48.1695L7.91842 44.1417C8.5477 43.5125 8.5477 42.4923 7.91842 41.863L3.89053 37.8351L7.91842 33.8072C8.5477 33.1779 8.5477 32.1578 7.91842 31.5285L3.89053 27.5006L7.91842 23.4726C8.5477 22.8433 8.5477 21.8231 7.91842 21.1939L3.89053 17.166L7.91842 13.1381C8.5477 12.5088 8.5477 11.4886 7.91842 10.8593L3.89053 6.83144L6.83196 3.89001L10.8598 7.9179C11.489 8.54718 12.5093 8.54718 13.1386 7.9179L17.1665 3.89012L21.1944 7.91801C21.8235 8.54729 22.8437 8.54729 23.4731 7.91801L27.5011 3.89012L31.529 7.91801C32.1582 8.54729 33.1785 8.54729 33.8077 7.91801L37.8356 3.89012L41.8635 7.91801C42.4927 8.54729 43.513 8.54729 44.1423 7.91801L48.17 3.89023L51.1105 6.83133L47.0825 10.8594C46.4532 11.4887 46.4532 12.5089 47.0825 13.1382L51.1104 17.1661L47.0825 21.194C46.4532 21.8232 46.4532 22.8434 47.0825 23.4727L51.1104 27.5007L47.0825 31.5285Z" fill="#757F4D"/>
<path d="M40.8518 12.8697C40.2762 12.7576 28.2273 10.5074 21.9083 16.8266C16.4677 22.2671 17.3795 31.9558 17.8097 34.912L12.868 39.8537C12.2387 40.483 12.2387 41.5032 12.868 42.1325C13.4971 42.7617 14.5174 42.7618 15.1467 42.1325L20.0884 37.1907C21.0669 37.3332 22.7828 37.5285 24.8398 37.5285C28.9941 37.5285 34.5347 36.7314 38.1738 33.0923C44.4928 26.7733 42.2426 14.724 42.1306 14.1486C42.0081 13.5052 41.4962 12.9922 40.8518 12.8697ZM24.187 19.1052C27.5623 15.73 33.4173 15.4611 37.0459 15.6756L20.7533 31.9683C20.5349 28.3435 20.8002 22.4921 24.187 19.1052ZM35.8951 30.8133C32.5198 34.1887 26.6648 34.4575 23.0362 34.243L39.329 17.9502C39.5473 21.5751 39.2819 27.4265 35.8951 30.8133Z" fill="#757F4D"/>
</g>
<defs>
<clipPath id="clip0_269_1901">
<rect width="55" height="55" fill="white"/>
</clipPath>
</defs>
</svg>
