<svg width="60" height="60" viewBox="0 0 60 60" fill="none" xmlns="http://www.w3.org/2000/svg">
<g clip-path="url(#clip0_269_1972)">
<path d="M56.4844 42.7231V21.0937H58.2422C59.213 21.0937 60 20.3067 60 19.3359C60 18.3651 59.213 17.5781 58.2422 17.5781H53.2656C53.8866 16.0892 54.1638 14.4613 54.0655 12.8495L56.1314 9.27114C56.6168 8.43055 56.3287 7.35559 55.488 6.87032L49.3983 3.35446C48.5577 2.86907 47.4827 3.15711 46.9975 3.99782L44.9316 7.57614C44.4584 7.81215 44.0039 8.08403 43.5722 8.38778C39.3064 5.25196 33.1657 5.90422 32.8839 5.93633C32.0702 6.02879 31.4282 6.67086 31.3357 7.4845C31.3249 7.57942 31.2439 8.33786 31.2607 9.46496C30.8463 9.40508 30.4257 9.37496 30 9.37496C28.6036 9.37496 27.242 9.70789 26.0168 10.3344C25.4263 9.43098 24.6538 8.69 23.7292 8.1561C22.857 7.65254 21.9032 7.35828 20.8849 7.27719C21.51 5.22172 21.3805 3.02868 20.5084 1.04938C20.1168 0.160981 19.0791 -0.241793 18.191 0.149731C17.3026 0.541254 16.8997 1.57883 17.2913 2.46711C17.7948 3.60969 17.8915 4.86946 17.5752 6.06383C16.751 5.48703 15.8265 5.09868 14.8624 4.92875C14.5804 4.87895 14.2905 4.84719 14.001 4.8343C13.3989 4.80805 12.8244 5.09164 12.48 5.58676C12.1357 6.08188 12.0691 6.71903 12.3039 7.27461C12.4405 7.59793 12.4496 7.95747 12.3298 8.287C12.1165 8.87293 11.5354 9.24571 10.914 9.19391C10.4154 9.15196 9.92238 9.32493 9.55887 9.66899C9.19535 10.0131 8.99578 10.4959 9.01008 10.9961C9.01512 11.1711 8.98723 11.3435 8.92711 11.5086C8.67656 12.1972 7.93148 12.5723 7.23035 12.3624C6.74777 12.2181 6.22711 12.2873 5.79938 12.5527C5.37176 12.8181 5.07832 13.2541 4.99348 13.7503C4.77234 15.0437 4.74738 16.3367 4.91402 17.5782H1.75781C0.787031 17.5782 0 18.3652 0 19.336C0 20.3068 0.787031 21.0938 1.75781 21.0938H3.51562V42.7232C1.46941 43.4486 0 45.4036 0 47.6953V54.7265C0 57.6343 2.36566 60 5.27344 60C8.18121 60 10.5469 57.6343 10.5469 54.7265V54.1406H49.4531V54.7265C49.4531 57.6343 51.8188 60 54.7266 60C57.6343 60 60 57.6343 60 54.7265V47.6953C60 45.4036 58.5306 43.4486 56.4844 42.7231ZM46.8666 10.5528C47.2164 10.4034 47.5082 10.1447 47.6984 9.81524L49.1632 7.27801L52.2079 9.03582L50.743 11.5731C50.5528 11.9023 50.4747 12.2845 50.5201 12.6621C50.7021 14.1725 50.3892 15.7013 49.6286 17.0189L49.3056 17.5781H41.1867L43.5394 13.5032C44.2999 12.1857 45.4675 11.1505 46.8666 10.5528ZM41.0316 10.9107C40.8396 11.18 40.6603 11.4586 40.4946 11.7454L37.4541 17.0117C37.3741 16.9416 37.2982 16.8704 37.2254 16.7977C35.1643 14.7366 34.8002 11.3343 34.7768 9.38235C36.396 9.40567 39.0157 9.66231 41.0316 10.9107ZM31.6598 13.1601C31.9668 14.6214 32.4938 16.1763 33.3814 17.5781H27.0666C27.3606 16.2557 27.4232 14.9265 27.2419 13.6766C28.0684 13.1653 29.0204 12.8906 30 12.8906C30.5706 12.8906 31.1262 12.9811 31.6598 13.1601ZM8.32113 15.8864C10.0562 15.6354 11.5946 14.4588 12.2307 12.7111C12.2503 12.6573 12.2688 12.6032 12.2865 12.5491C13.8013 12.1442 15.0752 11.0231 15.6335 9.48946C15.681 9.35879 15.7229 9.22684 15.7589 9.09395C15.8074 9.13309 15.8552 9.17387 15.9028 9.21606C17.0814 10.2651 18.5963 10.8172 20.1765 10.7715C20.8388 10.7522 21.4443 10.8965 21.9714 11.2009C23.7178 12.2091 24.2815 14.8823 23.4275 17.5783H8.47453C8.36883 17.0315 8.31738 16.4646 8.32113 15.8864ZM7.03125 54.7265C7.03125 55.6958 6.2427 56.4843 5.27344 56.4843C4.30418 56.4843 3.51562 55.6958 3.51562 54.7265V47.6953C3.51562 46.726 4.30418 45.9375 5.27344 45.9375C6.2427 45.9375 7.03125 46.726 7.03125 47.6953V54.7265ZM10.5469 50.625V47.6953C10.5469 45.4036 9.07746 43.4486 7.03125 42.7231V21.0937H52.9688V42.7231C50.9225 43.4486 49.4531 45.4036 49.4531 47.6953V50.625H10.5469ZM56.4844 54.7265C56.4844 55.6958 55.6958 56.4843 54.7266 56.4843C53.7573 56.4843 52.9688 55.6958 52.9688 54.7265V47.6953C52.9688 46.726 53.7573 45.9375 54.7266 45.9375C55.6958 45.9375 56.4844 46.726 56.4844 47.6953V54.7265Z" fill="#B16554"/>
<path d="M25.0618 32.8113C24.2211 32.3259 23.933 31.2508 24.4184 30.4101L26.4481 26.8945C28.0268 24.1602 31.9735 24.1602 33.5522 26.8945L35.5819 30.4101C36.0673 31.2508 35.7793 32.3259 34.9386 32.8113C34.0979 33.2967 33.0228 33.0086 32.5374 32.1679L30.5077 28.6523C30.2822 28.2617 29.7183 28.2617 29.4929 28.6523L27.4631 32.1679C26.9775 33.0086 25.9025 33.2968 25.0618 32.8113Z" fill="#B16554"/>
<path d="M38.1191 47.1091H34.0596C33.0888 47.1091 32.3018 46.3221 32.3018 45.3513C32.3018 44.3805 33.0888 43.5935 34.0596 43.5935H38.1191C38.5701 43.5935 38.8521 43.1052 38.6265 42.7146L36.5967 39.199C36.1113 38.3583 36.3993 37.2832 37.24 36.7978C38.0807 36.3124 39.1558 36.6005 39.6412 37.4412L41.671 40.9568C43.2499 43.6911 41.2764 47.1091 38.1191 47.1091Z" fill="#B16554"/>
<path d="M25.9406 47.1091H21.8811C18.7237 47.1091 16.7504 43.6911 18.329 40.9568L20.3588 37.4412C20.8442 36.6005 21.9193 36.3124 22.76 36.7978C23.6007 37.2832 23.8888 38.3583 23.4034 39.199L21.3736 42.7146C21.1481 43.1052 21.4299 43.5935 21.881 43.5935H25.9405C26.9113 43.5935 27.6983 44.3805 27.6983 45.3513C27.6984 46.3221 26.9115 47.1091 25.9406 47.1091Z" fill="#B16554"/>
</g>
<defs>
<clipPath id="clip0_269_1972">
<rect width="60" height="60" fill="white"/>
</clipPath>
</defs>
</svg>
