<svg width="65" height="65" viewBox="0 0 65 65" fill="none" xmlns="http://www.w3.org/2000/svg">
<path d="M62.593 33.7391C62.4745 33.6446 62.3365 33.5774 62.1891 33.5423C62.0416 33.5071 61.8882 33.505 61.7398 33.5359L59.9219 33.932V28.4375C59.9219 28.1681 59.8149 27.9098 59.6244 27.7193C59.4339 27.5289 59.1756 27.4219 58.9063 27.4219H53.8281C53.5588 27.4219 53.3004 27.5289 53.11 27.7193C52.9195 27.9098 52.8125 28.1681 52.8125 28.4375V35.4555L47.5211 36.5828C47.2936 36.6317 47.0897 36.7572 46.9437 36.9384C46.7976 37.1196 46.7182 37.3454 46.7188 37.5781V44.3117L43.6719 43.3469V36.5625C43.6719 36.2931 43.5649 36.0348 43.3744 35.8443C43.1839 35.6539 42.9256 35.5469 42.6563 35.5469H41.3766L40.6047 31.3016C40.562 31.0684 40.4392 30.8575 40.2574 30.7054C40.0756 30.5534 39.8464 30.4696 39.6094 30.4688H33.5156C33.2786 30.4696 33.0494 30.5534 32.8676 30.7054C32.6858 30.8575 32.563 31.0684 32.5203 31.3016L31.7484 35.5469H30.4688C30.1994 35.5469 29.9411 35.6539 29.7506 35.8443C29.5601 36.0348 29.4531 36.2931 29.4531 36.5625V38.8172L25.6953 37.6289C25.5443 37.5785 25.3833 37.5651 25.226 37.5898C25.0687 37.6146 24.9197 37.6767 24.7914 37.7711C24.662 37.8656 24.5568 37.9895 24.4845 38.1324C24.4121 38.2754 24.3746 38.4335 24.375 38.5938V44.3117L21.3281 43.3469V36.5625C21.3281 36.2931 21.2211 36.0348 21.0307 35.8443C20.8402 35.6539 20.5819 35.5469 20.3125 35.5469H19.0328L18.2609 31.3016C18.2183 31.0684 18.0954 30.8575 17.9137 30.7054C17.7319 30.5534 17.5026 30.4696 17.2656 30.4688H11.1719C10.9349 30.4696 10.7056 30.5534 10.5239 30.7054C10.3421 30.8575 10.2192 31.0684 10.1766 31.3016L9.40469 35.5469H8.125C7.85564 35.5469 7.59731 35.6539 7.40685 35.8443C7.21638 36.0348 7.10938 36.2931 7.10938 36.5625V38.8172L3.35157 37.6289C3.20052 37.5785 3.03958 37.5651 2.88228 37.5898C2.72499 37.6146 2.57593 37.6767 2.44766 37.7711C2.31827 37.8656 2.21309 37.9895 2.14072 38.1324C2.06835 38.2754 2.03084 38.4335 2.03125 38.5938V61.9531C2.03125 62.2225 2.13826 62.4808 2.32872 62.6713C2.51919 62.8617 2.77752 62.9688 3.04688 62.9688H61.9531C62.2225 62.9688 62.4808 62.8617 62.6713 62.6713C62.8618 62.4808 62.9688 62.2225 62.9688 61.9531V34.5312C62.9677 34.3798 62.9335 34.2304 62.8686 34.0935C62.8037 33.9567 62.7096 33.8357 62.593 33.7391ZM54.8438 29.4531H57.8906V34.3586L54.8438 35.0187V29.4531ZM34.3586 32.5H38.7664L39.3148 35.5469H33.8102L34.3586 32.5ZM31.4844 37.5781H41.6406V42.6969L31.4844 39.4672V37.5781ZM26.4063 39.9852L46.7188 46.4445V55.8594H26.4063V39.9852ZM12.0148 32.5H16.4227L16.9711 35.5469H11.4664L12.0148 32.5ZM9.14063 37.5781H19.2969V42.6969L9.14063 39.4672V37.5781ZM4.0625 39.9852L24.375 46.4445V55.8594H4.0625V39.9852ZM60.9375 60.9375H4.0625V57.8906H60.9375V60.9375ZM60.9375 55.8594H48.75V38.4008L60.9375 35.7906V55.8594Z" fill="#B16554"/>
<path d="M51.7969 46.7188H56.875C57.1444 46.7188 57.4027 46.6117 57.5932 46.4213C57.7836 46.2308 57.8906 45.9725 57.8906 45.7031V40.625C57.8906 40.3556 57.7836 40.0973 57.5932 39.9068C57.4027 39.7164 57.1444 39.6094 56.875 39.6094H51.7969C51.5275 39.6094 51.2692 39.7164 51.0787 39.9068C50.8883 40.0973 50.7812 40.3556 50.7812 40.625V45.7031C50.7812 45.9725 50.8883 46.2308 51.0787 46.4213C51.2692 46.6117 51.5275 46.7188 51.7969 46.7188ZM52.8125 41.6406H55.8594V44.6875H52.8125V41.6406Z" fill="#B16554"/>
<path d="M8.125 44.6875H6.09375V46.7188H8.125V44.6875Z" fill="#B16554"/>
<path d="M12.1875 44.6875H10.1562V46.7188H12.1875V44.6875Z" fill="#B16554"/>
<path d="M30.4688 44.6875H28.4375V46.7188H30.4688V44.6875Z" fill="#B16554"/>
<path d="M34.5312 44.6875H32.5V46.7188H34.5312V44.6875Z" fill="#B16554"/>
<path d="M7.10949 23.2753C7.10949 23.3027 7.10949 23.3312 7.10949 23.3596C7.10949 24.437 7.53751 25.4704 8.29937 26.2322C9.06124 26.9941 10.0946 27.4221 11.172 27.4221C12.2494 27.4221 13.2827 26.9941 14.0446 26.2322C14.8065 25.4704 15.2345 24.437 15.2345 23.3596C16.2287 23.3583 17.1879 22.9931 17.9313 22.333C18.6747 21.6729 19.1507 20.7635 19.2696 19.7765C20.6467 20.2723 22.1234 20.4277 23.5735 20.2293C25.0237 20.0308 26.4044 19.4845 27.5977 18.6369C27.867 19.8071 28.476 20.8716 29.3481 21.6968C30.2203 22.522 31.3169 23.0712 32.5001 23.2753C32.5001 23.3027 32.5001 23.3312 32.5001 23.3596C32.5001 24.437 32.9281 25.4704 33.69 26.2322C34.4519 26.9941 35.4852 27.4221 36.5626 27.4221C37.6401 27.4221 38.6734 26.9941 39.4352 26.2322C40.1971 25.4704 40.6251 24.437 40.6251 23.3596C41.6193 23.3583 42.5786 22.9931 43.322 22.333C44.0653 21.6729 44.5414 20.7635 44.6602 19.7765C45.6463 20.1316 46.6864 20.313 47.7345 20.3127C49.9984 20.305 52.1792 19.4595 53.8567 17.9392C53.8465 18.053 53.8282 18.1657 53.8282 18.2815C53.8281 18.8149 53.9348 19.3429 54.1421 19.8344C53.7081 20.1305 53.358 20.5339 53.126 21.0053C52.8939 21.4767 52.7876 22.0001 52.8176 22.5247C52.8475 23.0492 53.0126 23.5572 53.2968 23.9991C53.581 24.441 53.9746 24.802 54.4395 25.0468C54.9044 25.2917 55.4247 25.4122 55.9499 25.3966C56.4751 25.381 56.9873 25.2299 57.4369 24.9579C57.8864 24.6859 58.2579 24.3022 58.5154 23.8442C58.7729 23.3862 58.9076 22.8694 58.9064 22.344C58.9064 22.3013 58.9064 22.2587 58.9064 22.216C59.6327 22.0312 60.2936 21.6485 60.8152 21.1103C61.3369 20.5721 61.6989 19.8997 61.8609 19.1679C62.023 18.4361 61.9787 17.6737 61.733 16.9656C61.4873 16.2575 61.0499 15.6316 60.4694 15.1574C61.3003 14.1949 61.8093 12.9966 61.925 11.7303C62.0408 10.4641 61.7576 9.19334 61.115 8.09611C60.4725 6.99889 59.5028 6.13014 58.3418 5.61157C57.1808 5.093 55.8867 4.95059 54.6407 5.20429C53.6605 4.06435 52.4135 3.1845 51.0109 2.64306C49.6084 2.10162 48.0937 1.9154 46.6017 2.10098C45.1097 2.28656 43.6868 2.83818 42.4596 3.70672C41.2324 4.57527 40.239 5.73379 39.5679 7.07913C38.8112 6.52365 37.9155 6.18874 36.98 6.11159C36.0446 6.03444 35.106 6.21806 34.2686 6.64208C33.4312 7.06609 32.7278 7.71389 32.2363 8.51357C31.7448 9.31323 31.4846 10.2335 31.4845 11.1721C31.4845 11.2889 31.4845 11.4057 31.4997 11.5245C31.4845 11.5296 31.4723 11.5377 31.4581 11.5428C31.4581 11.4199 31.4845 11.295 31.4845 11.1721C31.4816 9.11581 30.7855 7.12055 29.5086 5.50876C28.2317 3.89697 26.4486 2.76281 24.4475 2.28958C22.4464 1.81634 20.3442 2.03167 18.4806 2.90076C16.617 3.76986 15.1009 5.24194 14.1772 7.07913C13.4206 6.52365 12.5249 6.18874 11.5894 6.11159C10.6539 6.03444 9.71542 6.21806 8.87802 6.64208C8.04062 7.06609 7.33713 7.71389 6.84565 8.51357C6.35417 9.31323 6.09395 10.2335 6.09387 11.1721C6.09387 11.2889 6.09387 11.4057 6.1091 11.5245C4.83423 11.9708 3.74396 12.8284 3.00988 13.9622C2.27581 15.0961 1.9396 16.4418 2.05418 17.7877C2.16876 19.1336 2.72762 20.4031 3.6428 21.3966C4.55798 22.39 5.77753 23.0509 7.10949 23.2753ZM59.922 11.1721C59.9213 11.8328 59.7594 12.4834 59.4504 13.0675C59.1414 13.6515 58.6946 14.1513 58.1487 14.5237C57.9895 14.6325 57.8646 14.7845 57.7886 14.9618C57.7126 15.139 57.6886 15.3343 57.7195 15.5247C57.7504 15.7151 57.8349 15.8927 57.9631 16.0368C58.0912 16.181 58.2578 16.2856 58.4432 16.3386C58.9158 16.4727 59.3232 16.7744 59.5892 17.1872C59.8553 17.6001 59.9618 18.0958 59.8886 18.5815C59.8155 19.0672 59.5679 19.5096 59.1921 19.8258C58.8163 20.1421 58.3381 20.3105 57.8471 20.2995H57.8308L57.6947 20.2823C57.5072 20.2635 57.3182 20.2973 57.1488 20.3799C56.9794 20.4625 56.8363 20.5906 56.7355 20.7498C56.6348 20.9091 56.5803 21.0932 56.5782 21.2817C56.5762 21.4701 56.6266 21.6554 56.7238 21.8169C56.8392 22.0046 56.8905 22.2248 56.8698 22.4442C56.8492 22.6636 56.7577 22.8703 56.6092 23.0332C56.4608 23.196 56.2633 23.3062 56.0468 23.347C55.8302 23.3878 55.6063 23.3571 55.4087 23.2594C55.2111 23.1618 55.0507 23.0025 54.9516 22.8057C54.8525 22.6089 54.8201 22.3851 54.8593 22.1683C54.8984 21.9514 55.0071 21.7532 55.1689 21.6035C55.3306 21.4538 55.5367 21.3608 55.7559 21.3385C55.9432 21.3192 56.1215 21.2482 56.2707 21.1334C56.42 21.0186 56.5344 20.8646 56.6012 20.6885C56.668 20.5125 56.6846 20.3213 56.649 20.1364C56.6134 19.9515 56.5272 19.7801 56.3998 19.6414C56.0528 19.2716 55.8596 18.7835 55.8596 18.2764C55.8596 17.7693 56.0528 17.2812 56.3998 16.9114C56.5309 16.7688 56.6185 16.5917 56.6523 16.401C56.686 16.2103 56.6645 16.0139 56.5903 15.8349C56.5162 15.656 56.3923 15.5021 56.2335 15.3912C56.0747 15.2803 55.8875 15.2172 55.694 15.2092C54.8996 15.1751 54.1328 14.9083 53.489 14.4418C52.8451 13.9754 52.3526 13.3299 52.0728 12.5858C51.7929 11.8416 51.738 11.0316 51.9149 10.2564C52.0918 9.4813 52.4927 8.77529 53.0677 8.22624C53.6428 7.67718 54.3665 7.30931 55.149 7.16838C55.9315 7.02746 56.7381 7.1197 57.4686 7.43364C58.199 7.74758 58.821 8.26936 59.2573 8.93406C59.6935 9.59876 59.9247 10.377 59.922 11.1721ZM32.8414 13.2704C32.9827 13.2466 33.1175 13.1931 33.2367 13.1135C33.3559 13.0339 33.457 12.9299 33.5331 12.8085C33.6093 12.687 33.6589 12.5508 33.6787 12.4088C33.6984 12.2668 33.6879 12.1222 33.6478 11.9846C33.5649 11.7215 33.5204 11.4479 33.5157 11.1721C33.5159 10.519 33.7259 9.88332 34.1148 9.35865C34.5037 8.83399 35.0508 8.44815 35.6756 8.25802C36.3003 8.0679 36.9697 8.08354 37.5849 8.30265C38.2001 8.52176 38.7286 8.93274 39.0925 9.47499C39.2004 9.63494 39.3516 9.76085 39.5285 9.83799C39.7053 9.91513 39.9004 9.9403 40.091 9.91058C40.2817 9.88085 40.4599 9.79744 40.6048 9.67012C40.7498 9.5428 40.8554 9.37683 40.9095 9.19163C41.3441 7.71632 42.2428 6.42049 43.4723 5.49653C44.7018 4.57257 46.1965 4.06975 47.7345 4.06273C49.5547 4.05887 51.3056 4.76032 52.6197 6.01984C51.7458 6.56475 51.0253 7.32334 50.526 8.22401C50.0267 9.12469 49.7652 10.1377 49.7661 11.1675C49.7671 12.1973 50.0304 13.2099 50.5312 14.1097C51.0321 15.0095 51.754 15.7668 52.6288 16.3101C51.4862 17.4086 50.0073 18.0908 48.4301 18.247C46.8528 18.4033 45.2689 18.0244 43.933 17.1714C43.7471 17.0526 43.5275 16.9977 43.3076 17.0148C43.0876 17.0319 42.8792 17.1201 42.7139 17.2662C42.5486 17.4122 42.4353 17.6082 42.3912 17.8243C42.3471 18.0405 42.3746 18.2651 42.4695 18.4643C42.5937 18.7243 42.6575 19.009 42.6564 19.2971C42.6564 19.8358 42.4424 20.3525 42.0614 20.7334C41.6805 21.1143 41.1638 21.3284 40.6251 21.3284C40.3163 21.3251 40.0125 21.2504 39.7375 21.11C39.5467 21.0146 39.3307 20.9817 39.1202 21.0159C38.9096 21.0502 38.7152 21.1498 38.5645 21.3007C38.4138 21.4517 38.3144 21.6462 38.2805 21.8568C38.2466 22.0674 38.2798 22.2833 38.3755 22.474C38.516 22.7483 38.5908 23.0515 38.5939 23.3596C38.5939 23.8983 38.3799 24.415 37.9989 24.7959C37.618 25.1768 37.1013 25.3909 36.5626 25.3909C36.0239 25.3909 35.5072 25.1768 35.1263 24.7959C34.7454 24.415 34.5314 23.8983 34.5314 23.3596C34.5322 23.1274 34.5759 22.8974 34.6604 22.6812C34.7182 22.5274 34.7378 22.3619 34.7177 22.1989C34.6975 22.0359 34.6381 21.8802 34.5445 21.7451C34.4509 21.6101 34.326 21.4998 34.1804 21.4237C34.0348 21.3476 33.873 21.3079 33.7087 21.308C33.6438 21.3062 33.5789 21.3131 33.5157 21.3284C32.4968 21.3308 31.5143 20.9497 30.7635 20.2608C30.0128 19.5718 29.5488 18.6256 29.4638 17.6103C29.3788 16.5949 29.6791 15.5847 30.3049 14.7806C30.9307 13.9765 31.8362 13.4374 32.8414 13.2704ZM7.45074 13.2704C7.59212 13.2466 7.72686 13.1931 7.84609 13.1135C7.96532 13.0339 8.06635 12.9299 8.14252 12.8085C8.2187 12.687 8.26829 12.5508 8.28805 12.4088C8.30781 12.2668 8.29728 12.1222 8.25715 11.9846C8.17423 11.7215 8.12976 11.4479 8.12512 11.1721C8.12529 10.519 8.33529 9.88332 8.72416 9.35865C9.11302 8.83399 9.66017 8.44815 10.2849 8.25802C10.9097 8.0679 11.579 8.08354 12.1943 8.30265C12.8095 8.52176 13.338 8.93274 13.7019 9.47499C13.8098 9.63494 13.961 9.76085 14.1378 9.83799C14.3147 9.91513 14.5098 9.9403 14.7004 9.91058C14.891 9.88085 15.0692 9.79744 15.2142 9.67012C15.3591 9.5428 15.4648 9.37683 15.5189 9.19163C15.9978 7.54959 17.0527 6.13525 18.49 5.20804C19.9274 4.28083 21.6508 3.90291 23.3443 4.14359C25.0377 4.38428 26.5876 5.22744 27.7097 6.51842C28.8318 7.80939 29.4508 9.46164 29.4532 11.1721C29.4478 11.7759 29.3673 12.3767 29.2136 12.9606C28.3925 13.7812 27.8255 14.8211 27.5804 15.9557C26.4612 17.1949 24.939 17.9973 23.2841 18.2205C21.6292 18.4436 19.9489 18.073 18.5414 17.1744C18.3554 17.0557 18.1359 17.0007 17.916 17.0178C17.696 17.0349 17.4876 17.1232 17.3223 17.2692C17.1569 17.4153 17.0436 17.6112 16.9995 17.8274C16.9554 18.0435 16.9829 18.2682 17.0779 18.4673C17.2019 18.7263 17.2661 19.0099 17.2657 19.2971C17.2657 19.8358 17.0517 20.3525 16.6708 20.7334C16.2899 21.1143 15.7732 21.3284 15.2345 21.3284C14.9257 21.3251 14.6219 21.2504 14.3468 21.11C14.1561 21.0146 13.9401 20.9817 13.7296 21.0159C13.519 21.0502 13.3246 21.1498 13.1739 21.3007C13.0232 21.4517 12.9238 21.6462 12.8899 21.8568C12.856 22.0674 12.8892 22.2833 12.9849 22.474C13.1254 22.7483 13.2001 23.0515 13.2032 23.3596C13.2032 23.8983 12.9892 24.415 12.6083 24.7959C12.2274 25.1768 11.7107 25.3909 11.172 25.3909C10.6333 25.3909 10.1166 25.1768 9.73568 24.7959C9.35475 24.415 9.14074 23.8983 9.14074 23.3596C9.14157 23.1274 9.1853 22.8974 9.26973 22.6812C9.32755 22.5274 9.34722 22.3619 9.32703 22.1989C9.30685 22.0359 9.24743 21.8802 9.15385 21.7451C9.06028 21.6101 8.93535 21.4998 8.78979 21.4237C8.64422 21.3476 8.48236 21.3079 8.31809 21.308C8.25315 21.3062 8.18826 21.3131 8.12512 21.3284C7.10619 21.3308 6.12367 20.9497 5.37291 20.2608C4.62215 19.5718 4.15816 18.6256 4.07318 17.6103C3.9882 16.5949 4.28847 15.5847 4.91427 14.7806C5.54008 13.9765 6.44559 13.4374 7.45074 13.2704Z" fill="#B16554"/>
</svg>
