<svg width="55" height="55" viewBox="0 0 55 55" fill="none" xmlns="http://www.w3.org/2000/svg">
<g clip-path="url(#clip0_269_1850)">
<path d="M17.7054 6.9737L19.1239 4.68203C20.0192 3.27074 21.2566 2.10851 22.7211 1.30322C24.1856 0.497926 25.8298 0.0756836 27.5011 0.0756836C29.1724 0.0756836 30.8167 0.497926 32.2812 1.30322C33.7457 2.10851 34.983 3.27074 35.8783 4.68203L40.7619 12.4462L43.8739 10.3218C44.4352 9.93877 45.0973 9.73063 45.7767 9.72369C46.4562 9.71675 47.1224 9.91133 47.6913 10.2828C48.2602 10.6543 48.7063 11.1861 48.9731 11.811C49.24 12.4359 49.3157 13.1258 49.1906 13.7937L47.5039 22.8297C47.3083 23.8808 46.7522 24.8307 45.9315 25.5159C45.1108 26.2011 44.0768 26.5786 43.0077 26.5835C42.7098 26.5835 33.1535 24.7318 33.1535 24.7318C32.4891 24.6007 31.8782 24.2762 31.3975 23.7992C30.9168 23.3221 30.5878 22.7137 30.4517 22.0502C30.3156 21.3868 30.3785 20.698 30.6325 20.0702C30.8865 19.4424 31.3202 18.9036 31.8794 18.5214L35.0762 16.3375L30.0346 8.33266C29.7691 7.90223 29.3983 7.54647 28.9573 7.29891C28.5163 7.05134 28.0196 6.92012 27.5139 6.9176C27.0081 6.91508 26.5101 7.04134 26.0666 7.28449C25.6232 7.52765 25.2489 7.87969 24.9791 8.30745L23.556 10.5991C23.318 10.9833 23.0066 11.3168 22.6397 11.5806C22.2727 11.8444 21.8574 12.0334 21.4174 12.1367C20.9775 12.24 20.5215 12.2557 20.0755 12.1827C19.6294 12.1098 19.2022 11.9498 18.818 11.7117C18.4338 11.4737 18.1003 11.1623 17.8365 10.7954C17.5727 10.4284 17.3837 10.0131 17.2804 9.57314C17.1771 9.13317 17.1615 8.67717 17.2344 8.23115C17.3073 7.78514 17.4674 7.35786 17.7054 6.9737ZM53.5173 33.1422L52.1927 31.0087C51.9575 30.6196 51.6475 30.2811 51.2806 30.0126C50.9137 29.7442 50.4972 29.5512 50.0553 29.4448C49.6133 29.3384 49.1546 29.3207 48.7057 29.3928C48.2568 29.4649 47.8267 29.6253 47.4403 29.8648C47.0538 30.1042 46.7187 30.4179 46.4543 30.7878C46.19 31.1576 46.0016 31.5762 45.9001 32.0194C45.7986 32.4625 45.786 32.9214 45.863 33.3694C45.9401 33.8174 46.1052 34.2458 46.3489 34.6295L47.6735 36.7654C47.9498 37.2144 48.1012 37.7291 48.1119 38.2563C48.1227 38.7834 47.9925 39.3039 47.7349 39.7639C47.4772 40.2239 47.1013 40.6067 46.6462 40.8728C46.191 41.139 45.6731 41.2787 45.1458 41.2777H34.375V37.8127C34.3759 37.1429 34.1811 36.4874 33.8146 35.9268C33.448 35.3662 32.9257 34.9249 32.3118 34.6571C31.6978 34.3894 31.019 34.3068 30.3588 34.4195C29.6986 34.5323 29.0857 34.8355 28.5954 35.2918L22.2291 41.2318C21.7388 41.6555 21.3439 42.1783 21.0705 42.7658C20.7971 43.3533 20.6513 43.9921 20.6429 44.6401C20.6344 45.288 20.7635 45.9304 21.0215 46.5248C21.2795 47.1192 21.6607 47.6522 22.1398 48.0885L28.5977 54.0835C29.088 54.5391 29.7007 54.8416 30.3606 54.9539C31.0204 55.0663 31.6987 54.9835 32.3122 54.7158C32.9257 54.4482 33.4477 54.0072 33.8141 53.4471C34.1805 52.8869 34.3755 52.232 34.375 51.5627V48.1527H45.1458C46.8991 48.1555 48.6212 47.6897 50.134 46.8034C51.6467 45.9171 52.8951 44.6425 53.7498 43.1117C54.6045 41.5808 55.0344 39.8494 54.9952 38.0966C54.9559 36.3437 54.4488 34.6333 53.5264 33.1422H53.5173ZM18.5625 19.2066C18.448 18.6124 18.2174 18.0466 17.884 17.5416C17.5505 17.0366 17.1207 16.6023 16.6192 16.2636C16.1177 15.925 15.5543 15.6885 14.9613 15.5679C14.3683 15.4473 13.7573 15.4448 13.1633 15.5606L4.21207 17.3229C3.54705 17.4536 2.93551 17.7779 2.45432 18.2552C1.97312 18.7324 1.64374 19.3413 1.50758 20.0052C1.37141 20.6691 1.43455 21.3585 1.68904 21.9866C1.94353 22.6148 2.37802 23.1537 2.9379 23.5356L6.1004 25.6943L1.48498 33.1422C0.551069 34.6253 0.0365762 36.3337 -0.00377654 38.0858C-0.0441293 39.8379 0.391167 41.5682 1.25582 43.0927C2.10409 44.6397 3.35639 45.9275 4.87915 46.8186C6.40192 47.7098 8.13802 48.1708 9.90227 48.1527L12.6385 48.1252C13.5502 48.116 14.4209 47.7451 15.0591 47.094C15.6973 46.4429 16.0508 45.565 16.0416 44.6533C16.0325 43.7416 15.6616 42.8709 15.0105 42.2327C14.3594 41.5945 13.4815 41.241 12.5698 41.2502L9.85415 41.2777C9.32714 41.2777 8.80965 41.1371 8.35513 40.8704C7.9006 40.6037 7.52551 40.2204 7.26858 39.7603C7.01165 39.3002 6.88219 38.7798 6.89357 38.2529C6.90495 37.726 7.05676 37.2117 7.33332 36.7631L11.7883 29.5764L14.9325 31.7237C15.4935 32.1065 16.1554 32.3145 16.8346 32.3215C17.5137 32.3285 18.1797 32.1341 18.7485 31.7629C19.3173 31.3917 19.7634 30.8604 20.0305 30.2359C20.2975 29.6114 20.3736 28.9218 20.2491 28.2541L18.5625 19.2066Z" fill="#757F4D"/>
</g>
<defs>
<clipPath id="clip0_269_1850">
<rect width="55" height="55" fill="white"/>
</clipPath>
</defs>
</svg>

