<svg width="70" height="70" viewBox="0 0 70 70" fill="none" xmlns="http://www.w3.org/2000/svg">
<path d="M34.8438 24.6701C36.31 24.6701 37.7433 24.2353 38.9624 23.4207C40.1815 22.6062 41.1316 21.4484 41.6927 20.0938C42.2538 18.7392 42.4006 17.2487 42.1146 15.8107C41.8285 14.3727 41.1225 13.0518 40.0857 12.015C39.049 10.9783 37.7281 10.2722 36.2901 9.9862C34.8521 9.70016 33.3615 9.84696 32.0069 10.408C30.6524 10.9691 29.4946 11.9193 28.68 13.1384C27.8654 14.3575 27.4307 15.7907 27.4307 17.2569C27.4329 19.2223 28.2147 21.1066 29.6044 22.4963C30.9942 23.8861 32.8784 24.6678 34.8438 24.6701ZM34.8438 12.0313C35.8774 12.0313 36.8877 12.3377 37.7471 12.9119C38.6064 13.4861 39.2762 14.3023 39.6717 15.2571C40.0672 16.212 40.1707 17.2627 39.9691 18.2764C39.7674 19.2901 39.2698 20.2212 38.5389 20.952C37.8081 21.6828 36.877 22.1805 35.8633 22.3822C34.8496 22.5838 33.7989 22.4803 32.8441 22.0848C31.8892 21.6893 31.0731 21.0195 30.4988 20.1601C29.9246 19.3008 29.6182 18.2905 29.6182 17.2569C29.6198 15.8715 30.1708 14.5432 31.1505 13.5636C32.1301 12.5839 33.4584 12.0328 34.8438 12.0313Z" fill="#757F4D"/>
<path d="M59.0609 40.4688C59.0613 40.4085 59.0567 40.3484 59.0472 40.289L56.8597 27.164C56.8171 26.9086 56.6854 26.6767 56.488 26.5093C56.2905 26.342 56.0401 26.2501 55.7812 26.25H44.1558C46.0991 22.4984 47.6558 18.6581 47.6558 16.0937C47.6558 12.6956 46.3059 9.43674 43.9031 7.03393C41.5003 4.63113 38.2414 3.28125 34.8433 3.28125C31.4452 3.28125 28.1863 4.63113 25.7835 7.03393C23.3807 9.43674 22.0309 12.6956 22.0309 16.0937C22.0309 18.658 23.5879 22.4983 25.5309 26.25H14.2188C13.9598 26.25 13.7093 26.3419 13.5118 26.5092C13.3142 26.6766 13.1825 26.9086 13.1399 27.164L10.9524 40.289C10.9429 40.3484 10.9383 40.4085 10.9387 40.4688H10.9375V42.4858C10.9389 43.4703 11.2594 44.428 11.851 45.215C12.4425 46.002 13.2733 46.5761 14.2188 46.8511V65.625C14.2188 65.9151 14.334 66.1933 14.5391 66.3984C14.7442 66.6035 15.0224 66.7188 15.3125 66.7188H54.6875C54.9776 66.7188 55.2558 66.6035 55.4609 66.3984C55.666 66.1933 55.7812 65.9151 55.7812 65.625V46.8511C56.7267 46.5761 57.5574 46.002 58.149 45.215C58.7406 44.428 59.0611 43.4703 59.0625 42.4858V40.4688H59.0609ZM56.6776 39.375H51.4062V28.4375H54.8547L56.6776 39.375ZM49.2188 28.4375V39.375H43.75V28.4375H49.2188ZM41.5625 39.375H28.4375V31.3906C29.8718 33.7449 31.2229 35.7383 32.0879 36.8981C32.4078 37.3273 32.8235 37.6759 33.302 37.9161C33.7805 38.1563 34.3084 38.2813 34.8438 38.2813C35.3792 38.2813 35.9071 38.1563 36.3856 37.9161C36.8641 37.6759 37.2798 37.3273 37.5997 36.8981C38.5272 35.6539 40.0138 33.4528 41.5625 30.8742V39.375ZM26.25 39.375H20.7812V28.4375H26.25V39.375ZM20.7812 41.5625H26.25V42.4858C26.2493 43.1109 26.0007 43.7103 25.5586 44.1524C25.1165 44.5944 24.5172 44.8431 23.892 44.8438H23.1392C22.5141 44.8431 21.9147 44.5944 21.4726 44.1524C21.0306 43.7103 20.7819 43.1109 20.7812 42.4858V41.5625ZM28.4375 41.5625H33.9062V42.4858C33.9056 43.1109 33.6569 43.7103 33.2149 44.1524C32.7728 44.5944 32.1734 44.8431 31.5483 44.8438H30.7955C30.1703 44.8431 29.571 44.5944 29.1289 44.1524C28.6868 43.7103 28.4382 43.1109 28.4375 42.4858V41.5625ZM36.0938 41.5625H41.5625V42.4858C41.5618 43.1109 41.3132 43.7103 40.8711 44.1524C40.429 44.5944 39.8297 44.8431 39.2045 44.8438H38.4517C37.8266 44.8431 37.2272 44.5944 36.7852 44.1524C36.3431 43.7103 36.0944 43.1109 36.0938 42.4858V41.5625ZM43.75 41.5625H49.2188V42.4858C49.2181 43.1109 48.9694 43.7103 48.5274 44.1524C48.0853 44.5944 47.4859 44.8431 46.8608 44.8438H46.108C45.4828 44.8431 44.8835 44.5944 44.4414 44.1524C43.9993 43.7103 43.7507 43.1109 43.75 42.4858V41.5625ZM34.8437 5.46875C37.6607 5.47186 40.3614 6.59227 42.3533 8.58417C44.3452 10.5761 45.4656 13.2768 45.4687 16.0937C45.4687 18.0139 44.2073 21.4625 41.917 25.8042C39.7302 29.9495 37.2798 33.6667 35.8457 35.5906C35.7295 35.7468 35.5783 35.8736 35.4043 35.9609C35.2303 36.0483 35.0383 36.0938 34.8437 36.0938C34.649 36.0938 34.457 36.0483 34.283 35.9609C34.109 35.8736 33.9579 35.7468 33.8416 35.5906C32.4075 33.6669 29.9571 29.9496 27.7704 25.8043C25.4801 21.4627 24.2188 18.0141 24.2188 16.0938C24.2218 13.2769 25.3422 10.5761 27.3341 8.58421C29.326 6.59229 32.0267 5.47186 34.8437 5.46875ZM15.1453 28.4375H18.5938V39.375H13.3224L15.1453 28.4375ZM13.125 42.4858V41.5625H18.5938V42.4858C18.5931 43.1109 18.3444 43.7103 17.9024 44.1524C17.4603 44.5944 16.8609 44.8431 16.2358 44.8438H15.483C14.8578 44.8431 14.2585 44.5944 13.8164 44.1524C13.3743 43.7103 13.1257 43.1109 13.125 42.4858ZM41.5625 64.5312H28.4375V53.5938H41.5625V64.5312ZM43.75 64.5312V52.5C43.75 52.2099 43.6348 51.9317 43.4296 51.7266C43.2245 51.5215 42.9463 51.4062 42.6562 51.4062H27.3438C27.0537 51.4062 26.7755 51.5215 26.5704 51.7266C26.3652 51.9317 26.25 52.2099 26.25 52.5V64.5312H16.4062V47.0269C17.0333 47.0034 17.6487 46.8501 18.2135 46.5767C18.7783 46.3032 19.2802 45.9156 19.6875 45.4382C20.1133 45.9377 20.6425 46.3388 21.2384 46.6138C21.8344 46.8888 22.4829 47.0313 23.1392 47.0312H23.892C24.5483 47.0313 25.1969 46.8889 25.7928 46.6139C26.3888 46.3388 26.9179 45.9378 27.3438 45.4383C27.7696 45.9378 28.2987 46.3388 28.8947 46.6139C29.4906 46.8889 30.1392 47.0313 30.7955 47.0312H31.5483C32.2046 47.0313 32.8531 46.8889 33.4491 46.6139C34.045 46.3388 34.5742 45.9378 35 45.4383C35.4258 45.9378 35.955 46.3388 36.5509 46.6139C37.1469 46.8889 37.7954 47.0313 38.4517 47.0312H39.2045C39.8608 47.0313 40.5094 46.8889 41.1053 46.6139C41.7013 46.3388 42.2304 45.9378 42.6562 45.4383C43.0821 45.9378 43.6112 46.3388 44.2072 46.6139C44.8031 46.8889 45.4517 47.0313 46.108 47.0312H46.8608C47.5171 47.0313 48.1656 46.8889 48.7616 46.6139C49.3575 46.3388 49.8867 45.9378 50.3125 45.4383C50.7198 45.9157 51.2217 46.3033 51.7865 46.5768C52.3513 46.8503 52.9667 47.0036 53.5938 47.027V64.5312H43.75ZM54.517 44.8438H53.7642C53.1391 44.8431 52.5397 44.5944 52.0976 44.1524C51.6556 43.7103 51.4069 43.1109 51.4062 42.4858V41.5625H56.875V42.4858C56.8743 43.1109 56.6257 43.7103 56.1836 44.1524C55.7415 44.5944 55.1422 44.8431 54.517 44.8438Z" fill="#757F4D"/>
</svg>

