<svg width="60" height="60" viewBox="0 0 60 60" fill="none" xmlns="http://www.w3.org/2000/svg">
<g clip-path="url(#clip0_269_1910)">
<path d="M19.5936 51.5237C19.1002 51.9425 19.0399 52.6821 19.4587 53.1754C19.8775 53.6688 20.6171 53.7291 21.1105 53.3103C21.6038 52.8915 21.6642 52.1519 21.2454 51.6585C20.8265 51.1652 20.087 51.1048 19.5936 51.5237Z" fill="#B16554"/>
<path d="M34.9371 34.2905L32.9052 33.2637L32.3652 31.2485C32.2613 30.861 31.9667 30.5534 31.5841 30.4328C31.2012 30.3121 30.7836 30.3953 30.4765 30.6532L25.2842 35.01C23.6285 33.4405 21.5083 32.4795 19.2015 32.2776C16.5006 32.0405 13.8697 32.8705 11.7933 34.6129L3.62658 41.4656C1.55084 43.2073 0.277008 45.6543 0.0394689 48.3565C-0.196781 51.0565 0.633258 53.6874 2.37642 55.7646C4.38115 58.1537 7.26045 59.3856 10.1592 59.3855C12.4618 59.3854 14.7768 58.6079 16.6745 57.0156L17.0121 56.7321C17.5087 56.3153 17.5736 55.5748 17.1568 55.078C16.74 54.5813 15.9996 54.5167 15.5027 54.9333L15.1651 55.2167C11.8699 57.9813 6.94005 57.5502 4.17513 54.2551C2.83509 52.6583 2.19713 50.6359 2.37865 48.5613C2.56123 46.4842 3.54033 44.603 5.13584 43.2642L13.3025 36.4115C14.8985 35.0724 16.9211 34.4354 18.9967 34.6166C20.6775 34.7638 22.2302 35.4339 23.4715 36.5308L22.3095 37.5058C21.9132 37.8382 21.5376 38.0304 21.2836 38.1093C19.3707 36.7758 16.7925 36.8701 14.9706 38.3992L6.80377 45.252C4.60486 47.0971 4.31728 50.3876 6.16298 52.587C7.19119 53.8124 8.66822 54.4444 10.1551 54.4443C11.3362 54.4443 12.5237 54.0455 13.4972 53.2287L21.664 46.3759C22.0651 46.0391 22.4073 45.6525 22.6862 45.2215C23.8574 44.9602 24.9732 44.4908 25.9811 43.8387C25.6748 45.4655 24.8607 46.9539 23.6406 48.0907C23.1661 48.5327 23.1398 49.2756 23.5819 49.7501C23.8131 49.9983 24.1267 50.1239 24.4411 50.1239C24.7277 50.1239 25.0149 50.0196 25.2411 49.8088C27.0774 48.098 28.209 45.7766 28.4271 43.2742C28.4686 42.8076 28.4748 42.3372 28.451 41.8688L35.1622 36.2374C35.4646 35.9838 35.6192 35.5952 35.5739 35.2033C35.5285 34.8115 35.2892 34.4685 34.9371 34.2905ZM11.9877 51.4302C10.7805 52.4431 8.97455 52.2849 7.96158 51.0779C7.47185 50.4942 7.23877 49.7533 7.30533 48.9915C7.37177 48.2297 7.72966 47.5406 8.31302 47.051L13.5031 42.696C15.0648 44.1764 17.0404 45.1135 19.1935 45.3838L11.9877 51.4302ZM25.4861 41.2916C24.4124 42.1924 23.1184 42.7879 21.7439 43.0133C21.733 43.0152 20.4322 43.1431 19.7918 43.0863C18.1117 42.94 16.559 42.2705 15.3178 41.1735L16.4799 40.1983C16.4799 40.1983 16.4802 40.198 16.4804 40.1979C17.5542 39.2974 19.1059 39.3035 20.1699 40.2131C20.3559 40.3719 20.5869 40.4688 20.8305 40.4902C22.1172 40.6029 23.3495 39.6987 23.8189 39.3047L30.574 33.6366L30.7729 34.3787C30.8594 34.7015 31.0793 34.9719 31.3775 35.1226L32.289 35.5833L25.4861 41.2916Z" fill="#B16554"/>
<path d="M58.635 5.68717C55.837 0.840996 49.6179 -0.825761 44.7713 1.97256L35.5387 7.30295C33.1902 8.65881 31.5111 10.8475 30.8109 13.4641C30.6891 13.9163 30.6013 14.3785 30.5434 14.8437L22.9563 19.2242C22.6122 19.423 22.3918 19.7821 22.3708 20.1789C22.3498 20.5757 22.531 20.9563 22.8522 21.1901L24.675 22.5173L24.8438 24.6149C24.8761 25.0163 25.1119 25.3731 25.4683 25.5603C25.6394 25.6502 25.8268 25.6949 26.014 25.6949C26.217 25.6949 26.4197 25.6423 26.601 25.5377L32.4709 22.1487C33.829 23.9819 35.7501 25.2964 37.9868 25.8959C38.8615 26.1303 39.7489 26.2462 40.6308 26.2462C42.3891 26.2462 44.1247 25.7851 45.688 24.8825L54.9207 19.5521C57.2673 18.1972 58.9469 16.0085 59.6499 13.3887C60.3514 10.7709 59.991 8.03572 58.635 5.68717ZM26.9725 21.7915C26.9451 21.4503 26.77 21.138 26.4932 20.9365L25.6943 20.3548L32.2387 16.5765C32.2456 16.5725 32.2526 16.5686 32.2594 16.5645L33.3629 15.9275C34.5768 15.2266 35.9576 14.8644 37.3472 14.8818C37.3588 14.8821 37.3703 14.8818 37.3819 14.8817C38.0236 14.8922 38.6623 14.9819 39.2825 15.1489C40.9116 15.5848 42.3244 16.5138 43.3564 17.8096L42.0425 18.5682C42.0418 18.5685 42.0412 18.5689 42.0405 18.5694C40.8271 19.2685 39.3009 18.993 38.4108 17.9128C38.2553 17.7241 38.0448 17.5886 37.8086 17.5253C36.5596 17.191 35.1904 17.8674 34.6596 18.1738L32.2537 19.5629C32.2537 19.5629 32.2536 19.5629 32.2534 19.563C32.2533 19.5631 32.2533 19.5631 32.2532 19.5631L27.0353 22.5756L26.9725 21.7915ZM40.2706 12.9902L48.417 8.28686C49.0766 7.906 49.8463 7.80498 50.585 8.00303C51.3234 8.20084 51.9398 8.67311 52.3206 9.33287C52.7015 9.99275 52.8024 10.7629 52.6047 11.5017C52.4069 12.2404 51.9348 12.8568 51.2753 13.2376L45.4079 16.6252C44.127 14.896 42.3441 13.6304 40.2706 12.9902ZM57.382 12.7805C56.8416 14.7944 55.5505 16.477 53.7467 17.5184L44.5141 22.8488C42.7098 23.8905 40.6074 24.1669 38.5947 23.6276C36.965 23.1909 35.5523 22.2612 34.5203 20.9655L35.8339 20.2072C36.282 19.9485 36.6852 19.8244 36.9489 19.7908C38.6014 21.4363 41.157 21.7907 43.2166 20.6015L52.4493 15.271C53.6522 14.5767 54.5129 13.4535 54.873 12.1088C55.2329 10.7643 55.0486 9.36147 54.3542 8.15865C53.6597 6.95572 52.537 6.09498 51.1927 5.73475C49.8482 5.37428 48.4455 5.5585 47.2429 6.25307L38.01 11.5836C37.5564 11.8455 37.1522 12.1668 36.8029 12.5429C35.6036 12.5969 34.4225 12.8656 33.3159 13.3333C33.9483 11.6494 35.1337 10.2479 36.7128 9.33627L45.9454 4.00588C49.6704 1.85525 54.4507 3.13611 56.6015 6.86104C57.6437 8.66666 57.9209 10.769 57.382 12.7805Z" fill="#B16554"/>
<path d="M11.4697 19.395C11.6971 19.6121 11.9889 19.7199 12.2804 19.7199C12.5899 19.7199 12.899 19.5983 13.1296 19.3566C13.5775 18.8877 13.5603 18.1445 13.0913 17.6967L10.8014 15.5101C10.3322 15.0623 9.58928 15.0792 9.14139 15.5484C8.6935 16.0174 8.71073 16.7606 9.17971 17.2084L11.4697 19.395Z" fill="#B16554"/>
<path d="M6.20823 26.7557L8.93343 27.8593C9.07792 27.9178 9.2271 27.9455 9.37382 27.9455C9.83788 27.9455 10.2776 27.6684 10.4624 27.2118C10.7058 26.6108 10.4159 25.9262 9.81491 25.6829L7.08972 24.5793C6.48831 24.3359 5.80405 24.6259 5.56077 25.2268C5.31737 25.8278 5.60729 26.5125 6.20823 26.7557Z" fill="#B16554"/>
<path d="M18.975 14.6195C19.1995 14.9678 19.5772 15.1576 19.963 15.1576C20.1808 15.1576 20.4013 15.097 20.5979 14.9702C21.1429 14.6189 21.3 13.8923 20.9487 13.3473L19.3559 10.8761C19.0047 10.3311 18.2783 10.1739 17.7329 10.5253C17.188 10.8766 17.0309 11.6032 17.3822 12.1482L18.975 14.6195Z" fill="#B16554"/>
<path d="M47.3424 37.5706C46.8733 37.1228 46.1303 37.1398 45.6824 37.6089C45.2345 38.0779 45.2517 38.8211 45.7207 39.2689L48.0107 41.4555C48.2381 41.6726 48.5299 41.7804 48.8214 41.7804C49.1309 41.7804 49.44 41.6588 49.6706 41.4171C50.1185 40.9482 50.1013 40.205 49.6323 39.7572L47.3424 37.5706Z" fill="#B16554"/>
<path d="M52.6034 30.2097L49.8783 29.1062C49.277 28.8628 48.5928 29.1527 48.3494 29.7536C48.106 30.3547 48.3958 31.0392 48.9968 31.2826L51.7219 32.3861C51.8664 32.4446 52.0156 32.4724 52.1623 32.4724C52.6264 32.4724 53.0659 32.1952 53.2508 31.7387C53.4942 31.1376 53.2044 30.4531 52.6034 30.2097Z" fill="#B16554"/>
<path d="M39.8368 42.3464C39.4856 41.8014 38.759 41.644 38.214 41.9956C37.669 42.3469 37.5118 43.0735 37.8631 43.6184L39.456 46.0898C39.6805 46.4382 40.0582 46.628 40.444 46.628C40.6617 46.628 40.8822 46.5674 41.0788 46.4406C41.6238 46.0893 41.781 45.3627 41.4296 44.8178L39.8368 42.3464Z" fill="#B16554"/>
</g>
<defs>
<clipPath id="clip0_269_1910">
<rect width="60" height="60" fill="white"/>
</clipPath>
</defs>
</svg>

