<svg width="60" height="60" viewBox="0 0 60 60" fill="none" xmlns="http://www.w3.org/2000/svg">
<g clip-path="url(#clip0_269_1924)">
<path d="M18.7371 46.8695C18.7368 46.8695 18.7366 46.8695 18.7364 46.8695L13.4319 46.8733C13.4316 46.8733 13.4313 46.8733 13.431 46.8733C12.9042 46.8733 12.647 46.5175 12.561 46.3644C12.4748 46.2113 12.304 45.8065 12.5781 45.356L14.3897 42.3777L14.772 43.9472C14.8763 44.3757 15.2598 44.663 15.6821 44.663C15.7555 44.663 15.8302 44.6543 15.9047 44.6362C16.4078 44.5136 16.7163 44.0065 16.5937 43.5035L15.6775 39.7415C15.6186 39.4999 15.4662 39.2915 15.2538 39.1623C15.0414 39.0332 14.7863 38.9938 14.5447 39.0524L10.7828 39.9687C10.2797 40.0912 9.97122 40.5984 10.0937 41.1014C10.2162 41.6044 10.7232 41.9129 11.2265 41.7905L12.7828 41.4114L10.9761 44.3816C10.4289 45.2812 10.4105 46.3662 10.9269 47.2839C11.4429 48.201 12.3789 48.7483 13.4311 48.7483H13.4332L18.7377 48.7445C19.2555 48.7441 19.675 48.3241 19.6746 47.8063C19.6742 47.2887 19.2546 46.8695 18.7371 46.8695Z" fill="#B16554"/>
<path d="M59.7113 41.8573C59.2365 39.0899 57.9643 36.4944 56.0322 34.3512C53.9771 32.0719 51.4975 29.9753 48.4353 27.9412C48.5043 27.7268 48.5423 27.4987 48.5423 27.2616V24.4429C48.5423 23.8722 48.3246 23.3526 47.9701 22.9582L50.3989 17.7172C50.6395 17.198 50.6425 16.6011 50.407 16.0795C50.1715 15.558 49.7218 15.1654 49.1732 15.0025L41.2882 12.6617C40.6063 12.4593 39.8658 12.6415 39.3558 13.1374C38.9044 13.5764 38.6941 14.2026 38.7787 14.8173C38.7103 14.8489 38.643 14.883 38.5777 14.9217L34.8271 17.1519C34.2725 17.4816 33.8887 18.0349 33.7741 18.6698C33.6594 19.3048 33.8256 19.9573 34.2298 20.4602L36.3408 23.086C36.0502 23.4622 35.8754 23.932 35.8754 24.4429V25.035C34.0186 23.3794 31.9302 21.7873 29.563 20.2239C29.6801 19.9315 29.7452 19.6128 29.7452 19.279V15.7502C29.7452 15.0406 29.4537 14.398 28.9844 13.9352L32.0915 7.23057C32.3638 6.64281 32.3671 5.96709 32.1005 5.37669C31.8339 4.78635 31.3248 4.34209 30.7039 4.15778L20.8324 1.22717C20.0489 0.994517 19.2311 1.19582 18.645 1.76568C18.0821 2.3131 17.8542 3.08364 18.0237 3.8436C17.8871 3.89534 17.7541 3.95766 17.627 4.03321L12.9313 6.82522C12.2958 7.20311 11.8561 7.83705 11.7247 8.56461C11.5934 9.29217 11.7838 10.0399 12.247 10.616L15.009 14.0518C14.6053 14.5032 14.3593 15.0984 14.3593 15.7502V19.279C14.3593 19.6126 14.4243 19.931 14.5412 20.2233C10.6525 22.791 7.51566 25.4358 4.92166 28.313C2.53271 30.9628 0.959777 34.1714 0.372924 37.5919C-0.178395 40.8054 0.135688 44.1539 1.2813 47.2755C2.43704 50.4248 4.38871 53.2104 6.9253 55.3314C9.62158 57.586 12.934 59.0313 16.5045 59.5114C18.3451 59.7589 20.1987 59.8826 22.0523 59.8826C23.9059 59.8826 25.7595 59.7589 27.6001 59.5114C29.4176 59.267 31.168 58.772 32.8045 58.0479C34.335 58.8268 36.0051 59.3495 37.7524 59.5845C39.2309 59.7833 40.7199 59.8827 42.2089 59.8827C43.6979 59.8827 45.1868 59.7833 46.6654 59.5845C49.5527 59.1963 52.2317 58.0271 54.4127 56.2034C56.4641 54.4881 58.0424 52.2354 58.9769 49.6889C59.9033 47.1646 60.1573 44.4565 59.7113 41.8573ZM38.1016 27.6127C37.9079 27.6127 37.7504 27.4552 37.7504 27.2616V24.4429C37.7504 24.2493 37.9079 24.0918 38.1016 24.0918H46.3162C46.5098 24.0918 46.6673 24.2493 46.6673 24.4429V27.2616C46.6673 27.4552 46.5098 27.6127 46.3162 27.6127H38.1016ZM40.6629 14.4817C40.7023 14.4434 40.7376 14.454 40.7546 14.4592L48.6395 16.8C48.6497 16.803 48.6805 16.8121 48.6981 16.8511C48.7157 16.89 48.7021 16.9192 48.6977 16.9288L46.2472 22.2168H42.6762L40.6378 14.5728C40.6332 14.5556 40.6237 14.5199 40.6629 14.4817ZM35.6192 19.003C35.6299 18.9441 35.6656 18.8348 35.7854 18.7636L39.2633 16.6955L40.7268 22.1835H38.021L35.6911 19.2854C35.6039 19.1768 35.6086 19.0618 35.6192 19.003ZM16.9101 19.9549C16.5374 19.9549 16.2343 19.6517 16.2343 19.279V15.7502C16.2343 15.3776 16.5374 15.0744 16.9101 15.0744H27.1944C27.567 15.0744 27.8702 15.3776 27.8702 15.7502V19.279C27.8702 19.6517 27.567 19.9549 27.1944 19.9549H16.9101ZM19.9522 3.10996C20.0076 3.05611 20.1263 2.9736 20.2988 3.02458L30.1704 5.95525C30.3051 5.99518 30.3668 6.09343 30.3916 6.14842C30.4165 6.20341 30.4493 6.3147 30.3903 6.44225L27.2589 13.1994H27.1944H22.4558L19.8571 3.4542C19.8107 3.28019 19.8968 3.16386 19.9522 3.10996ZM13.5699 8.89769C13.5904 8.7844 13.6591 8.57394 13.8895 8.4369L18.5123 5.68823L20.5042 13.1577H16.696L13.7083 9.44123C13.5403 9.23226 13.5495 9.01099 13.5699 8.89769ZM27.3502 57.6531C23.8347 58.1258 20.2697 58.1258 16.7542 57.6531C13.5352 57.2203 10.5523 55.9201 8.12801 53.893C5.84314 51.9825 4.08424 49.4708 3.04151 46.6295C0.847968 40.6525 2.07146 34.2746 6.3143 29.5685C8.86287 26.7417 11.9741 24.1399 15.8594 21.6025C16.18 21.7481 16.5356 21.8299 16.9101 21.8299H27.1944C27.569 21.8299 27.9246 21.748 28.2453 21.6024C31.2229 23.5471 33.7448 25.5301 35.9074 27.6229C35.9253 27.7317 35.9493 27.8383 35.9824 27.9412C32.9202 29.9753 30.4406 32.0719 28.3856 34.3512C28.1775 34.5821 27.9786 34.8192 27.786 35.0602L28.5784 32.1272C28.7135 31.6273 28.4178 31.1126 27.9179 30.9776C27.4182 30.8427 26.9034 31.1383 26.7683 31.6381L26.3579 33.1571L24.5515 30.1923C24.0259 29.3297 23.1091 28.8144 22.099 28.8139C22.0984 28.8139 22.098 28.8139 22.0975 28.8139C21.0881 28.8139 20.1713 29.3283 19.6452 30.1898L17.0561 34.4297C16.7863 34.8716 16.9258 35.4486 17.3676 35.7184C17.8095 35.9882 18.3864 35.8487 18.6563 35.4069L21.2454 31.167C21.5088 30.7357 21.9288 30.6889 22.0976 30.6889H22.098C22.2666 30.689 22.687 30.7359 22.9502 31.1679L24.7577 34.1345L23.1701 33.7055C22.6698 33.5701 22.1555 33.8661 22.0205 34.366C21.8854 34.8659 22.1811 35.3806 22.681 35.5156L26.4189 36.5256C26.5008 36.5476 26.583 36.5582 26.664 36.5582C26.6865 36.5582 26.7083 36.5543 26.7305 36.5527C25.7181 38.1838 25.0284 39.9807 24.7064 41.8573C24.2605 44.4565 24.5144 47.1646 25.4408 49.6889C26.3753 52.2354 27.9536 54.4881 30.0051 56.2034C30.264 56.4198 30.5303 56.6264 30.8027 56.8242C29.6949 57.2139 28.5389 57.4933 27.3502 57.6531ZM57.2167 49.0429C56.3952 51.2815 55.0097 53.2601 53.2099 54.765C51.3009 56.3613 48.9514 57.3852 46.4155 57.7262C43.6242 58.1015 40.7935 58.1015 38.0022 57.7262C35.4663 57.3852 33.1169 56.3613 31.2078 54.765C29.4081 53.2601 28.0225 51.2815 27.201 49.0429C25.4735 44.3357 26.437 39.3128 29.7782 35.6068C31.7848 33.3811 34.2309 31.3299 37.2819 29.3294C37.5359 29.4305 37.812 29.4877 38.1016 29.4877H46.3162C46.6058 29.4877 46.8818 29.4305 47.1358 29.3294C50.1868 31.3299 52.633 33.3811 54.6396 35.6068C57.9808 39.3128 58.9442 44.3357 57.2167 49.0429Z" fill="#B16554"/>
<path d="M45.7968 41.1164C46.21 41.1164 46.5884 40.8412 46.7013 40.4233L47.5139 37.4158C47.649 36.916 47.3532 36.4013 46.8534 36.2662C46.3534 36.1313 45.8388 36.4268 45.7038 36.9267L45.4849 37.737L44.2534 35.7159C43.7971 34.9669 43.0009 34.5194 42.1239 34.519C42.1234 34.519 42.123 34.519 42.1226 34.519C41.246 34.519 40.45 34.9656 39.9931 35.7138L37.91 39.1251C37.6401 39.567 37.7796 40.144 38.2215 40.4138C38.6633 40.6836 39.2404 40.5441 39.5102 40.1023L41.5933 36.691C41.757 36.4231 42.0178 36.394 42.1227 36.394H42.1229C42.2276 36.3941 42.4887 36.4232 42.6522 36.6915L43.8677 38.6865L43.0333 38.4611C42.5336 38.3262 42.0188 38.6217 41.8837 39.1216C41.7487 39.6214 42.0444 40.1361 42.5442 40.2712L45.5518 41.0838C45.6337 41.1059 45.7159 41.1164 45.7968 41.1164Z" fill="#B16554"/>
<path d="M48.9858 43.4879C48.7163 43.0458 48.1396 42.9057 47.6973 43.1751C47.2552 43.4445 47.1151 44.0213 47.3845 44.4635L49.6052 48.1083C49.7756 48.388 49.6698 48.6395 49.6163 48.7347C49.5629 48.8298 49.4032 49.0511 49.0756 49.0511H46.7131L47.3194 48.4448C47.6856 48.0787 47.6856 47.4851 47.3194 47.119C46.9533 46.7529 46.3597 46.7529 45.9936 47.119L43.7907 49.3219C43.4246 49.688 43.4246 50.2816 43.7907 50.6477L45.9936 52.8506C46.1766 53.0336 46.4166 53.1252 46.6565 53.1252C46.8964 53.1252 47.1364 53.0336 47.3194 52.8506C47.6856 52.4845 47.6856 51.8909 47.3194 51.5248L46.7208 50.9261H49.0756C49.99 50.9261 50.8033 50.4502 51.2511 49.6529C51.6989 48.8557 51.6822 47.9135 51.2064 47.1327L48.9858 43.4879Z" fill="#B16554"/>
<path d="M39.419 49.0461C39.4187 49.0461 39.4185 49.0461 39.4183 49.0461L35.1503 49.0492C35.1501 49.0492 35.15 49.0492 35.1497 49.0492C34.8226 49.0492 34.6629 48.8283 34.6094 48.7332C34.5559 48.638 34.4498 48.3866 34.62 48.1068L35.8478 46.0883L36.0507 46.9214C36.1551 47.35 36.5385 47.6373 36.9608 47.6373C37.0342 47.6373 37.1089 47.6286 37.1834 47.6104C37.6865 47.4879 37.995 46.9807 37.8725 46.4777L37.1352 43.4508C37.0126 42.9478 36.5055 42.639 36.0025 42.7618L32.9757 43.499C32.4726 43.6216 32.1641 44.1287 32.2866 44.6318C32.4091 45.1347 32.9161 45.4432 33.4193 45.3208L34.2419 45.1205L33.0181 47.1324C32.5429 47.9136 32.5269 48.8557 32.9753 49.6526C33.4233 50.449 34.2362 50.9242 35.1497 50.9242H35.1516L39.4197 50.9211C39.9374 50.9207 40.3569 50.5007 40.3565 49.983C40.3561 49.4654 39.9365 49.0461 39.419 49.0461Z" fill="#B16554"/>
<path d="M45.1172 11.7188C45.635 11.7188 46.0547 11.299 46.0547 10.7812V8.61328C46.0547 7.74096 46.7644 7.03125 47.6367 7.03125H47.9883C49.8945 7.03125 51.4453 5.4804 51.4453 3.57422C51.4453 2.70189 52.155 1.99219 53.0273 1.99219H54.2853C54.8031 1.99219 55.2228 1.57248 55.2228 1.05469C55.2228 0.5369 54.8031 0.117188 54.2853 0.117188H53.0273C51.1212 0.117188 49.5703 1.66803 49.5703 3.57422C49.5703 4.44654 48.8606 5.15625 47.9883 5.15625H47.6367C45.7305 5.15625 44.1797 6.7071 44.1797 8.61328V10.7812C44.1797 11.299 44.5994 11.7188 45.1172 11.7188Z" fill="#B16554"/>
<path d="M34.7773 3.75H37.8517C38.304 3.75 38.672 4.11798 38.672 4.57031V6.21094C38.672 6.66327 38.304 7.03125 37.8517 7.03125H37.7345C36.2483 7.03125 35.0392 8.24038 35.0392 9.72656V12.4219C35.0392 12.9397 35.4589 13.3594 35.9767 13.3594C36.4945 13.3594 36.9142 12.9397 36.9142 12.4219V9.72656C36.9142 9.27423 37.2822 8.90625 37.7345 8.90625H37.8517C39.3379 8.90625 40.547 7.69712 40.547 6.21094V4.57031C40.547 3.08413 39.3379 1.875 37.8517 1.875H34.7773C34.325 1.875 33.957 1.50702 33.957 1.05469C33.957 0.5369 33.5373 0.117188 33.0195 0.117188C32.5017 0.117188 32.082 0.5369 32.082 1.05469C32.082 2.54087 33.2912 3.75 34.7773 3.75Z" fill="#B16554"/>
<path d="M10.7812 1.99219H13.504V2.92969C13.504 3.44748 13.9237 3.86719 14.4415 3.86719C14.9593 3.86719 15.379 3.44748 15.379 2.92969V1.75781C15.379 0.853157 14.6431 0.117188 13.7384 0.117188H10.7812C10.2635 0.117188 9.84375 0.5369 9.84375 1.05469C9.84375 1.57248 10.2635 1.99219 10.7812 1.99219Z" fill="#B16554"/>
</g>
<defs>
<clipPath id="clip0_269_1924">
<rect width="60" height="60" fill="white"/>
</clipPath>
</defs>
</svg>
