<svg id="Capa_1" enable-background="new 0 0 512 512" height="512" viewBox="0 0 512 512" width="512" xmlns="http://www.w3.org/2000/svg"><g><path d="m259.61 139.305c-27.172-1.78-51.374 17.891-55.125 44.777-.334 2.388-.503 4.829-.503 7.255 0 8.284 6.716 15 15 15s15-6.716 15-15c0-1.043.072-2.088.215-3.108 1.591-11.405 11.886-19.746 23.452-18.989 10.928.716 19.769 9.489 20.564 20.407.77 10.567-6.048 20.261-16.209 23.05-12.291 3.373-20.876 14.62-20.876 27.352v18.755c0 8.284 6.716 15 15 15s15-6.716 15-15v-17.517c23.28-6.986 38.784-29.42 37.005-53.821-1.878-25.768-22.739-46.473-48.523-48.161z"/><circle cx="256.127" cy="309.892" r="15.002"/><path d="m512 254.738c0-34.375-19.146-65.584-49.417-81.616.757-4.806 1.139-9.695 1.139-14.616 0-50.902-41.413-92.314-92.315-92.314-3.557 0-7.089.228-10.589.631-17.402-24.996-45.753-39.862-76.269-39.862-20.984 0-41.058 6.987-57.375 19.829-15.368-10.501-33.69-16.208-52.434-16.208-17.74 0-34.991 5.021-49.886 14.518-12.814 8.171-23.397 19.31-30.876 32.44-21.968 2.053-42.328 11.776-57.852 27.747-16.944 17.434-26.276 40.426-26.276 64.742 0 8.22 1.081 16.361 3.217 24.264-8.562 14.542-13.067 31.087-13.067 48.145 0 52.361 42.599 94.961 94.961 94.961 6.558 0 13.044-.669 19.39-1.987 8.135 42.957 45.338 75.802 90.261 77.205 15.344.476 30.354-2.688 43.986-9.215l31.227 59.709c7.073 13.525 20.949 21.928 36.212 21.928 22.533 0 40.865-18.332 40.865-40.865v-34.11c36.275-4.406 67.164-29.548 78.703-64.389 43.342-7.566 76.395-45.462 76.395-90.937zm-92.315 72.315c-26.493 0-50.839-14.465-63.537-37.749-2.644-4.848-8.719-6.636-13.567-3.991-4.849 2.645-6.636 8.719-3.992 13.567 15.242 27.949 43.641 45.936 75.104 47.974-11.81 25.902-37.763 43.402-66.958 43.887-5.458.091-9.834 4.541-9.834 9.999v43.434c0 11.505-9.36 20.865-20.865 20.865-7.793 0-14.877-4.29-18.489-11.195l-35.955-68.75c-1.292-2.472-3.557-4.29-6.249-5.019-2.692-.73-5.565-.3-7.927 1.182-12.604 7.905-27.193 11.819-42.181 11.37-39.338-1.229-71.188-33.001-72.509-72.333-.721-21.47 7.792-42.246 23.355-57.001 4.008-3.8 4.177-10.129.377-14.137-3.799-4.008-10.129-4.179-14.137-.377-18.334 17.381-28.937 41.354-29.598 66.493-5.784 1.405-11.732 2.126-17.763 2.126-41.333 0-74.96-33.627-74.96-74.96 0-14.735 4.249-28.976 12.287-41.181 1.674-2.541 2.099-5.706 1.156-8.6-2.383-7.312-3.592-14.925-3.592-22.628 0-19.081 7.322-37.123 20.618-50.803 13.269-13.651 31.037-21.486 50.03-22.062 3.712-.112 7.056-2.272 8.685-5.609 12.333-25.273 37.454-40.974 65.558-40.974 16.949 0 33.457 5.944 46.48 16.737 3.892 3.225 9.579 3.039 13.252-.435 13.586-12.848 31.371-19.924 50.077-19.924 21.237 0 41.142 9.18 54.904 24.943-10.57 3.898-20.423 9.72-29.02 17.288-4.146 3.648-4.548 9.968-.899 14.113 3.65 4.145 9.968 4.549 14.114.898 13.196-11.615 30.157-18.013 47.759-18.013 39.875 0 72.315 32.44 72.315 72.314 0 6.074-.736 12.076-2.189 17.839-1.206 4.784 1.257 9.732 5.801 11.654 27.132 11.481 44.664 37.677 44.664 66.743 0 39.874-32.44 72.315-72.315 72.315z"/><path d="m383.101 202.903c-25.31 0-48.035 15.063-57.895 38.375-2.151 5.087.228 10.954 5.314 13.105 1.271.538 2.592.793 3.891.793 3.897 0 7.601-2.293 9.214-6.107 6.723-15.896 22.218-26.166 39.475-26.166 10.912 0 21.307 4.104 29.268 11.558 4.031 3.773 10.359 3.566 14.134-.467 3.774-4.032 3.565-10.36-.466-14.135-11.68-10.934-26.929-16.956-42.935-16.956z"/><path d="m124.729 158.812c-16.65 0-32.303 6.483-44.076 18.257-3.905 3.905-3.905 10.237 0 14.143 3.905 3.904 10.237 3.904 14.142 0 7.995-7.996 18.626-12.399 29.934-12.399 11.307 0 21.938 4.403 29.933 12.399 1.953 1.952 4.512 2.929 7.071 2.929s5.119-.977 7.071-2.929c3.905-3.905 3.906-10.237 0-14.143-11.773-11.773-27.426-18.257-44.075-18.257z"/></g></svg>