<svg id="Layer_1" height="512" viewBox="0 0 512 512" width="512" xmlns="http://www.w3.org/2000/svg" data-name="Layer 1"><path d="m508.031 66.25c-4.172-15.561-20.953-26.112-47.251-29.718-23.941-3.295-53.7-.65-83.819 7.418a248.3 248.3 0 0 0 -56.253 22.359l-32.298-18.649a8 8 0 0 0 -8.259.15c-3.313 1.329-18.091 5.709-32.4 9.959-33.279 9.88-78.861 23.41-99.459 32.521a7.924 7.924 0 0 0 -3.691 3.32l-140.531 243.39a8 8 0 0 0 2.93 10.93l221.428 127.85a8.006 8.006 0 0 0 10.931-2.931l140.52-243.4a8 8 0 0 0 1.033-4.859c-1.622-15-7.123-40.711-13.01-66.2a265.391 265.391 0 0 0 37.77-7.3c30.121-8.07 57.206-20.67 76.3-35.48 20.968-16.279 30.216-33.81 26.059-49.36zm-278.531 391.67-207.57-119.84 135.189-234.17c20.863-8.73 65.351-21.941 95.184-30.8 17.158-5.091 26.359-7.822 31.5-9.642l52.581 30.36c1 5.36 3.229 14.692 7.4 32.1 1.329 5.549 2.776 11.62 4.28 17.948a138.844 138.844 0 0 1 -29.253-1.979 39.581 39.581 0 1 0 -9.937 14.071 110.153 110.153 0 0 0 12.977 2.539 158.3 158.3 0 0 0 21.41 1.379c2.79 0 5.642-.069 8.512-.2 5.572 24.02 11.021 49.1 12.93 64.061zm45.11-329.13c2.164 8.049 7.7 14.759 16.182 19.86a23.241 23.241 0 0 1 -8.452 1.579 23.508 23.508 0 0 1 -3.657-46.73c-5.871 10.621-5.673 19.33-4.075 25.291zm15.452-4.14c-1.58-5.92 1.5-12.351 5.251-17.52a23.475 23.475 0 0 1 8.018 30.149c-7.28-3.27-11.923-7.59-13.271-12.629zm182.1-21.681c-17.436 13.53-42.532 25.141-70.63 32.67a249.853 249.853 0 0 1 -37.29 7.1c-1.687-7.13-3.346-14.069-4.9-20.54-3.484-14.529-7.071-29.53-7.571-33.049a8.157 8.157 0 0 0 -.273-2.36 7.967 7.967 0 0 0 -3.728-4.859l-10.682-6.171a241.874 241.874 0 0 1 44.012-16.36c59.671-15.992 106.643-7.042 111.47 10.988 2.33 8.681-5.299 20.852-20.411 32.581zm-278.862 66.901a111.07 111.07 0 1 0 111.071 111.069 111.2 111.2 0 0 0 -111.071-111.069zm47.09 75.07c-4.592 2.609-12.039 9.49-10.371 26.269 1.108 11.1 4.907 17.54 7.971 22.711 2.72 4.61 4.219 7.14 3.578 12.329-.259 2.07-1.461 3.02-7.6 6-6.552 3.168-15.5 7.508-20.141 18.68-4.228 10.18-3.988 23.87.82 42.659a95.028 95.028 0 0 1 -99.468-146.77c6.146 3.521 7.018 6.99 8.871 14.4a90.16 90.16 0 0 0 9.818 25.37c1.8 3.119 1.608 3.45-.669 7.479-2.333 4.109-5.85 10.33-4.563 19.941.019.1.033.2.052.3 1.631 9.4-.462 14.389-2.672 19.669-2.046 4.881-4.361 10.411-2.419 17.571a12.827 12.827 0 0 0 4.539 7.186l-.675 1.734 1.359-1.23a13.3 13.3 0 0 0 3.846 1.8 15.236 15.236 0 0 0 4.082.549 16.192 16.192 0 0 0 11.5-4.789c.09-.091.184-.181.274-.28 2.781-3.18 3.747-3.471 5.689-4.071 4.289-1.309 8.72-3.119 15.72-10.77a8.618 8.618 0 0 0 1.051-1.429c3.969-6.96 6.477-6.4 11.959-5.161 3.771.851 9.47 2.14 14.118-2.02 4.84-4.329 5.123-11.76 4.039-21.589-.25-2.2-.325-4.47-.419-6.671-.288-7.669-.656-17.209-9.027-23.169a23.072 23.072 0 0 1 -7.919-9.28c-3.389-6.251-7.212-11.591-19.755-13.64l-.066-.02c-.321-.292-1.094-1.96-.792-4.76.311-2.86 1.5-4.64 2.032-5.01a3.086 3.086 0 0 1 .89.32.883.883 0 0 1 .118.1c16.559 13.08 33.863 11.719 45.45 8.28.188-.061.372-.12.551-.181 10.672-4.039 17.172-12.279 18.308-23.22.792-7.66-1.089-15.539-4.5-22.569a95.489 95.489 0 0 1 58.587 62.63c-19.668-11.948-34.204-15.008-44.164-9.348z" fill-rule="evenodd"/></svg>