<svg id="Layer_1" enable-background="new 0 0 512.022 512.022" height="512" viewBox="0 0 512.022 512.022" width="512" xmlns="http://www.w3.org/2000/svg"><path d="m505.687 320.887-44.48-41.768c-26.849-25.212-63.315-39.097-102.68-39.097h-78.531c-27.899 0-50.785 17.65-57.789 42.366h-8.75c-15.822 0-30.752-6.105-42.063-17.213l-69.416-67.954c-11.295-11.104-26.196-17.199-42.015-17.199-.178 0-.357 0-.536.002-16.017.139-31.02 6.508-42.245 17.935-23.161 23.574-22.83 61.602.737 84.771l90.153 88.624c20.476 20.129 44.333 35.85 70.907 46.724 26.574 10.875 54.607 16.389 83.321 16.389h143.444l72.149 71.738c3.823 3.801 8.92 5.818 14.106 5.818 2.585 0 5.194-.501 7.676-1.534 7.459-3.103 12.32-10.388 12.32-18.467v-156.556c.001-5.522-2.282-10.799-6.308-14.579zm-33.691 123.045-43.898-43.648c-3.747-3.726-8.817-5.817-14.102-5.817h-151.695c-47.5 0-92.314-18.338-126.187-51.638l-90.152-88.624c-7.843-7.711-7.954-20.367-.245-28.213 3.735-3.802 8.729-5.922 14.06-5.968.06 0 .119-.001.178-.001 5.264 0 10.225 2.029 14.013 5.753l69.423 67.96c18.813 18.477 43.697 28.652 70.067 28.652h11.593c9.299 20.961 30.43 35.634 54.946 35.634h81c11.045 0 20-8.954 20-20s-8.955-20-20-20h-81c-11.215 0-20-8.59-20-19.556 0-10.515 8.598-18.444 20-18.444h78.531c29.152 0 55.894 10.035 75.299 28.256l38.17 35.843v99.811zm-216-273.985v14.075c0 11.046 8.954 20 20 20s20-8.954 20-20v-14.075c25.256-.414 68.702-5.544 96.084-33.31 39.452-40.005 32.576-114.122 32.264-117.257-.901-9.056-7.803-16.362-16.793-17.776-3.099-.488-76.398-11.452-118.735 31.478-4.988 5.058-9.22 10.547-12.82 16.294-3.599-5.747-7.832-11.236-12.82-16.294-42.337-42.931-115.636-31.967-118.735-31.479-8.99 1.415-15.892 8.72-16.793 17.776-.312 3.135-7.188 77.251 32.264 117.257 27.385 27.769 70.83 32.897 96.084 33.311zm61.301-108.78c17.635-17.882 46.443-21.186 65.324-21.186.81 0 1.6.006 2.371.018-.527 21.097-4.976 51.905-21.391 68.55-16.271 16.499-46.296 20.936-66.895 21.438-.444-18.933 2.051-50.02 20.591-68.82zm-82.601 0c18.543 18.803 21.035 49.899 20.593 68.818-20.615-.503-50.631-4.942-66.897-21.436-16.418-16.647-20.865-47.466-21.392-68.548 18.781-.274 49.312 2.525 67.696 21.166z"/></svg>