<?xml version="1.0" encoding="utf-8"?>
<!-- Generator: Adobe Illustrator 27.5.0, SVG Export Plug-In . SVG Version: 6.00 Build 0)  -->
<svg version="1.1" xmlns="http://www.w3.org/2000/svg" xmlns:xlink="http://www.w3.org/1999/xlink" x="0px" y="0px"
	 viewBox="0 0 4200 3600" style="enable-background:new 0 0 4200 3600;" xml:space="preserve">
<g id="Ñëîé_2">
	<rect style="fill:#FFFFFF;" width="4200" height="3600"/>
</g>
<g id="Ñëîé_1">
	<g>
		<g>
			<g>
				<path style="fill:#DB8758;" d="M2100.001,646.979c-8.365,0-15.146-6.782-15.146-15.145V519.786
					c0-34.31,22.338-64.934,55.584-76.2c54.086-18.332,89.108-71.07,85.163-128.245c-4.289-62.204-54.433-112.352-116.641-116.645
					c-35.404-2.417-69.077,9.474-94.857,33.54c-25.807,24.087-40.019,56.787-40.019,92.068c0,8.363-6.78,15.145-15.145,15.145
					c-8.365,0-15.145-6.782-15.145-15.145c0-43.137,18.093-84.766,49.641-114.212c31.987-29.86,73.747-44.633,117.611-41.616
					c77.212,5.329,139.45,67.571,144.775,144.777c4.889,70.888-38.559,136.279-105.658,159.018
					c-20.945,7.099-35.017,26.196-35.017,47.515v112.048C2115.146,640.197,2108.366,646.979,2100.001,646.979z"/>
			</g>
			<path style="fill:#E5CABA;" d="M3410.016,1612.627c-72.641-128.354-359.713-303.007-661.275-486.459
				c-142.249-86.535-287.446-252.815-418.734-401.644c-122.108-138.42-337.91-138.42-460.017,0.001
				c-131.288,148.827-276.486,315.109-418.734,401.647c-301.562,183.448-588.632,358.101-661.273,486.455
				c-8.764,15.487,2.166,34.67,19.96,34.67h2580.113C3407.851,1647.296,3418.781,1628.113,3410.016,1612.627z M1051.799,1551.223
				L2100,884.258l1048.201,666.966H1051.799z"/>
		</g>
		<g>
			<g>
				<g>
					<g>
						<circle style="fill:#99B5D8;" cx="2100.08" cy="2238.536" r="1014.282"/>
					</g>
					<g>
						<g>
							<g>
								<path style="fill:#747F4E;" d="M2037.385,1625.269c1.799-1.782,0.849-5.743-0.28-7.554
									c-2.247-3.606-6.655-4.411-10.552-4.837c-4.133-0.452-8.371-0.362-12.459-1.166c-2.425-0.477-5.316-1.883-3.86-4.83
									c1.384-2.802,4.931-4.609,7.521-6.082c1.215-0.691,2.472-1.319,3.666-2.047c0.626-0.382,1.175-0.931,1.896-1.114
									c1.904-0.483,4.306,0.82,5.943,1.618c2.91,1.418,5.669,3.145,8.421,4.844c2.826,1.746,5.632,3.538,8.554,5.124
									c1.862,1.01,4.219,2.457,6.419,2.438c2.212-0.019,2.618-2.633,3.042-4.376c1.026-4.214,1.313-8.741,0.773-13.044
									c-1.121-8.93-7.917-14.513-14.53-19.844c-3.234-2.608-6.575-5.117-9.591-7.982c-2.005-1.904-4.513-4.35-4.881-7.249
									c-0.707-5.573,7.548-5.576,11.173-5.673c6.771-0.18,13.623,0.628,20.37-0.167c2.123-0.25,4.869-0.631,6.388-2.32
									c1.046-1.164,1.427-2.891,2.252-4.219c1.094-1.758,2.459-3.325,3.899-4.806c5.383-5.533,11.688-11.142,9.863-19.68
									c-1.663-7.78-5.987-14.959-9.195-22.165c-2.247-5.046-6.368-13.06-1.056-17.636c4.713-4.06,11.799-1.195,16.759-4.409
									c3.011-1.951,2.51-6.268,2.05-9.33c-0.697-4.632-2.621-8.974-4.908-13.026c-2.066-3.661-4.491-7.097-6.673-10.687
									c-1.571-2.585-3.293-5.449-3.172-8.578c0.314-8.114,7.324-14.943,12.982-19.968c7.277-6.462,15.411-11.86,23.33-17.484
									c4.345-3.085,8.618-6.288,12.582-9.856c3.534-3.181,7.14-6.752,9.26-11.073c1.13-2.302,2.33-6.217,0.559-8.531
									c-1.499-1.959-4.924-2.656-7.154-3.174c-9.91-2.301-20.714-1.775-30.63,0.159c-4.939,0.963-10.376,2.051-14.586,4.957
									c-3.447,2.379-6.318,5.536-9.11,8.627c-2.692,2.982-5.285,6.161-8.404,8.716c-1.54,1.262-4.586,3.522-6.712,2.271
									c-1.496-0.88-1.179-3.237-0.971-4.658c0.412-2.824,1.342-5.58,2.232-8.281c1.002-3.042,2.087-6.058,3.002-9.128
									c0.673-2.26,1.513-4.803,1.337-7.196c-0.207-2.804-2.786-2.727-4.917-3.883c-3.438-1.864-5.922-4.843-7.7-8.278
									c-3.491-6.743-4.651-14.915-10.41-20.31c-5.436-5.092-13.582-6.89-20.708-7.974c-10.435-1.589-21.118-1.526-31.627-0.868
									c-12.457,0.781-24.858,2.533-37.088,5.013c-1.933,0.392-3.515,0.726-4.891,2.218c-1.087,1.179-1.805,2.667-2.429,4.128
									c-1.313,3.071-2.072,6.651-4.201,9.3c-2.4,2.988-6.674,2.589-10.044,1.768c-4.436-1.08-8.473-3.377-12.489-5.47
									c-5.973-3.115-15.3-7.291-19.569,0.736c-3.119,5.865-0.13,13.272,0.286,19.425c0.156,2.316,0.089,5.198-2.083,6.608
									c-2.364,1.535-5.48,0.759-7.896-0.203c-7.2-2.866-13.134-8.291-19.957-11.889c-4.386-2.313-14.302-5.595-16.163,1.662
									c-0.636,2.48,0.053,5.117,0.38,7.59c0.223,1.681,0.59,4.183-1.477,4.816c-1.528,0.468-3.301-0.263-4.831-0.343
									c-2.495-0.131-4.98,0.382-7.411,0.878c-3.421,0.698-9.45,2.518-12.04-0.929c-1.8-2.396-1.055-6.03-1.342-8.811
									c-0.346-3.357-2.052-4.203-5.236-3.982c-8.767,0.61-17.51,1.002-26.221,2.265c-6.087,0.882-12.133,2.078-18.063,3.716
									c-4.905,1.354-10.144,2.581-13.474,6.719c-2.608,3.241-4.249,6.91-7.817,9.313c-4.038,2.719-8.781,4.574-13.265,6.411
									c-4.538,1.859-9.141,3.559-13.666,5.451c-3.117,1.303-6.704,2.623-9.254,4.921c-4.423,3.985,4.21,7.707,6.929,9.344
									c1.673,1.008,4.611,2.451,5.133,4.556c0.577,2.33-2.881,4.056-4.475,4.991c-6.691,3.923-14.515,5.893-21.9,8.056
									c-6.973,2.042-14.587,3.804-20.82,7.687c-1.943,1.21-3.997,2.836-4.678,5.123c-0.934,3.138,1.476,5.794,3.639,7.731
									c2.763,2.475,5.962,4.443,8.594,7.067c1.54,1.535,4.43,5.178,2.136,7.252c-1.915,1.732-5.595,1.025-7.933,1.738
									c-3.479,1.06-3.557,4.512-3.138,7.633c1.087,8.089,6.498,15.701,12.028,21.437c3.342,3.467,8.398,8.604,13.632,6.007
									c4.235-2.102,6.698-6.529,11.307-8.156c7.748-2.734,14.63,2.737,21.829,4.586c8.426,2.164,18.205,3.021,24.241,10.05
									c5.998,6.985,9.632,16.207,13.007,24.655c1.808,4.526,3.487,9.102,5.104,13.699c1.457,4.144,2.849,8.116,3.187,12.533
									c0.715,9.349-1.746,18.864-0.462,28.151c0.283,2.047,0.936,4.009,1.171,6.071c0.285,2.5,0.252,5.024,0.132,7.533
									c-0.259,5.373-0.873,10.729-0.499,16.115c0.206,2.96,0.693,5.896,1.514,8.749c0.622,2.159,1.228,4.422,2.844,6.057
									c2.488,2.519,5.929,3.877,8.613,6.166c5.251,4.476,3.406,10.563,1.48,16.24c-2.51,7.4-5.794,14.534-8.935,21.68
									c-3.122,7.101-6.37,14.217-8.74,21.615c-0.821,2.562-1.612,5.236-1.772,7.937c-0.203,3.443,1.356,6.404,3.704,8.835
									c2.652,2.745,6.124,4.841,8.113,8.178c1.134,1.902,1.332,3.947,1.563,6.107c0.292,2.74,0.522,5.487,0.725,8.236
									c0.801,10.818,1.167,21.717,3.159,32.405c1.966,10.55,5.71,20.771,12.387,29.281c2.994,3.816,6.678,5.203,11.392,5.827
									c3.873,0.512,8.434,0.485,11.665,2.998c3.99,3.104,7.042,7.763,10.215,11.662c1.653,2.032,3.693,4.862,6.564,5.042
									c7.124,0.448,12.029-7.264,14.568-12.788c4.325-9.41,6.532-19.775,9.204-29.733c2.389-8.904,4.995-17.768,8.089-26.456
									c2.959-8.31,6.608-16.536,11.869-23.665c2.716-3.68,5.894-7.079,9.657-9.705c4.688-3.271,10.142-4.762,15.764-5.385
									c4.792-0.531,9.743-0.425,14.42-1.717c4.632-1.28,8.087-4.495,11.187-8.039c5.973-6.828,9.842-15.118,13.26-23.438
									c1.28-3.115,2.461-6.296,3.984-9.303c1-1.974,2.108-3.827,4.191-4.771c2.564-1.161,5.571-1.155,8.329-1.157
									c3.946-0.002,7.886,0.149,11.829-0.08c10.423-0.604,21.212-3.63,29.816-9.685
									C2024.493,1640.932,2030.222,1632.376,2037.385,1625.269z"/>
							</g>
							<path style="fill:#747F4E;" d="M2022.713,1750.214c6.137,3.897,15.09,3.14,21.906,2.111c9.27-1.4,18.594-4.551,26.401-9.814
								c8.696-5.863,13.891-14.67,15.176-25.098c1.157-9.389-0.436-20.38-5.943-28.293c-2.009-2.888-4.489-4.894-8.122-4.998
								c-4.325-0.124-8.681,1.562-12.572,3.278c-4.448,1.963-8.698,4.362-12.84,6.899c-2.517,1.542-5.169,4.006-8.208,4.289
								c-3.441,0.321-7.043-0.723-10.346-1.548c-4.155-1.038-8.289-2.218-12.526-2.882c-6.492-1.018-15.325-0.506-16.661,7.527
								c-1.295,7.79,2.52,16.618,5.71,23.502c3.649,7.874,8.241,15.928,14.454,22.081
								C2020.239,1748.351,2021.41,1749.383,2022.713,1750.214z"/>
							<g>
								<path style="fill:#747F4E;" d="M1668.826,3105.1c0.477-1.509-0.367-3.306-0.944-4.666c-0.908-2.139-1.998-4.197-2.858-6.358
									c-1.747-4.389-2.49-9.29,1.056-13.007c2.909-3.05,7.075-4.919,10.826-6.686c4.712-2.22,9.532-4.22,14.133-6.67
									c4.013-2.137,8.218-4.665,10.933-8.411c3.41-4.704,3.54-10.984,4.411-16.511c0.449-2.85,1.026-5.767,2.364-8.35
									c1.573-3.037,3.912-5.801,6.038-8.463c4.174-5.226,8.768-10.09,13.046-15.227c3.475-4.172,6.915-8.656,8.622-13.88
									c1.507-4.61,2.583-9.38,3.825-14.065c2.842-10.712,5.873-21.627,11.229-31.4c2.423-4.422,5.388-8.651,9.239-11.95
									c4.181-3.583,9.317-5.598,14.653-6.741c5.453-1.167,11.032-1.48,16.578-1.905c4.152-0.318,8.89-0.437,12.68-2.372
									c2.588-1.322,3.856-3.968,5.192-6.417c1.982-3.635,3.762-7.38,5.477-11.146c4.599-10.102,8.692-20.462,12.155-31.008
									c3.615-11.009,5.988-21.917,6.983-33.466c1.147-13.314,0.649-27.394,4.307-40.349c3.121-11.052,11.691-18.839,19.645-26.596
									c7.547-7.359,16.308-15.703,18.859-26.308c2.281-9.48,2.228-19.919,0.774-29.52c-0.595-3.931-1.422-8.131-3.425-11.62
									c-0.661-1.152-1.372-2.337-2.767-2.553c-1.787-0.277-3.817,0.374-5.591,0.558c-6.193,0.642-12.268-1.008-17.103-4.992
									c-4.308-3.55-7.52-8.297-12.16-11.467c-5.243-3.582-12.255-4.379-18.427-4.997c-6.12-0.613-12.271-0.654-18.415-0.621
									c-3.837,0.021-7.876,0.413-11.495-1.093c-4.88-2.03-8.084-6.122-11.544-9.913c-1.644-1.802-3.395-3.54-5.488-4.821
									c-2.694-1.648-5.782-2.206-8.829-2.861c-6.28-1.35-12.628-2.256-18.973-3.236c-7.606-1.175-19.94-3.248-16.934-13.938
									c1.521-5.409,4.444-9.892,3.915-15.726c-0.495-5.459-1.856-10.828-3.952-15.891c-2.478-5.988-5.972-11.522-10.138-16.477
									c-4.283-5.094-9.353-10.456-15.571-13.131c-9.302-4.003-19.603-0.023-29.23-2.496c-11.891-3.054-21.63-12.818-29.356-21.883
									c-6.62-7.767-12.12-16.33-18.28-24.442c-1.883-2.479-3.893-5.243-6.858-6.478c-4.794-1.997-10.639-0.74-15.553,0.074
									c-6.591,1.092-13.227,2.339-19.941,1.938c-5.862-0.35-11.327-2.177-16.475-4.941c-9.514-5.108-17.935-12.341-28.937-14.036
									c-6.198-0.955-11.889-0.067-17.387,2.979c-5.154,2.855-9.608,6.806-13.885,10.814c-4.531,4.246-8.967,8.44-11.97,13.962
									c-2.321,4.268-3.471,8.862-4.739,13.509c-0.876,3.212-2.015,6.495-5.1,8.2c-3.79,2.095-9.389,2.22-13.394,0.724
									c-3.222-1.204-5.268-3.68-7.421-6.219c-1.833-2.16-3.813-3.7-6.792-3.035c-4.188,0.934-7.976,3.928-11.662,5.986
									c-4.177,2.332-8.86,4.561-13.772,4.197c-11.501-0.852-17.035-14.061-17.243-24.045c-0.227-10.858,3.153-21.441,5.522-31.923
									c0.974-4.31,1.961-8.787,1.808-13.232c-0.055-1.594-0.128-3.805-1.219-5.081c-1.059-1.238-2.67-0.951-4.066-0.535
									c-4.904,1.462-9.179,4.247-14.461,4.368c-5.483,0.126-10.548-2.997-14.649-6.356c-3.571-2.925-7.568-6.745-9.302-11.138
									c-1.062-2.69-0.724-5.792-0.261-8.573c1.468-8.809,5.005-17.301,8.115-25.625c3.112-8.329,6.659-16.811,8.179-25.615
									c0.448-2.596,1.053-6.172-0.242-8.638c-1.682-3.202-6.703-2.554-9.598-2.04c-7.472,1.328-17.262,4.75-20.52,12.257
									c-3.215,7.409-2.199,15.957-4.865,23.559c-3.114,8.88-11.515,14.633-20.784,15.498c-8.139,0.76-15.799-2.869-21.602-8.388
									c-16.567-15.754-19.709-42.236-16.753-63.735c0.856-6.225,2.872-12.202,3.752-18.396c0.754-5.308,0.857-10.702,1.192-16.047
									c0.748-11.945,1.965-24.917,9.437-34.778c6.819-9.001,17.16-14.629,27.355-18.978c4.008-1.71,8.827-4.413,13.319-3.733
									c3.129,0.474,4.884,2.976,7.222,4.801c3.217,2.511,7.735,2.75,11.484,1.29c4.619-1.799,7.466-6.434,10.415-10.146
									c3.378-4.253,7.276-8.035,12.76-9.196c6.047-1.28,12.526-0.375,18.524,0.75c10.343,1.938,22.026,4.545,27.138,14.814
									c3.981,7.996,3.296,17.355,4.363,25.989c1.235,9.986,5.004,24.468,16.08,27.751c1.728,0.512,3.601,0.964,4.908-0.535
									c1.043-1.197,1.381-2.993,1.616-4.508c0.88-5.655,0.304-11.602-0.144-17.269c-0.632-7.983-1.549-15.942-2.329-23.911
									c-0.823-8.419-1.556-16.861-1.731-25.322c-0.148-7.153-0.026-14.507,1.648-21.499c0.639-2.668,1.528-5.327,2.961-7.681
									c1.627-2.673,3.827-4.158,6.424-5.825c11.094-7.118,22.331-14.361,31.429-24.013c9.214-9.775,14.731-21.344,18.095-34.247
									c3.266-12.527,4.895-25.511,9.107-37.785c1.759-5.125,3.904-10.571,7.848-14.428c3.726-3.643,8.594-5.837,13.413-7.64
									c5.433-2.033,11.02-3.636,16.395-5.827c2.786-1.136,5.517-2.421,8.105-3.959c2.005-1.191,4.752-2.562,5.611-4.892
									c1.401-3.801-2.116-8.261-2.958-11.858c-1.143-4.878,1.613-8.564,4.648-12.08c6.712-7.775,15.21-14.104,23.66-19.858
									c3.302-2.249,6.664-4.428,10.135-6.409c0.738-0.421,3.45-2.46,4.219-1.576c0.431,0.495-0.035,2.03-0.136,2.569
									c-0.281,1.497-0.669,2.974-1.019,4.456c-0.819,3.458-1.696,7.044-1.598,10.622c0.077,2.824,1.011,5.768,4.14,6.324
									c5.11,0.909,9.167-3.597,12.316-6.906c4.672-4.909,9.559-8.885,15.418-12.316c4.758-2.786,10.022-5.055,14.439-8.382
									c2.423-1.825,2.801-3.4,0.525-5.496c-2.816-2.593-6.302-4.497-9.423-6.688c-7.157-5.022-16.524-12.559-14.165-22.388
									c1.257-5.238,3.884-10.031,5.452-15.171c1.149-3.766,1.758-7.909-1.389-10.852c-2.67-2.497-6.504-3.59-9.946-4.524
									c-1.656-0.449-3.329-0.832-4.979-1.302c-0.969-0.276-2.437-0.542-3.192-1.279c-0.664-0.648-0.542-1.036-0.035-1.752
									c1.038-1.466,2.453-2.816,3.726-4.073c3.873-3.826,8.575-6.823,13.958-7.943c11.913-2.478,23.654,3.537,35.551,2.751
									c5.708-0.377,11.411-3.494,16.188-6.432c5.315-3.269,10.215-7.216,14.702-11.546c3.102-2.993,5.872-6.225,8.59-9.561
									c0.079-0.096,1.485-1.832,1.589-1.712c0.355,0.409-2.38,4.262-2.609,4.635c-2.223,3.629-4.476,7.239-6.692,10.871
									c-5.859,9.601-11.647,19.305-16.545,29.44c-1.951,4.038-3.857,8.194-5.023,12.539c-0.6,2.236-1.416,5.376,0.161,7.398
									c1.387,1.777,3.727,3.051,5.656,4.123c2.675,1.486,5.494,2.713,8.353,3.799c6.743,2.561,13.853,4.428,21.029,5.229
									c5.151,0.575,11.735,1.039,16.293-1.956c5.912-3.884,3.82-13.312,1.395-18.592c-3.723-8.107-10.186-14.621-17.103-20.068
									c-4.47-3.519-3.661-10.533-3.07-15.53c1.026-8.687,3.201-17.221,4.899-25.79c1.741-8.787,3.76-18.251,2.99-27.259
									c-0.55-6.429-3.892-11.49-9.1-15.152c-4.94-3.474-10.615-5.72-15.673-9.003c-5.519-3.582-9.823-8.415-11.627-14.851
									c-1.306-4.658-2.225-9.33-3.836-13.918c-1.784-5.082-3.829-10.069-5.817-15.073c-2.114-5.319-4.196-10.66-5.883-16.132
									c-1.707-5.537-2.677-11.148-3.32-16.898c-0.529-4.733-0.259-16.854-7.692-16.196c-4.713,0.417-8.407,5.605-10.983,9.04
									c-3.953,5.271-7.333,10.949-11.362,16.165c-2.64,3.417-6.469,8.445-11.264,8.552c-5.652,0.126-7.522-5.98-8.013-10.531
									c-0.772-7.159,0.177-14.424,0.287-21.596c0.088-5.7,0.139-12.412-3.592-17.106c-3.456-4.348-8.447-7.574-13.133-10.429
									c-6.268-3.819-12.909-7.056-19.718-9.788c-6.411-2.571-13.08-4.797-19.921-5.876c-3.858-0.609-10.818-1.672-13.937,1.546
									c-1.811,1.868-1.83,5.311-1.92,7.715c-0.161,4.317,0.1,8.642,0.09,12.96c-0.011,4.724-0.225,9.517-1.36,14.122
									c-1.187,4.818-3.326,9.495-5.627,13.872c-3.617,6.88-8.857,13.218-11.016,20.781c-1.276,4.468-1.215,8.211,1.57,11.993
									c2.431,3.302,5.235,6.167,6.818,10.029c2.702,6.593,1.99,14.099,0.569,20.903c-0.923,4.417-2.215,8.549-4.842,12.267
									c-2.187,3.095-4.976,5.706-7.964,8.014c-2.558,1.977-5.282,3.716-7.953,5.532c-1.959,1.332-4.241,2.746-5.582,4.758
									c-1.049,1.575-1.238,3.723-1.521,5.549c-0.412,2.663-0.692,5.347-0.963,8.027c-0.685,6.769-1.238,13.553-2.135,20.299
									c-0.585,4.401-2.611,26.596-11.664,21.764c-3.626-1.936-4.671-7.146-5.338-10.801c-1.152-6.32-1.359-12.804-1.667-19.207
									c-0.318-6.595-0.557-13.232-1.544-19.769c-0.696-4.61-1.669-10.193-5.034-13.701c-2.313-2.411-5.935-3.044-9.063-3.726
									c-4.285-0.935-8.714-1.703-12.674-3.678c-8.117-4.048-10.402-13.687-17.459-18.876c-3.543-2.605-8.196-4.049-12.204-5.79
									c-4.279-1.858-8.561-3.717-12.745-5.781c-7.429-3.665-14.798-8.064-20.141-14.526c-5.064-6.126-8.753-14.754-7.407-22.804
									c1.635-9.772,8.272-18.479,13.79-26.405c3.242-4.657,6.655-9.238,9.624-14.078c2.662-4.338,4.913-8.911,7.236-13.435
									c4.398-8.562,9.278-18.176,17.548-23.642c7.889-5.214,17.944-6.435,24.757-13.327c3.529-3.569,6.432-7.668,8.659-12.163
									c1.723-3.478,2.959-7.171,4.676-10.648c1.434-2.904,3.332-5.482,6.134-7.188c4.003-2.437,8.648-4.005,13.057-5.524
									c8.937-3.079,18.396-5.491,26.411-10.683c16.059-10.402,19.435-31.267,14.79-48.662
									c-1.724-6.455-7.219-24.095-17.274-18.065c-3.618,2.17-6.33,5.842-8.741,9.216c-3.042,4.257-5.747,8.745-8.522,13.176
									c-2.575,4.112-5.158,8.283-8.275,12.015c-1.954,2.339-4.677,5.457-7.978,5.637c-5.901,0.323-6.078-8.367-6.723-12.349
									c-0.704-4.352-1.304-9.979-4.013-13.625c-2.25-3.027-5.767-1.011-8.85-1.423c-5.033-0.672-7.14-6.158-8.755-10.264
									c-2.161-5.491-3.848-11.163-5.676-16.77c-1.915-5.871-3.877-11.76-6.45-17.382c-1.916-4.187-4.264-8.927-8.107-11.692
									c-3.634-2.615-7.46-1.669-10.866,0.818c-6.887,5.029-12.552,11.916-12.691,20.792c-0.115,7.326,2.916,14.34,5.481,21.055
									c2.73,7.147,5.431,14.615,5.013,22.389c-0.173,3.223-0.334,5.401-3.756,6.143c-3.998,0.867-8.3,0.604-12.365,0.78
									c-5.362,0.232-10.818,0.62-16.032,1.958c-4.486,1.151-8.742,3.024-12.795,5.244c-3.356,1.838-6.559,3.93-9.849,5.88
									c-2.58,1.529-5.35,3.172-8.352,3.678c-3.079,0.518-5.798-0.888-8.448-2.306c-3.695-1.976-7.175-4.341-10.667-6.648
									c-7.416-4.901-15.416-10.59-24.412-11.953c-3.11-0.471-6.898-0.515-9.631,1.294c-2.144,1.419-3.051,3.828-3.443,6.271
									c-0.885,5.506,0.358,11.627-2.397,16.729c-0.668,1.237-1.57,2.328-2.669,3.205c-1.007,0.804-2.953,2.202-4.298,2.17
									c-1.625-0.038-2.527-2.379-3.125-3.588c-2.447-4.95-4.635-11.927-10.277-14.125c-3.663-1.427-8.201-0.166-11.785,0.943
									c-5.215,1.614-10.176,3.956-15.161,6.154c-1.326,0.585-2.214,0.859-3.045,2.069c-0.728,1.059-1.453,2.12-2.177,3.182
									c-1.568,2.302-3.126,4.61-4.675,6.924c-2.861,4.275-5.689,8.571-8.485,12.889c-5.83,9.004-11.517,18.101-17.059,27.286
									c-21.93,36.347-41.574,74.072-58.766,112.886c-17.367,39.211-32.229,79.53-44.459,120.634
									c-12.418,41.738-22.121,84.281-29.041,127.273c-7.071,43.931-11.236,88.325-12.512,132.803
									c-0.327,11.409-0.471,22.824-0.412,34.237c0.015,2.923-0.448,6.364,0.089,9.232c0.176,0.938,0.046,0.82,0.756,1.443
									c0.38,0.333,0.767,0.657,1.161,0.975c0.928,0.749,1.892,1.454,2.872,2.133c3.531,2.448,7.287,4.554,10.802,7.027
									c3.58,2.52,6.913,5.447,9.303,9.152c2.049,3.177,2.867,6.456,3.081,10.198c0.229,4.007,0.083,8.024,0.381,12.029
									c0.41,5.511,1.521,11.029,3.588,16.169c3.699,9.196,12.937,15.306,14.684,25.426c1.399,8.104-1.242,18.707,5.331,24.951
									c3.127,2.97,6.385,5.769,9.306,8.955c3.176,3.464,5.185,6.602,6.551,11.087c1.246,4.09,2.091,8.325,3.662,12.311
									c1.495,3.792,4.167,6.81,7.666,8.909c3.127,1.876,6.673,2.861,10.264,3.354c2.186,0.3,4.746,1.104,6.058-1.196
									c1.576-2.763,1.465-7.939-0.136-10.669c-1.797-3.063-5.739-4.461-8.039-7.122c-2.294-2.655-2.988-6.647-4.133-9.897
									c-1.338-3.798-2.747-7.57-4.187-11.33c-3.039-7.936-6.218-15.818-9.351-23.717c-2.999-7.561-5.989-15.133-8.684-22.809
									c-1.936-5.512-3.914-11.161-4.841-16.949c-0.326-2.037-1.188-6.742,1.592-7.601c4.243-1.311,6.975,6.06,8.103,8.796
									c3.344,8.111,5.749,16.585,9,24.737c3.712,9.31,8.468,17.877,14.136,26.128c10.816,15.743,23.73,30.8,31.372,48.461
									c1.566,3.62,2.877,7.401,3.481,11.311c0.719,4.65,0.768,9.419,1.347,14.095c1.093,8.832,2.549,18.844,7.622,26.392
									c5.156,7.673,14.315,9.404,22.677,11.464c4.434,1.092,8.721,2.455,12.576,4.962c3.828,2.49,7.099,5.666,10.39,8.803
									c3.01,2.869,6.112,5.692,9.782,7.701c4.551,2.491,9.661,3.395,14.792,3.696c5.231,0.307,10.464-0.047,15.686-0.328
									c4.293-0.231,8.891-0.649,13.106,0.431c7.697,1.972,12.356,9.332,15.815,15.887c1.438,2.726,2.833,5.676,5.098,7.829
									c2.645,2.514,6.426,2.934,9.879,3.52c8.219,1.396,17.231,1.487,24.824,5.278c8.375,4.182,10.528,13.355,12.714,21.727
									c1.358,5.199,2.379,10.637,4.303,15.665c1.677,4.383,4.939,7.942,8.415,10.996c7.793,6.849,16.95,12.548,27.339,14.217
									c4.076,0.655,8.404,0.702,12.362-0.61c3.876-1.284,5.976-3.788,8.009-7.197c1.951-3.271,3.871-6.894,7.612-8.357
									c2.757-1.078,6.525-2.251,9.494-1.379c5.403,1.586,4.784,10.544,5.101,14.838c0.631,8.534,1.432,16.97,0.941,25.542
									c-0.55,9.609-2.332,19.5-7.02,28.015c-4.274,7.763-10.444,14.363-16.069,21.143c-5.843,7.042-11.495,14.482-14.64,23.17
									c-2.636,7.283-2.962,15.154-3.345,22.822c-0.46,9.21-0.518,18.456-0.018,27.666c0.263,4.841,0.683,9.678,1.377,14.478
									c0.603,4.175,1.164,8.711,2.922,12.583c1.887,4.157,5.108,7.47,7.789,11.104c3.206,4.345,4.657,9.001,5.815,14.231
									c1.207,5.453,2.048,10.995,3.617,16.363c1.537,5.259,3.889,9.841,7.212,14.187c2.95,3.857,6.317,7.476,8.596,11.798
									c2.652,5.028,4.659,10.455,6.773,15.723c3.498,8.72,6.696,17.483,14.249,23.497c6.61,5.262,14.126,8.368,21.792,11.704
									c7.147,3.11,13.049,7.337,17.335,13.971c1.674,2.591,3.117,5.163,3.704,8.2c0.521,2.692,0.651,5.461,0.692,8.197
									c0.125,8.504-0.736,17.032-1.669,25.474c-2.573,23.297-6.364,46.449-9.565,69.664c-1.639,11.886-2.556,23.815-3.142,35.796
									c-0.29,5.933-0.521,11.869-0.791,17.803c-0.124,2.727-0.256,5.454-0.408,8.18c-0.062,1.103-0.159,0.984,0.525,1.758
									c0.435,0.491,1.268,0.895,1.806,1.274c1.406,0.99,2.815,1.975,4.226,2.958c19.787,13.772,40.064,26.839,60.781,39.167
									c10.173,6.053,20.451,11.928,30.83,17.622c2.381,1.306,4.768,2.603,7.159,3.89c0.656,0.353,3.256,2.269,3.92,2.098
									c0.615-0.158,1.893-2.175,2.432-2.672c2.843-2.615,6.228-4.597,9.834-5.956c6.054-2.281,12.623-2.585,18.694-4.769
									C1662.309,3118.332,1666.53,3112.349,1668.826,3105.1z"/>
							</g>
							<path style="fill:#747F4E;" d="M1286.701,1654.243c7.386-3.107,13.929-7.87,20.477-12.411
								c5.734-3.976,11.784-8.42,18.656-10.163c6.141-1.557,11.781,1.24,17.94,1.244c7.055,0.004,14.138-1.581,20.773-3.898
								c5.28-1.844,11.054-4.185,15.226-8.033c2.61-2.407,1.643-5.02-0.127-7.721c-5.387-8.22-13.808-14.165-20.255-21.495
								c-1.314-1.494-2.697-3.09-3.537-4.913c-0.748-1.625-0.245-2.588-0.154-4.264c0.189-3.465-1.149-7.152-2.322-10.346
								c-1.68-4.575-3.823-9.005-6.345-13.176c-21.175,23.453-41.259,47.89-60.164,73.207c-5.377,7.202-10.66,14.474-15.844,21.815
								C1276.053,1656.627,1281.571,1656.4,1286.701,1654.243z"/>
							<path style="fill:#747F4E;" d="M1698.476,1674.269c-4.979-2.805-5.482-10.206-9.391-14.096
								c-4.364-4.343-11.761-4.033-16.388-8.142c-4.746-4.215-3.041-11.587-0.182-16.369c2.585-4.324,7.074-8.204,8.017-13.336
								c1.221-6.643-4.917-12.272-9.85-15.618c-2.3-1.56-4.533-2.737-7.321-3.079c-2.898-0.356-5.86-0.092-8.746,0.251
								c-2.975,0.353-5.929,0.867-8.905,1.208c-2.225,0.254-4.722,0.586-6.921-0.024c-4.074-1.13-1.677-3.681,0.626-5.149
								c3.509-2.235,7.588-3.857,10.599-6.801c2.315-2.264,2.955-6.37-0.981-7.292c-4.659-1.091-10.29,1.023-14.821,1.972
								c-2.312,0.484-4.704,1.018-7.079,0.996c-2.235-0.021-3.78-1.007-5.342-2.581c-4.267-4.302-6.268-10.24-9.844-15.04
								c-2.35-3.154-6.311-4.887-9.997-5.954c-6.645-1.922-15.669-1.271-21.044,3.546c-4.76,4.267-6.014,11.553-9.605,16.696
								c-3.927,5.623-10.845,8.793-17.563,9.338c-1.734,0.141-5.229,0.502-6.68-0.734c-1.505-1.282-0.955-4.591-0.618-6.221
								c0.574-2.776,1.96-5.869,4.453-7.429c2.649-1.658,6.109-1.217,9.082-1.418c2.854-0.193,3.972-1.179,5.252-3.699
								c1.435-2.823,2.377-5.94,3.008-9.036c0.997-4.896,0.015-9.485-0.134-14.398c-0.081-2.699-0.128-5.405-0.388-8.094
								c-0.196-2.02-0.376-4.451-1.485-6.218c-1.43-2.278-4.718-1.259-6.938-0.946c-4.142,0.583-8.234,1.759-12.016,3.554
								c-4.241,2.014-6.433,4.475-8.27,8.745c-3.949,9.176-5.41,19.331-7.704,28.993c-0.703,2.959-1.235,6.96-3.129,9.461
								c-1.328,1.753-2.67,0.232-3.17-1.346c-0.986-3.111-0.686-6.752-0.539-9.957c0.218-4.749,0.694-9.485,1.123-14.218
								c0.432-4.774,0.874-9.557,0.997-14.351c0.086-3.356,0.25-7.144-0.917-10.355c-2.281-6.271-9.718,0.925-12.36,3.304
								c-7.781,7.006-14.478,15.574-19.643,24.667c-4.313,7.592-9.121,17.898-5.908,26.737c3.602,9.911,13.452,15.63,22.853,19.053
								c11.415,4.157,23.625,5.877,35.631,7.332c5.582,0.676,11.176,1.251,16.753,1.971c3.048,0.394,8.351,2.379,9.992-1.385
								c1.253-2.875,0.259-6.21,1.085-9.175c1.133-4.07,6.069-1.703,8.421-0.091c5.102,3.495,7.981,9.879,10.775,15.175
								c3.147,5.965,6.331,12.799,11.959,16.847c2.303,1.656,4.894,2.526,7.651,3.065c2.201,0.431,4.521,0.708,6.394,2.051
								c2.567,1.84,3.68,5.041,4.536,7.944c0.967,3.281,1.61,6.699,1.501,10.131c-0.181,5.708-2.73,10.659-6.605,14.754
								c-2.072,2.189-4.403,4.122-6.784,5.964c-1.244,0.963-2.508,1.899-3.778,2.828c-1.302,0.953-2.949,1.82-4.045,3.006
								c-1.559,1.688-1.454,4.462-1.466,6.6c-0.015,2.495,0.258,5.262-0.634,7.648c-1.049,2.806-4.163,3.416-6.784,4.117
								c-3.046,0.815-6.182,1.221-9.331,1.319c-4.304,0.134-9.157-0.945-13.368,0.185c-4.369,1.172-4.76,6.054-4.704,9.884
								c0.033,2.255,0.234,5.359,2.564,6.497c1.955,0.954,4.488,0.187,6.442-0.364c5.833-1.647,11.384-3.645,17.238-0.673
								c3.867,1.963,6.704,5.867,9.448,9.13c3.106,3.692,6.163,7.425,9.289,11.1c7.03,8.266,14.34,16.569,22.922,23.273
								c5.625,4.395,14.258,10.207,21.618,6.457c1.007-0.513,2.618-1.234,2.599-2.469c-0.02-1.316-1.29-3.041-1.9-4.133
								c-2.322-4.164-4.953-8.149-7.37-12.257c-0.561-0.954-4.366-6.348-2.689-7.228c0.916-0.48,2.933,0.569,3.751,0.894
								c2.045,0.813,4.026,1.788,6.003,2.75c3.658,1.78,7.552,4.234,11.574,5.083c1.909,0.404,1.98-0.3,2.463-2.135
								c1.085-4.122,1.642-8.377,1.822-12.631c0.196-4.624-0.06-9.265-0.693-13.848c-0.491-3.555-0.83-7.092-3.464-9.745
								c-4.03-4.06-10.143-5.73-10.909-12.189c-0.665-5.608,1.273-12.886,4.558-17.51c1.524-2.145,3.564-2.808,5.675-1.043
								c2.609,2.181,4.242,5.684,5.79,8.631c1.989,3.787,3.809,7.668,5.971,11.362c1.577,2.695,3.513,6.081,6.436,7.521
								c3.172,1.563,6.186-1.206,8.437-3.202c4.258-3.776,7.814-8.383,11.005-13.072c3.197-4.7,6.136-9.683,8.278-14.96
								c0.765-1.884,3.457-7.823,1.144-9.516c-1.573-1.152-5.065-0.419-6.846-0.413
								C1705.38,1676.38,1701.655,1676.062,1698.476,1674.269z"/>
							<path style="fill:#747F4E;" d="M1635.032,1381.057c-0.79,7.4-13.028,9.04-18.569,9.875
								c-10.745,1.618-21.746,1.667-32.585,1.351c-4.113-0.12-8.225-0.315-12.329-0.607c-2.498-0.178-5.238-1.005-6.979,1.302
								c-2.616,3.465-2.935,8.907-3.688,13.024c-0.871,4.761-1.613,10.184-4.396,14.279c-1.836,2.701-5.159,3.867-7.836,5.581
								c-3.808,2.438-7.471,5.108-11.032,7.891c-7.734,6.044-16.001,12.868-21.148,21.364c-1.595,2.632-3.265,6.097-2.231,9.233
								c1.15,3.488,5.059,4.609,8.234,5.427c11.245,2.895,22.907,4.424,34.458,5.441c11.468,1.01,23.404,1.742,34.834-0.049
								c3.326-0.521,7.268-1.21,9.962-3.404c2.331-1.898,1.414-3.972,2.003-6.53c0.89-3.864,3.615-7.327,6.084-10.315
								c3.726-4.507,7.964-8.59,12.299-12.503c10.586-9.557,22.024-18.193,33.694-26.375c20.639-14.471,42.538-27.078,63.376-41.271
								c9.71-6.614,19.471-13.335,28.404-20.986c2.65-2.27,5.451-4.654,7.474-7.528c1.681-2.389,1.302-3.825-0.485-6.156
								c-6.03-7.863-18.449-9.128-27.531-9.849c-13.501-1.072-27.105-0.295-40.612,0.274c-6.286,0.265-12.578,0.536-18.871,0.526
								c-7.393-0.012-14.57-0.022-21.938,0.905c-2.242,0.282-4.467,1.834-6.478,2.861c-2.45,1.252-4.895,2.514-7.335,3.786
								c-4.433,2.311-8.849,4.655-13.247,7.031c-9.004,4.865-17.935,9.867-26.788,15.003c-8.623,5.003-17.173,10.133-25.645,15.389
								c12.037-0.036,24.058-0.795,36.087-1.134c5.356-0.151,10.724-0.247,16.08-0.029c3.944,0.161,8.049,0.38,11.855,1.515
								C1632.318,1377.025,1635.323,1378.305,1635.032,1381.057z"/>
							<g>
								<g>
									<path style="fill:#747F4E;" d="M2813.117,1526.988c0.692,4.632,4.98,8.503,8.07,11.685c1.698,1.748,3.47,3.46,4.969,5.387
										c0.5,0.643,1.915,2.222,1.695,3.185c-0.516,2.256-10.796-4.766-11.822-5.424c-6.617-4.243-13.128-8.97-20.255-12.337
										c-0.896-0.424-2.407-1.371-3.441-1.234c-1.096,0.145-1.564,1.461-1.879,2.357c-1.109,3.158-1.149,6.664-2.532,9.733
										c-1.523,3.377-4.336,1.976-6.073-0.515c-2.34-3.356-3.376-7.52-5.996-10.695c-5.592-6.775-8.735,5.267-10.122,9.129
										c-1.029,2.866-2.008,6.501-4.222,8.723c-2.251,2.26-4.377,0.249-5.501-2.027c-1.802-3.648-2.645-7.789-5.285-10.994
										c-2.182-2.649-6.131-4.432-9.157-5.959c-4.52-2.28-9.599-3.741-14.678-2.813c-4.84,0.885-10.326,3.734-11.257,8.926
										c-0.841,4.691-0.147,9.531-1.064,14.218c-0.415,2.124-1.189,4.192-2.887,5.622c-2.11,1.777-4.874,1.94-7.443,2.563
										c-3.781,0.918-6.195,2.657-5.934,6.58c0.235,3.527,1.369,7.022,2.38,10.386c1.174,3.907,2.471,7.783,3.46,11.743
										c0.648,2.593,1.722,6.13,0.737,8.776c-0.259,0.694-0.872,1.117-0.907,1.857c-0.041,0.844,0.73,1.88,1.153,2.547
										c1.775,2.798,4.037,5.311,6.182,7.824c1.161,1.36,10.558,10.805,8.438,12.576c-0.975,0.814-3.219,0.316-4.273,0.004
										c-1.799-0.533-3.464-1.5-5.032-2.508c-4.174-2.682-7.951-5.954-11.908-8.936c-4.286-3.23-8.808-6.375-13.884-8.227
										c-4.867-1.776-10.285-2.318-15.436-2.305c-4.794,0.012-10.242,0.426-14.465,2.927c-4.575,2.71-5.009,7.676-5.111,12.487
										c-0.03,1.417,0.13,3.415-1.042,4.453c-0.731,0.646-1.918,0.974-2.81,1.305c-4.248,1.579-8.722,2.622-13.157,3.513
										c-6.535,1.313-13.172,2.163-19.829,2.501c-1.831,0.093-3.692,0.215-5.524,0.155c-0.715-0.024-1.387-0.023-1.935-0.552
										c-0.986-0.952-0.782-2.79-0.698-4.016c0.151-2.182,1.483-7.121-1.467-8.032c-3.606-1.115-8.117,3.294-10.578,5.299
										c-3.388,2.761-7.19,6.646-11.674,7.433c-2.149,0.377-3.943,0.744-5.876,1.849c-2.137,1.223-4.063,2.8-5.949,4.372
										c-3.449,2.875-7.136,6.71-11.641,7.82c-1.103,0.272-2.216-0.093-3.014,0.762c-0.712,0.762-1.083,2.048-1.445,2.996
										c-2.425,6.344-3.376,13.41-6.384,19.514c-0.248,0.503-0.605,1.433-1.244,1.539c-1.208,0.201-3.615-2.405-4.266-3.286
										c-2.148-2.906-1.441-6.476-0.108-9.568c1.456-3.376,3.611-6.382,5.245-9.665c1.434-2.882,2.059-5.316,0.012-8.024
										c-5.099-6.748-14.822-8.555-22.765-8.877c-4.569-0.185-12.066-0.653-14.129,4.682c-2.091,5.406,3.301,12.273,5.981,16.512
										c3.017,4.772,8.176,11.244,7.269,17.304c-0.441,2.944-2.425,4.492-5.097,5.398c-4.368,1.482-8.945,2.235-13.264,3.886
										c-4.215,1.612-8.438,4.039-8.862,8.978c-0.422,4.919,1.847,10.124-0.178,14.883c-1.658,3.897-5.17,3.719-8.833,3.118
										c-4.006-0.657-7.917-1.996-11.972-2.35c-3.359-0.293-6.239,1.008-6.506,4.819c-0.244,3.494,2.91,6.298,5.185,8.5
										c1.726,1.671,5.347,4.386,4.112,7.192c-1.509,3.427-6.885,2.233-9.615,1.481c-3.09-0.851-7.114-2.119-9.236-4.693
										c-3.036-3.682-3.415-9.23-4.01-13.764c-0.647-4.929-1.263-9.623-3.876-13.948c-2.703-4.474-6.357-8.286-10.223-11.766
										c-2.676-2.408-5.908-4.564-8.185-7.375c-1.754-2.166,0.01-3.271,2.338-3.689c3.042-0.546,6.16,0.762,8.815,2.111
										c3.636,1.847,7.009,4.188,10.423,6.405c7.09,4.603,15.19,9.84,24.012,9.368c9.204-0.493,18.852-8.008,22.519-16.304
										c10.033-22.697-21.591-36.985-37.989-42.746c-6.374-2.239-13.016-3.342-19.442-5.373
										c-5.097-1.611-10.019-3.748-14.655-6.41c-7.479-4.296-13.867-10.021-20.745-15.158c-6.85-5.116-14.323-8.842-22.876-9.99
										c-7.76-1.041-15.817-0.864-23.554,0.266c-18.281,2.67-34.716,11.722-47.781,24.646
										c-8.767,8.672-16.005,18.801-22.113,29.485c-6.359,11.123-11.09,23.002-15.9,34.848
										c-4.461,10.987-8.892,22.253-15.461,32.189c-6.816,10.309-16.189,18.985-25.326,27.201
										c-7.502,6.745-15.814,13.103-22.143,21.023c-4.991,6.246-5.766,13.846-6.011,21.627c-0.311,9.856,0.72,19.829,2.877,29.446
										c1.726,7.697,4.111,16.278,9.268,22.46c4.051,4.855,12.528,7.12,18.171,3.704c4.691-2.84,5.553-8.591,8.667-12.691
										c1.458-1.919,3.43-2.987,5.873-2.833c4.639,0.291,6.125,6.368,7.425,9.964c2.315,6.402,4.808,12.342,8.344,18.177
										c1.611,2.658,3.251,5.345,4.331,8.272c1.041,2.82,1.26,5.771,1.513,8.743c0.408,4.786,0.384,9.787,1.583,14.465
										c0.808,3.153,2.527,5.796,5.968,6.253c3.785,0.503,6.191-1.021,8.928-3.39c3.792-3.283,7.246-6.967,10.678-10.617
										c3.063-3.257,7.259-6.636,9.071-10.797c2.063-4.739,1.969-10.293,2.119-15.36c0.178-6.013,0.317-12.14,2.036-17.953
										c1.788-6.043,5.095-11.545,8.023-17.082c2.171-4.105,4.342-8.539,4.007-13.313c-0.332-4.732-2.972-9.163-5.058-13.308
										c-4.954-9.84-10.804-22.331-5.082-33.136c2.359-4.455,6.484-7.531,10.368-10.575c4.306-3.374,8.3-6.918,11.19-11.622
										c5.237-8.522,7.96-18.283,11.685-27.494c1.916-4.737,5.509-14.66,12.375-12.687c6.596,1.896,10.814,8.719,8.69,15.246
										c-2.448,7.524-8.771,13.749-13.675,19.732c-5.389,6.573-11.294,13.791-13.133,22.304c-1.826,8.458-0.63,17.929,0.603,26.38
										c1.24,8.504,2.8,18.509,7.722,25.788c2.356,3.485,8.239,0.501,11.254-0.643c6.668-2.532,13.115-5.618,19.698-8.356
										c5.636-2.344,11.893-5.223,18.095-5.459c1.729-0.066,3.783,0.124,4.967,1.556c1.667,2.015,1.257,5.912,0.626,8.221
										c-1.823,6.669-9.815,6.87-15.474,7.062c-6.544,0.223-14.802-0.27-19.924,4.608c-9.028,8.597-2.01,22.941-2.736,33.474
										c-0.214,3.107-1.597,5.263-4.923,4.859c-3.418-0.415-6.605-2.119-9.935-2.932c-3.184-0.778-6.934-0.94-9.365,1.666
										c-2.181,2.338-2.566,6.131-2.845,9.156c-0.848,9.197,0.339,18.536-1.169,27.683c-0.605,3.668-1.765,7.783-4.876,10.142
										c-3.044,2.308-6.093,0.189-8.732-1.654c-3.177-2.218-6.507-4.318-10.51-3.024c-3.724,1.204-6.688,4.143-9.424,6.808
										c-3.071,2.992-6.086,6.175-9.814,8.363c-4.301,2.524-8.666,2.754-13.456,1.685c-10.132-2.261-23.345-7.071-25.069-18.78
										c-0.781-5.303,0.298-10.605,0.52-15.904c0.189-4.534-0.523-9.298-4.936-11.611c-4.087-2.141-8.452-0.06-11.457,2.939
										c-3.971,3.964-6.349,9.536-7.196,15.027c-0.938,6.078,0.165,12.251,1.452,18.192c0.939,4.335,2.876,9.531,2.068,14.021
										c-0.696,3.862-4.715,5.883-8.287,6.08c-4.162,0.23-8.188-0.419-12.131,1.371c-4.314,1.959-7.224,5.773-9.894,9.534
										c-2.727,3.84-5.352,7.753-8.06,11.607c-7.651,10.888-15.702,22.017-25.211,31.375c-7.845,7.72-17.65,12.887-27.476,17.616
										c-3.924,1.889-7.914,3.693-11.675,5.899c-2.585,1.517-5.438,3.327-6.958,6.006c-2.208,3.893-0.774,8.739,2.031,11.877
										c3.205,3.585,7.621,5.987,11.551,8.669c4.756,3.246,9.309,6.917,12.461,11.808c4.086,6.34,5.194,13.922,4.622,21.338
										c-0.617,7.994-2.25,17.378-8.917,22.651c-5.382,4.257-12.622,5.041-19.256,4.897c-7.28-0.158-14.466-1.459-21.666-2.421
										c-4.894-0.654-11.406-1.982-16.05,0.388c-2.077,1.061-2.807,2.79-3.401,4.936c-1.171,4.231-2.113,8.526-2.959,12.833
										c-2.235,11.374-3.781,22.908-4.583,34.472c-0.41,5.912-0.616,11.845-0.481,17.771c0.107,4.684-0.051,10.021,1.473,14.507
										c2.843,8.37,11.462,14.159,19.048,17.792c9.725,4.657,20.9,7.004,31.669,5.842c10.619-1.146,22.188-6.28,29.641-14.049
										c11.667-12.162,7.316-29.4,11.43-44.284c1.304-4.719,3.817-8.136,7.988-10.717c4.071-2.519,8.677-4.116,12.483-7.072
										c4.014-3.117,5.226-6.853,5.978-11.723c0.694-4.491,0.789-10.063,3.606-13.861c2.849-3.842,8.225-1.773,11.947-0.615
										c4.251,1.323,9.861,3.479,14.208,1.415c7.131-3.385,9.001-13.883,17.568-15.169c2.941-0.442,4.687,1.309,6.549,3.378
										c2.693,2.991,4.992,6.343,7.288,9.64c4.919,7.064,9.527,15.093,16.001,20.883c3.128,2.798,7.128,4.617,10.698,6.772
										c4.519,2.729,8.898,5.82,12.264,9.937c6.788,8.302,7.329,19.314,10.461,29.156c0.821,2.58,2.178,6.788,5.484,6.921
										c3.931,0.159,5.272-3.809,5.783-6.979c0.819-5.081,0.627-10.271,1.524-15.346c0.34-1.92,0.759-5.593,2.38-6.917
										c1.314-1.073,3.474-0.245,4.948-0.055c4.664,0.602,3.936-3.409,2.767-6.52c-1.953-5.197-5.385-9.904-9.686-13.399
										c-4.394-3.57-9.445-6.233-13.949-9.657c-5.657-4.301-9.963-9.919-14.246-15.531c-3.951-5.177-7.744-10.539-10.819-16.291
										c-2.221-4.155-4.303-8.749-4.607-13.518c-0.096-1.515-0.314-6.984,2.337-5.479c2.95,1.675,5.355,5.068,7.563,7.55
										c7.394,8.311,14.463,17.589,23.344,24.388c3.702,2.834,7.786,5.113,11.644,7.719c5.052,3.414,9.885,7.406,13.908,12.004
										c2.106,2.407,2.618,6.052,3.288,9.075c1.104,4.988,2.071,10.007,3.499,14.916c1.449,4.98,3.319,10.007,6.416,14.218
										c2.988,4.063,7.076,7.23,11.451,9.677c4.176,2.335,8.708,4.089,13.364,5.188c3.166,0.748,7.059,1.604,10.305,0.809
										c1.944-0.476,0.416-2.626-0.204-3.869c-1.534-3.076-3.313-6.03-4.959-9.046c-1.78-3.262-3.587-6.598-4.76-10.136
										c-0.782-2.358-1.444-4.901,0.577-6.737c2.562-2.328,5.196-4.581,7.801-6.86c1.708-1.495,3.461-3.635,5.894-3.803
										c3.576-0.247,6.815,2.823,9.784,4.378c1.575,0.825,3.322,1.538,5.136,1.408c1.92-0.137,3.118-1.288,4.663-2.252
										c3.317-2.068,7.193-2.996,10.105-5.748c6.336-5.986,0.884-16.288-1.005-23.117c-1.214-4.388-1.771-8.907-1.004-13.429
										c1.031-6.085,4.244-10.865,7.378-16.024c5.075-8.354,6.996-18.244,11.547-26.866c1.772-3.357,4.028-6.84,7.834-8.032
										c3.776-1.183,8.752-0.915,12.141,1.258c1.389,0.891,2.709,2.372,2.657,4.135c-0.041,1.391-1.209,1.401-2.401,1.545
										c-3.027,0.365-7.713,0.33-8.203,4.258c-0.44,3.524,1,7.529,2.252,10.748c1.522,3.914,3.58,8.003,6.704,10.892
										c2.835,2.623,5.396,2.497,8.906,1.557c4.307-1.154,8.573-2.63,12.574-4.61c3.368-1.667,7.438-3.932,9.069-7.523
										c1.504-3.311-0.578-4.687-3.133-6.426c-3.343-2.276-7.068-4.265-9.91-7.188c-2.468-2.538-2.354-4.959-0.022-7.578
										c2.863-3.215,6.998-5.426,10.927-7.043c3.413-1.405,7.928-3.048,11.675-2.129c2.728,0.668,1.932,3.865,1.43,5.932
										c-0.962,3.963-2.49,7.778-3.657,11.683c-1.135,3.799-2.317,8.005-1.74,12.006c0.512,3.541,3.037,6.724,5.292,9.371
										c5.639,6.618,12.815,11.853,19.757,17.006c6.098,4.526,12.848,8.879,17.846,14.674c1.5,1.739,3.107,3.92,3.123,6.324
										c0.017,2.537-1.912,4.268-3.883,5.548c-8.467,5.498-17.914,4.012-26.934,0.85c-9.56-3.352-18.947-7.874-29.273-8.065
										c-5.392-0.1-11.109,0.885-15.827,3.598c-4.41,2.536-7.949,6.378-12.117,9.275c-4.222,2.934-9.517-0.775-14.207-0.114
										c-4.893,0.69-7.709,5.918-9.999,9.748c-1.023,1.711-1.985,3.677-3.441,5.073c-2.156,2.068-5.216,3.554-7.93,4.741
										c-3.892,1.701-9.135,2.417-12.067,5.746c-3.728,4.231-1.284,11.48,0.034,16.225c4.156,14.965,15.872,38.855,35.245,33.425
										c5.74-1.609,11.373-5.003,17.515-4.287c5.534,0.645,10.513,4.167,16.14,4.163c4.783-0.003,9.301-2.678,13.684-4.273
										c3.032-1.103,6.269-2.063,7.953,1.346c2.657,5.379,1.656,12.671,0.951,18.373c-1.018,8.225-2.862,16.349-4.94,24.364
										c-1.592,6.14-3.357,12.238-5.285,18.282c-0.341,1.07-0.586,2.309-1.088,3.32c-1.427,2.875-5.258,2.31-7.819,1.767
										c-5.861-1.241-11.506-3.54-17.236-5.255c-4.641-1.39-8.535,0.823-12.546,3.039c-4.154,2.294-8.679,5.042-13.603,4.843
										c-2.218-0.089-4.279-1.022-6.435-1.472c-2.601-0.543-5.243-0.88-7.87-1.267c-6.479-0.954-12.977-2.071-19.088-4.508
										c-5.83-2.324-11.195-5.572-16.79-8.38c-4.808-2.413-10.014-4.511-15.5-4.042c-4.575,0.391-9.095,2.299-11.675,6.223
										c-2.074,3.155-2.862,6.921-3.964,10.476c-0.985,3.18-2.301,6.634-5.45,8.24c-1.977,1.009-4.172,1.035-6.34,0.985
										c-2.848-0.066-5.714-0.245-8.52-0.754c-3.224-0.584-6.566-1.627-8.894-4.054c-1.704-1.777-2.626-4.074-3.699-6.248
										c-1.353-2.739-3.056-5.177-5.449-7.112c-9.005-7.281-21.755-5.668-32.142-9.537c-3.802-1.416-6.854-3.279-8.483-7.094
										c-1.447-3.387-1.811-7.198-1.99-10.839c-0.413-8.423,0.647-16.932-0.389-25.323c-0.39-3.161-1.101-6.633-3.227-9.124
										c-2.735-3.203-7.37-3.747-11.318-3.4c-5.794,0.51-11.403,2.359-17.162,3.148c-7.327,1.003-14.893,0.681-22.275,0.771
										c-6.672,0.082-13.352,0.14-20.015,0.523c-5.092,0.293-10.627,0.496-15.43,2.376c-10.275,4.021-16.34,14.31-26.199,18.987
										c-10.094,4.789-21.789,0.354-32.403,1.474c-5.037,0.531-10.226,2.465-12.025,7.606c-0.828,2.367-1.099,4.911-2.144,7.205
										c-1.095,2.405-3.199,4.021-5.163,5.7c-8.189,7.003-18.499,13.741-22.487,24.241c-4.243,11.173,1.439,23.184-1.662,34.431
										c-0.796,2.888-2.558,5.319-4.258,7.742c-1.712,2.44-3.549,4.8-5.584,6.98c-2.807,3.007-5.994,5.605-9.622,7.558
										c-5.476,2.948-10.977,4.638-14.85,9.856c-3.526,4.751-5.759,10.509-8.464,15.738c-3.295,6.367-6.686,12.684-9.967,19.058
										c-6.07,11.792-11.908,23.904-15.143,36.826c-1.514,6.048-2.683,12.418-2.174,18.671c0.493,6.06,2.412,11.835,4.194,17.609
										c1.702,5.514,3.247,11.166,3.048,16.99c-0.118,3.462-1.017,6.866-1.836,10.215c-2.422,9.896-5.155,19.757-6.323,29.904
										c-0.555,4.819-0.802,9.771-0.021,14.58c0.891,5.489,3.35,10.778,6.292,15.455c6.659,10.59,16.426,18.793,23.605,29.01
										c6.545,9.314,8.003,21.39,15.011,30.418c1.764,2.272,3.862,4.247,6.391,5.64c2.077,1.144,4.339,1.897,6.453,2.966
										c5.14,2.6,9.193,7.109,12.937,11.384c3.693,4.218,7.096,8.709,11.013,12.727c3.078,3.158,6.429,5.961,10.994,6.231
										c5.861,0.347,11.572-1.801,16.826-4.167c6.046-2.722,11.851-5.96,18.007-8.44c4.934-1.987,9.219-2.117,14.125-0.007
										c3.948,1.698,7.757,4.053,12.214,3.886c5.03-0.189,10.174-3.181,14.509-5.503c4.923-2.637,9.664-5.599,14.424-8.516
										c4.326-2.651,8.664-5.361,13.269-7.51c2.899-1.353,6.532-2.986,9.818-2.308c4.14,0.854,7.476,4.815,9.947,7.964
										c3.015,3.844,5.558,8.092,8.935,11.644c3.4,3.576,7.386,5.237,12.293,5.591c5.212,0.376,10.432-0.518,15.64-0.098
										c4.857,0.392,8.637,2.405,10.845,6.868c2.058,4.16,2.501,8.841,2.141,13.416c-0.833,10.589-4.977,20.616-6.389,31.122
										c-0.724,5.387-0.762,10.908,0.571,16.207c1.391,5.528,4.374,10.473,7.543,15.153c6.187,9.137,13.832,17.132,20.608,25.812
										c6.599,8.453,12.246,17.774,14.188,28.466c0.499,2.747,0.582,5.524,0.971,8.282c0.408,2.895,1.092,5.745,1.786,8.582
										c1.537,6.279,3.246,12.585,3.578,19.072c0.266,5.195-0.201,10.746-3.373,15.056c-2.504,3.403-5.968,5.962-8.571,9.291
										c-6.508,8.32-7.427,20.181-8.113,30.348c-0.715,10.614-0.631,21.368,0.397,31.96c0.417,4.295,1.012,8.456,2.901,12.39
										c2.224,4.631,5.527,8.649,8.751,12.608c3.645,4.475,7.304,8.963,10.154,14.003c3.405,6.022,5.51,12.785,7.076,19.495
										c3,12.851,3.316,25.981,4.423,39.069c0.39,4.609,0.67,9.677,2.357,14.033c1.642,4.24,4.509,8.044,7.115,11.726
										c6.435,9.092,13.554,17.931,15.368,29.227c0.998,6.216,0.551,12.417,0.348,18.668c-0.082,2.526-0.125,5.032,0.728,7.447
										c0.987,2.793,2.784,5.266,4.791,7.415c3.58,3.834,8.504,7.693,13.808,8.61c4.447,0.769,8.843-0.68,12.917-2.34
										c5.155-2.1,10.154-4.544,15.464-6.253c5.913-1.903,12.111-2.929,18.199-4.11c11.37-2.205,23.175-4.102,33.84-8.812
										c4.229-1.867,8.356-4.289,11.474-7.758c2.128-2.368,3.804-5.21,5.642-7.807c4.552-6.432,9.189-12.803,13.804-19.189
										c11.459-15.857,22.888-31.752,33.665-48.084c4.971-7.533,9.822-15.16,14.268-23.017c3.275-5.786,6.512-11.755,8.634-18.079
										c2.804-8.359,1.408-16.861-1.497-24.996c-2.649-7.418-6.923-15.893-1.506-23.127c2.425-3.238,5.804-5.841,9.005-8.263
										c3.738-2.829,7.632-5.446,11.504-8.086c8.074-5.506,16.374-11.062,23.071-18.253c2.963-3.181,5.62-6.74,7.321-10.764
										c1.555-3.678,1.893-7.615,2.513-11.519c1.768-11.132,3.392-22.565,1.956-33.832c-0.681-5.345-1.964-11.544-5.637-15.703
										c-2.17-2.457-5.288-3.724-7.043-6.591c-2.364-3.86-3.278-8.891-4.054-13.284c-0.964-5.453-1.427-10.992-1.612-16.523
										c-0.384-11.49,0.339-23.144,2.494-34.445c1.455-7.631,4.115-14.196,8.246-20.77c10.341-16.455,23.989-30.837,36.735-45.413
										c12.439-14.225,25.899-28.675,34.865-45.453c5.259-9.84,8.504-21.013,11.358-31.749c2.936-11.044,5.3-22.46,5.742-33.91
										c0.15-3.878,0.119-7.881-0.769-11.68c-0.511-2.188-1.421-4.985-3.595-6.069c-1.969-0.982-4.521-0.292-6.489,0.322
										c-3.304,1.031-6.445,2.591-9.529,4.14c-7.922,3.98-15.649,8.395-23.918,11.641c-7.225,2.837-15.84,5.377-23.464,2.57
										c-4.213-1.551-9.713-4.163-11.431-8.688c-1.097-2.888-0.219-5.893,0.305-8.798c0.566-3.137,0.44-6.021-1.55-8.648
										c-2.349-3.102-5.689-5.501-8.784-7.796c-8.702-6.453-18.001-12.271-25.618-20.058c-2.88-2.945-5.601-5.893-6.519-9.98
										c-1.121-4.992-2.097-9.884-4.121-14.623c-1.755-4.109-4.342-7.238-6.929-10.832c-3.561-4.948-6.714-10.253-8.774-16.011
										c-2.021-5.646-3.067-11.578-4.173-17.454c-0.387-2.055-0.719-4.169-1.368-6.163c-0.85-2.612-2.477-5.067-3.867-7.419
										c-3.42-5.788-7.352-11.244-11.054-16.849c-3.748-5.675-6.79-11.567-9.797-17.653c-2.932-5.936-6.208-11.689-9.36-17.51
										c-2.493-4.605-5.119-9.327-6.575-14.386c-0.928-3.227-1.383-7.041,0.886-9.837c1.997-2.461,3.809-2.462,6.016-0.365
										c3.229,3.067,5.597,7.176,7.954,10.909c3.7,5.861,7.24,11.82,10.947,17.677c7.833,12.378,16.346,24.292,24.535,36.432
										c3.374,5.001,5.518,10.372,7.261,16.11c1.547,5.093,3.607,9.561,6.766,13.879c7.294,9.969,17.368,17.542,24.434,27.692
										c6.518,9.362,9.125,20.839,11.447,31.831c1.116,5.282,2.097,10.595,3.33,15.852c0.898,3.827,1.727,8.156,4.068,11.409
										c4.293,5.965,12.342,5.757,18.81,4.406c10.297-2.151,20.032-7.074,29.2-12.072c11.18-6.095,21.918-12.982,32.505-20.045
										c21.422-14.292,42.531-30.875,56.911-52.58c5.613-8.472,10.302-18.064,11.361-28.292
										c0.893-8.624-0.878-18.127-7.372-24.306c-4.995-4.753-11.623-6.718-17.943-9.019c-2.388-0.869-4.948-1.794-6.908-3.468
										c-1.329-1.135-2.169-2.688-3.022-4.189c-1.48-2.604-2.739-5.323-4.007-8.034c-0.853-1.822-3.445-9.409-6.549-8.357
										c-1.469,0.498-2.392,2.997-3.038,4.223c-3.277,6.219-6.558,12.593-12.132,17.104c-3.261,2.639-7.146,4.39-11.312,4.956
										c-3.773,0.512-6.479,0.168-7.088-4.015c-0.567-3.897,0.151-7.889-0.039-11.807c-0.162-3.324-1.399-8.188-5.684-7.991
										c-3.76,0.173-6.022,4.248-9.654,4.745c-5.565,0.761-4.076-7.119-4.38-10.255c-0.538-5.541-4.467-9.963-8.079-13.903
										c-3.295-3.593-6.965-6.971-9.693-11.039c-2.186-3.259-3.485-7.115-1.531-10.809c1.346-2.546,4.216-5.651,7.402-5.351
										c2.705,0.255,4.764,2.708,6.274,4.733c2.263,3.036,4.041,6.418,5.897,9.709c1.796,3.185,3.597,6.456,5.972,9.256
										c2.082,2.454,4.593,3.456,7.286,5.056c9.326,5.542,18.207,12.091,29.564,11.606c4.556-0.195,9.552-1.903,14.092-1.191
										c3.673,0.576,6.811,4.315,9.607,6.537c3.722,2.958,7.658,5.633,12.071,7.453c5.647,2.33,11.653,3.069,17.724,3.079
										c12.043,0.02,23.794-2.776,35.791-3.182c11.258-0.382,24.552,1.815,32.774,10.088c3.803,3.826,6.986,8.58,11.415,11.733
										c2.467,1.757,5.26,2.484,8.186,3.049c2.365,0.457,5.091,1.031,6.463,3.256c2.001,3.245-3.764,6.471-3.808,9.653
										c-0.02,1.406,1.287,3.045,2.049,4.145c1.208,1.745,2.589,3.37,4.023,4.931c3.151,3.429,6.627,6.628,10.389,9.38
										c1.801,1.318,5.08,4.104,7.554,3.333c2.376-0.74,2.926-4.163,3.267-6.235c0.508-3.088,0.553-6.231,1.038-9.321
										c0.228-1.457,0.651-4.482,2.784-3.63c2.273,0.908,3.655,3.97,4.519,6.052c3.457,8.333,4.799,17.657,6.676,26.43
										c2.561,11.967,5.316,23.933,9.414,35.483c2.006,5.655,4.232,11.297,7.374,16.427c3.337,5.447,7.234,10.531,10.76,15.853
										c4.087,6.167,7.436,12.748,10.904,19.272c3.381,6.361,6.903,12.694,9.959,19.22c2.662,5.686,4.546,11.634,6.549,17.569
										c0.839,2.485,1.982,7.538,5.073,8.242c1.636,0.373,3.475-0.75,4.849-1.466c2.148-1.119,4.146-2.519,5.958-4.125
										c3.854-3.415,6.846-7.716,9.143-12.302c5.366-10.712,7.57-23.42,7.25-35.338c-0.182-6.78-1.41-13.474-2.469-20.156
										c-0.92-5.802-1.96-11.874-1.147-17.751c0.29-2.097,0.749-3.991,2.261-5.539c1.357-1.391,3.093-2.383,4.725-3.41
										c4.492-2.825,7.724-5.791,9.988-10.666c5.698-12.267,13.679-23.333,22.689-33.372c3.986-4.44,8.506-8.092,10.469-13.887
										c1.432-4.228,2.081-9.726,6.076-12.427c9.568-6.469,22.954-4.415,33.377-1.573c1.885,0.514,3.959,0.89,5.434,2.267
										c1.376,1.285,2.092,3.115,2.564,4.897c1.101,4.157,0.959,8.561,2.213,12.683c1.49,4.895,6.232,8.445,10.091,11.482
										c4.504,3.544,9.481,6.817,12.939,11.475c3.581,4.824,3.373,10.635,3.308,16.376c-0.033,2.894-0.06,5.8,0.51,8.65
										c0.389,1.95,0.958,4.572,2.711,5.8c3.041,2.129,7.174-1.992,9.236-3.834c1.145-1.023,1.067-2.847,1.304-4.333
										c0.314-1.971,0.623-3.943,0.926-5.916c0.569-3.704,1.117-7.412,1.644-11.122c2.121-14.915,3.91-29.876,5.366-44.87
										c2.976-30.641,4.561-61.417,4.768-92.201c0.176-26.255-0.646-52.516-2.477-78.708c-1.793-25.656-4.556-51.244-8.288-76.69
										c-3.669-25.017-8.276-49.896-13.813-74.566c-5.478-24.41-11.865-48.616-19.145-72.55
										c-7.218-23.729-15.314-47.19-24.265-70.321c-8.889-22.972-18.623-45.618-29.17-67.878
										c-10.492-22.141-21.79-43.901-33.863-65.221c-12.025-21.236-24.817-42.038-38.341-62.352
										c-13.487-20.258-27.701-40.031-42.606-59.269c-14.879-19.205-30.445-37.878-46.657-55.972
										c-13.713-15.305-27.889-30.196-42.501-44.645C2812.676,1520.493,2812.637,1523.791,2813.117,1526.988z M2675.106,2145.667
										c-3.712,7.684-13.16,7.375-20.317,5.909c-3.988-0.817-7.876-2.063-11.705-3.43c-3.857-1.376-7.658-2.941-10.528-5.977
										c-5.5-5.822-6.24-15.549-5.698-23.137c0.347-4.862,1.166-9.68,1.793-14.51c0.555-4.273,1.322-8.912,0.615-13.212
										c-1.367-8.321-12.146-12.026-18.118-16.422c-3.015-2.219-3.378-5.381-3.587-8.949c-0.234-3.995,0.125-8.237-0.94-12.134
										c-1.054-3.855-4.385-6.144-7.245-8.615c-3.218-2.78-3.763-6.233-2.993-10.313c1.501-7.961,7.131-14.598,13.304-19.517
										c6.555-5.223,14.385-9.151,22.562-11.046c3.567-0.827,7.292-1.282,10.95-0.914c3.893,0.392,6.056,2.087,6.78,6.005
										c0.798,4.318,0.374,8.835,2.045,12.984c1.454,3.608,5.08,4.172,8.306,5.489c1.157,0.472,2.435,1.111,2.693,2.457
										c0.355,1.857-0.956,3.977-2.723,4.523c-5.118,1.583-7.395-4.694-11.016-6.667c-8.197-4.465-17.586,4.32-17.971,12.457
										c-0.413,8.71,4.575,15.599,11.816,19.825c3.117,1.82,6.471,3.148,9.652,4.839c2.444,1.299,0.662,5.625,0.192,7.744
										c-0.717,3.234-1.753,6.024,1.635,7.986c1.812,1.049,3.439,1.147,4.467-0.835c0.986-1.901,1.463-4.026,2.275-6
										c0.566-1.376,1.43-3.291,3.23-3.09c1.708,0.19,2.663,2.276,3.253,3.654c0.866,2.024,1.385,4.198,1.972,6.314
										c0.562,2.024,1.225,4.176,1.071,6.302c-0.108,1.496-1.088,4.478-2.717,5.029c-1.19,0.403-3.411-0.629-4.724-0.604
										c-2.105,0.04-2.587,0.983-2.887,2.912c-0.221,1.423-0.46,3.355-0.018,4.759c1.189,3.773,7.448,0.009,8.087,4.784
										c0.45,3.363-2.933,9.584,1.754,11.151c1.758,0.588,3.48,0.429,4.433,2.319c0.693,1.374,0.966,3.057,1.237,4.557
										c0.77,4.265,0.984,8.666,0.841,12.992C2676.77,2138.677,2676.612,2142.55,2675.106,2145.667z"/>
								</g>
							</g>
							<path style="fill:#747F4E;" d="M2120,1883.308c2.498,2.42,6.648,2.863,9.814,3.932c1.369,0.463,2.951,0.999,3.992,2.054
								c1.349,1.368,1.302,3.314,1.096,5.1c-0.163,1.413-0.64,3.007-0.33,4.428c0.372,1.705,2.293,2.841,3.631,3.799
								c1.012,0.725,2.331,1.427,2.965,2.554c0.846,1.504,0.192,3.246-0.465,4.694c-1.292,2.844-4.417,2.943-7.099,3.954
								c-3.853,1.453-5.745,4.043-7.246,7.803c-1.527,3.824-2.298,7.907-2.994,11.949c-0.269,1.562-0.509,3.13-0.828,4.683
								c-0.273,1.326-0.731,2.542,0.019,3.789c1.219,2.027,4.261,2.414,5.269,4.575c1.234,2.647-2.745,6.906-4.227,8.802
								c-2.26,2.893-5.106,5.575-6.858,8.829c-1.249,2.32-0.686,4.219,1.495,5.754c4.534,3.19,11.072-2.652,14.691-4.945
								c3.458-2.191,7.016-4.234,10.818-5.773c4.558-1.845,9.055-2.343,13.94-2.266c3.962,0.062,8.246,0.425,11.969-1.217
								c3.728-1.644,6.289-5.478,7.955-9.064c3.243-6.98,2.866-14.927,0.811-22.186c-2.16-7.628-6.021-14.745-10.527-21.23
								c-2.073-2.984-4.312-5.856-6.716-8.582c-2.726-3.092-5.657-5.925-8.006-9.341c-2.742-3.989-4.914-8.473-5.843-13.248
								c-0.826-4.244-0.112-8.298,0.945-12.434c1.039-4.062,2.377-8.091,2.902-12.265c0.502-3.997-0.44-7.7-1.59-11.507
								c-1.505-4.984-3.719-9.334-8.628-11.6c-2.793-1.29-5.841-2.02-8.815-2.756c-2.19-0.542-4.323-1.198-6.575-0.646
								c-3.892,0.953-6.46,4.591-8.139,7.982c-2.428,4.906-3.64,10.411-4.347,15.808c-1.418,10.825-1.344,23.594,3.52,33.63
								C2117.472,1880.169,2118.556,1881.907,2120,1883.308z"/>
							<path style="fill:#747F4E;" d="M2116.306,1907.31c-0.164-5.885,0.032-12.287-1.788-17.961
								c-1.201-3.746-3.708-6.247-7.573-7.144c-2.543-0.59-5.29-0.652-7.884-0.468c-3.192,0.226-4.569,3.124-5.877,5.693
								c-1.427,2.805-2.808,6.37-5.555,8.162c-1.717,1.12-3.917,0.964-5.597,2.11c-2.394,1.633-3.578,5.629-3.58,8.392
								c-0.002,2.032,1.175,3.18,2.094,4.84c1.389,2.508,0.86,5.513,0.158,8.154c-0.967,3.637-2.679,7.003-4.373,10.343
								c-2.011,3.966-5.967,11.011-0.328,13.932c4.624,2.395,11.166,0.939,15.865-0.409c7.24-2.076,15.258-5.906,19.783-12.163
								C2116.542,1924.028,2116.532,1915.293,2116.306,1907.31z"/>
							<path style="fill:#747F4E;" d="M2673.483,2754.304c-3.051-0.595-5.214,6.472-5.966,8.365
								c-2.222,5.587-4.019,11.334-6.347,16.881c-1.672,3.983-3.749,9.504-8.057,11.31c-6.014,2.521-12.783-0.874-18.765,1.587
								c-5.2,2.139-6.99,8.697-8.723,13.551c-2.175,6.091-4.012,12.309-5.598,18.578c-1.763,6.972-3.227,14.046-4.062,21.193
								c-0.691,5.91-1.132,12.152,0.139,18.018c0.597,2.755,1.954,5.11,2.943,7.726c1.338,3.536,2.178,7.241,2.896,10.946
								c1.229,6.34,1.694,13.455,4.76,19.256c1.153,2.18,2.838,4.077,5.217,4.907c2.502,0.873,5.529,0.725,8.155,0.899
								c5.414,0.358,11.244,0.54,16.271-1.838c6.314-2.987,9.21-9.574,10.448-16.107c1.241-6.553,3.257-12.799,5.66-19.017
								c5.509-14.25,12.384-27.982,17.232-42.488c1.865-5.581,3.676-11.558,3.572-17.504c-0.047-2.714-0.619-5.42-0.865-8.123
								c-0.292-3.213-0.477-6.435-0.688-9.653c-0.436-6.663-0.892-13.396-2.439-19.91c-1.316-5.542-3.536-11.312-8.064-15.027
								C2678.976,2756.027,2676.304,2754.853,2673.483,2754.304z"/>
							<path style="fill:#747F4E;" d="M2589.822,1575.572c3.234,1.825,3.017,5.526,3.63,8.703c0.665,3.445,3,4.649,6.317,4.974
								c3.39,0.332,6.934-0.138,10.218-0.988c1.847-0.478,5.213-1.172,5.922-3.263c0.627-1.849-0.425-4.048-1.213-5.672
								c-1.219-2.511-2.692-4.893-3.963-7.377c-3.637-7.111-5.447-14.722-3.927-22.682c1.649-8.632,5.845-16.696,10.566-24.022
								c4.988-7.741,10.85-14.932,17.21-21.584c12.729-13.312,28.296-23.25,45.786-29.088c3.667-1.224,7.4-2.262,11.188-3.038
								c3.232-0.662,6.552-0.909,9.389-2.761c5.152-3.363,5.787-9.924,3.462-15.217c-2.053-4.676-7.896-11.422-13.659-9.391
								c-3.057,1.078-5.552,3.674-7.881,5.818c-3.135,2.886-6.294,5.755-9.874,8.09c-4.047,2.64-8.443,3.836-13.222,4.286
								c-3.931,0.37-7.987,0.146-11.866,0.948c-2.602,0.538-4.981,1.993-7.289,3.259c-3.098,1.698-6.136,3.509-9.122,5.398
								c-6.645,4.203-13.172,8.781-18.906,14.182c-4.254,4.007-7.226,8.222-9.37,13.62c-5.595,14.09-9.729,28.753-15.95,42.6
								c-1.702,3.789-3.682,7.485-6.731,10.37c-1.7,1.608-3.908,2.729-5.462,4.478c-2.138,2.406-1.657,5.881-0.829,8.742
								c0.88,3.042,2.604,7.773,5.485,9.521C2582.884,1577.387,2586.564,1573.728,2589.822,1575.572z"/>
							<path style="fill:#747F4E;" d="M2274.726,1443.905c3.581-1.433,6.165-3.955,7.727-7.457c0.987-2.212,1.551-5.257,3.806-6.581
								c2.754-1.616,7.604-0.456,10.187,1.018c2.496,1.424,2.052,3.724,1.053,6.019c-0.698,1.603-1.545,3.139-2.273,4.729
								c-0.843,1.842-1.421,3.798-2.469,5.541c-1.85,3.076-4.944,5.332-6.551,8.543c-3.377,6.748,4.769,13.288,11.018,12.832
								c8.694-0.634,14.209-8.381,17.359-15.679c2.158-5,4.656-9.837,7.238-14.628c1.823-3.382,3.822-6.751,5.199-10.348
								c0.899-2.349,1.484-4.472-0.718-6.197c-2.21-1.732-5.13-2.524-7.675-3.622c-1.71-0.738-4.956-1.942-4.856-4.274
								c0.07-1.634,1.593-3.466,2.575-4.664c1.35-1.647,3.04-3.19,5.026-4.021c2.983-1.248,6.796,0.045,7.371,3.52
								c0.324,1.957-0.597,3.867-1.094,5.71c-0.45,1.67-0.556,3.317,1.091,4.329c3.183,1.956,8.146,1.154,11.644,1.099
								c9.448-0.149,19.329,1.254,28.679-0.516c3.114-0.589,6.413-1.717,8.404-4.335c2.122-2.792,2.284-6.648,1.47-9.94
								c-1.968-7.957-9.063-14.396-16.115-18.012c-3.36-1.723-7.134-3.019-10.948-3.018c-4.704,0.001-9.42,1.415-14.029,2.222
								c-3.283,0.574-6.971,1.046-9.826-1.071c-2.139-1.587-3.784-4.615-6.883-3.264c-3.491,1.521-5.971,6.005-8.059,8.951
								c-3.349,4.725-6.545,9.618-10.425,13.934c-2.943,3.274-6.557,6.519-11.039,7.319c-3.564,0.636-7.155-0.578-10.51-1.662
								c-5.354-1.729-14.964-6.279-19.661-0.97c-3.814,4.31-2.483,12.142-1.498,17.233c1.087,5.617,3.06,12.987,8.025,16.481
								C2270,1444.553,2272.42,1444.829,2274.726,1443.905z"/>
							<path style="fill:#747F4E;" d="M2964.44,2484.618c-5.648,6.192-4.786,17.525-2.286,24.819
								c1.508,4.398,4.175,8.348,7.375,11.698c2.422,2.536,5.863,5.686,9.601,5.822c7.19,0.261,5.864-10.099,4.633-14.382
								c-1.959-6.815-5.38-13.324-9.309-19.2C2973.542,2492.012,2966.96,2481.868,2964.44,2484.618z"/>
							<path style="fill:#747F4E;" d="M1482.123,2402.348c-5.125-5.149-12.054-9.162-18.374-12.624
								c-2.852-1.562-5.865-3.196-9.07-3.887c-3.337-0.72-6.88-0.659-10.26-0.337c-3.391,0.323-6.937,0.931-10.035,2.406
								c-1.426,0.679-4.696,2.662-3.551,4.722c1.104,1.986,6.046,1.963,7.905,2.258c3.394,0.537,5.875,1.137,8.201,3.776
								c2.608,2.959,4.766,4.505,8.798,5.039c3.542,0.469,7.102,0.768,10.625,1.379c3.658,0.634,7.553,1.465,10.742,3.463
								c3.277,2.053,4.913,5.825,6.495,9.206c1.466,3.132,2.735,7.382,5.441,9.713c1.826,1.573,4.708,1.016,6.9,0.732
								c3.367-0.436,6.748-1.198,9.931-2.388c1.933-0.722,5.266-1.903,5.922-4.155c0.593-2.032-1.947-3.675-3.329-4.654
								c-2.916-2.065-6.137-3.711-9.309-5.338c-3.454-1.77-6.954-3.448-10.399-5.235
								C1486.542,2405.277,1483.908,2404.143,1482.123,2402.348z"/>
							<path style="fill:#747F4E;" d="M1547.295,2422.813c-4.713-1.996-10.278-3.552-15.437-3.034
								c-2.03,0.204-4.223,0.811-5.554,2.468c-1.304,1.624-1.478,4.005-1.688,5.996c-0.379,3.588,0.482,9.606-3.646,11.118
								c-2.502,0.916-10.153,1.607-9.18,5.947c0.389,1.737,2.672,1.505,4.041,1.412c1.983-0.135,3.874-0.442,5.861-0.228
								c5.11,0.55,10.363,0.752,15.49,0.34c3.811-0.307,7.597-1.265,11.296-2.192c4.275-1.071,8.728-2.197,12.689-4.177
								c0.996-0.498,2.748-1.282,3.003-2.528c0.331-1.612-1.576-3.572-2.523-4.631
								C1557.804,2429.009,1552.616,2425.066,1547.295,2422.813z"/>
							<path style="fill:#747F4E;" d="M1532.81,1730.947c-1.776-3.563-1.906-8.013-4.413-11.197
								c-2.233-2.836-5.625-3.122-8.989-3.206c-2.837-0.071-6.603,0.38-8.811-1.792c-1.983-1.95-3.005-4.766-4.534-7.049
								c-1.518-2.267-2.94-3.159-4.971-0.907c-2.303,2.554-3.722,5.99-4.77,9.219c-0.588,1.811-1.055,3.665-1.363,5.545
								c-0.297,1.816-0.187,3.672-0.485,5.474c-0.535,3.243-2.702,6.1-4.714,8.591c-1.39,1.72-4.239,4.003-4.749,6.252
								c-0.512,2.255,3.389,2.171,4.791,2.453c1.179,0.237,2.498,0.545,3.371,1.436c0.995,1.015,1.546,2.577,2.351,3.745
								c1.586,2.302,4.436,4.654,7.442,3.423c2.045-0.837,3.248-3.432,4.198-5.259c1.377-2.649,2.511-5.454,4.174-7.945
								c1.254-1.879,3.035-3.809,5.524-3.396c2.85,0.473,4.985,3.403,6.898,5.312c2.756,2.749,5.473,4.253,9.436,4.364
								c3.232,0.091,7.734-0.539,9.749-3.43c1.863-2.672-0.11-4.661-2.425-5.975
								C1537.834,1735.08,1534.283,1733.896,1532.81,1730.947z"/>
							<path style="fill:#747F4E;" d="M1402.487,1533.491c-3.24,1.466-2.07,5.983-1.581,8.675c0.529,2.913,1.665,7.31-1.417,9.221
								c-3.087,1.914-7.508,0.44-10.772-0.16c-1.133-0.208-3.054-0.77-4.127-0.083c-1.159,0.742-0.977,2.974-0.933,4.159
								c0.157,4.167,1.488,8.454,3.197,12.234c0.457,1.01,0.957,2.388,1.932,3.02c1.333,0.865,3.621,0.67,5.123,0.723
								c1.839,0.065,4.001-0.068,5.752,0.602c1.489,0.57,1.658,1.727,1.588,3.209c-0.167,3.55-2.215,7.784-0.645,11.214
								c1.431,3.124,6.198,6.53,7.626,1.714c1.011-3.41,1.086-7.052,2.289-10.416c0.372-1.042,0.919-2.474,2.109-2.797
								c1.457-0.396,2.799,0.905,3.759,1.793c1.053,0.975,2.154,2.148,3.725,1.89c1.571-0.258,2.78-1.635,3.451-2.991
								c1.612-3.255,1.76-7.319,1.815-10.878c0.047-3.078,0.105-6.487-0.624-9.505c-0.734-3.038-4.648-2.514-6.105-5.011
								c-1.851-3.174,1.985-5.784,4.167-7.376c2.526-1.844,6.662-3.811,7.96-6.845c1.014-2.37-1.488-3.23-3.351-3.679
								c-6.702-1.615-14.639-1.076-21.345,0.259C1404.866,1532.703,1403.62,1532.978,1402.487,1533.491z"/>
							<path style="fill:#747F4E;" d="M1497.005,1532.792c-0.4-2.422-6.217-2.637-7.905-2.821
								c-5.302-0.578-10.672-0.592-15.999-0.531c-4.627,0.053-9.254,0.214-13.875,0.457c-1.459,0.077-2.938,0.028-4.285,0.666
								c-2.271,1.074-4.096,3.151-5.647,5.066c-3.125,3.858-6.451,8.776-7.611,13.685c-0.892,3.776,2.815,8.281,4.917,11.061
								c1.673,2.212,6.398,8.816,9.815,6.411c2.574-1.811,2.022-4.927,2.556-7.603c0.584-2.929,3.736-2.668,6.166-2.621
								c3.418,0.066,7.936,1.174,10.962-0.84c2.745-1.827,4.521-4.9,6.676-7.325c1.022-1.151,2.147-2.323,3.529-3.042
								c1.715-0.892,3.504-1.349,5.116-2.495C1494.49,1540.678,1497.668,1536.83,1497.005,1532.792z"/>
							<path style="fill:#747F4E;" d="M1415.757,1492.54c0.833,1.078-0.185,4.399-0.344,5.555c-0.385,2.793-0.794,5.663-0.553,8.488
								c0.182,2.129,0.813,4.626,3.139,5.262c2.004,0.548,4.51,0.187,6.498-0.253c5.712-1.263,10.201-5.216,12.573-10.521
								c1.837-4.107,2.438-8.66,2.518-13.124c0.068-3.805-0.187-8.015-2.094-11.414c-0.48-0.856-1.728-2.973-2.803-3.14
								c-0.854-0.132-2.376,1.688-3.125,2.345c-1.338,1.174-2.674,2.352-4.006,3.533c-4.947,4.387-9.851,8.823-14.712,13.305
								C1413.543,1492.38,1415.183,1491.796,1415.757,1492.54z"/>
							<path style="fill:#747F4E;" d="M1460.401,1482.527c5.158,3.022,15.694-3.656,18.047,4.232c0.82,2.75,0.586,5.882,0.448,8.707
								c-0.165,3.371-0.503,6.737-0.547,10.114c-0.027,2.114-0.234,5.206,1.195,6.977c2.318,2.874,7.468,1.684,10.593,1.498
								c1.57-0.093,3.042-0.067,4.303,0.981c1.391,1.156,2.238,2.924,3.151,4.444c0.544,0.906,1.113,2.181,2.229,2.43
								c0.977,0.218,2.555-0.198,3.512-0.356c1.407-0.233,2.892-0.556,4.152-1.255c1.656-0.918,1.83-1.922,2.17-3.653
								c0.41-2.084,3.279-7.819,5.883-4.475c1.596,2.05,1.573,5.027,3.233,7.097c1.403,1.749,3.259,1.577,5.263,1.426
								c5.835-0.439,11.646-1.265,17.457-1.936c5.384-0.622,11.041-1.641,16.479-1.371c2.17,0.108,3.42,1.566,4.922,3.014
								c2.663,2.566,5.275,3.931,8.991,2.772c6.658-2.075,15.815-5.366,19.413-11.859c3.954-7.136-3.967-13.647-9.571-16.624
								c-7.076-3.758-14.264-4.158-22.088-3.613c-8.652,0.602-17.242,1.855-25.882,2.58c-7.759,0.651-15.623,0.517-23.351-0.441
								c-3.619-0.449-7.322-1.045-10.752-2.326c-2.113-0.789-4.946-2.096-5.371-4.619c-0.851-5.052,9.938-6.56,7.262-12.325
								c-1.08-2.327-4.533-2.971-6.762-3.404c-3.228-0.627-6.518-0.818-9.762-1.334c-5.701-0.906-10.453-4.932-15.468-7.553
								c-3.083-1.611-6.364-3.145-9.824-3.707c-2.365-0.384-5.88-0.396-7.474,1.765c-1.487,2.017-0.906,5.186-0.396,7.425
								c0.741,3.261,2.056,6.431,3.677,9.349C1456.717,1478.617,1458.226,1481.251,1460.401,1482.527z"/>
							<path style="fill:#747F4E;" d="M1521.85,1430.98c2.484-0.644,5.035-1.41,6.274-3.823c1.279-2.49,2.21-5.203,4.73-6.783
								c2.656-1.665,5.466-0.196,8.252-0.931c3.134-0.827,5.517-4.235,6.708-7.041c1.519-3.578,1.162-7.61,0.902-11.4
								c-0.195-2.848-0.272-6.966-2.201-9.301c-0.448-0.542-0.96-0.839-1.611-1.084c-1.365-0.515-1.88,0.168-3.038,0.933
								c-2.115,1.397-4.224,2.801-6.329,4.214c-4.207,2.824-8.392,5.68-12.556,8.567c-9.361,6.49-18.613,13.139-27.752,19.939
								c4.726,2.177,9.661,3.975,14.684,5.333C1513.532,1430.581,1518.09,1431.948,1521.85,1430.98z"/>
						</g>
					</g>
				</g>
			</g>
			<g>
				<path style="fill:#F4ECE5;" d="M2419.688,1639.982c-66.727-115.574-186.237-184.571-319.688-184.571
					s-252.961,68.998-319.687,184.571l-43.303,75.002l-26.567-15.339c-34.694-20.031-76.809,10.197-68.932,49.477l41.086,204.907
					c5.52,27.524,33.956,43.942,60.552,34.959l197.998-66.872c37.955-12.819,43.076-64.405,8.382-84.436l-30.473-17.593
					l43.302-75.001c28.729-49.76,80.186-79.467,137.644-79.467s108.915,29.707,137.644,79.467l118.165,204.669l182.045-105.104
					L2419.688,1639.982z"/>
				<path style="fill:#F4ECE5;" d="M2462.451,2821.48c133.453,0,252.962-69,319.687-184.572
					c66.726-115.572,66.727-253.569,0-369.143l-43.302-75.002l26.567-15.339c34.694-20.03,29.573-71.617-8.382-84.435
					l-197.998-66.872c-26.596-8.982-55.032,7.436-60.551,34.96l-41.086,204.907c-7.876,39.28,34.239,69.507,68.933,49.477
					l30.472-17.594l43.302,75.001c28.729,49.76,28.728,109.176-0.001,158.937c-28.729,49.76-80.184,79.469-137.642,79.469
					l-236.331,0l0,210.207L2462.451,2821.48z"/>
				<path style="fill:#F4ECE5;" d="M1417.862,2267.765c-66.726,115.574-66.725,253.571,0,369.143
					c66.725,115.572,186.234,184.572,319.687,184.572l86.605,0v30.677c0,40.061,47.235,61.42,77.314,34.959l156.912-138.035
					c21.076-18.542,21.076-51.378,0-69.919l-156.912-138.035c-30.079-26.461-77.314-5.102-77.315,34.959l0,35.187l-86.604,0
					c-57.458,0-108.913-29.709-137.642-79.469c-28.729-49.76-28.73-109.176-0.001-158.937l118.166-204.669l-182.045-105.104
					L1417.862,2267.765z"/>
			</g>
		</g>
	</g>
</g>
</svg>
