<svg id="Layer_1" enable-background="new 0 0 32 32" height="512" viewBox="0 0 32 32" width="512" xmlns="http://www.w3.org/2000/svg"><path d="m21.509 10c-.239.002-5.747-.063-8.842 3.03-2.074 2.075-2.579 5.08-1.272 6.868l-1.248 1.248c-.195.195-.195.512 0 .707s.512.195.707 0l1.24-1.24c2.115 1.517 5.012.584 6.876-1.281 3.094-3.095 3.034-8.608 3.03-8.842-.005-.268-.222-.485-.491-.49zm-4.066 1.563c1.051-.288 2.043-.429 2.784-.498l-2.784 2.784zm-3.203 1.45c.681-.484 1.439-.853 2.203-1.132v2.969l-2.203 2.203zm-1 .881v4.159l-1.133 1.133c-.864-1.362-.401-3.65 1.133-5.292zm-.426 5.999 1.133-1.133h4.159c-1.642 1.534-3.93 1.998-5.292 1.133zm6.173-2.133h-4.04l2.203-2.203h2.969c-.279.764-.648 1.522-1.132 2.203zm1.45-3.203h-2.287l2.784-2.784c-.068.741-.209 1.733-.497 2.784z"/><path d="m25 2.5h-18c-2.481 0-4.5 2.019-4.5 4.5v7.823c0 .276.224.5.5.5h4v13.677c0 .276.224.5.5.5h17c.276 0 .5-.224.5-.5v-13.677h4c.276 0 .5-.224.5-.5v-7.823c0-2.481-2.019-4.5-4.5-4.5zm-6.13 1c-.238 1.372-1.431 2.421-2.87 2.421s-2.632-1.049-2.87-2.421zm9.63 10.823h-3.5v-5.323c0-.276-.224-.5-.5-.5s-.5.224-.5.5v19.5h-16v-19.5c0-.276-.224-.5-.5-.5s-.5.224-.5.5v5.323h-3.5v-7.323c0-1.93 1.57-3.5 3.5-3.5h5.13c.249 1.924 1.879 3.421 3.87 3.421s3.622-1.497 3.87-3.421h5.13c1.93 0 3.5 1.57 3.5 3.5z"/></svg>